<svg width="171" height="118" viewBox="0 0 171 118" fill="none" xmlns="http://www.w3.org/2000/svg">
<path d="M19.5962 31.7186C19.8022 32.2263 20.4417 32.599 20.8843 32.8602C21.5238 33.2382 22.1868 33.5725 22.8733 33.8556C23.2328 34.0036 23.5996 34.1369 23.9699 34.2502C24.1524 34.3068 24.3547 34.336 24.5299 34.4091C24.6582 34.462 24.7504 34.5424 24.8768 34.61C25.1117 34.736 25.2489 34.9899 25.3555 35.2365C25.8289 36.3379 25.9373 37.5635 26.3293 38.696C26.4774 38.6796 26.5696 38.5316 26.6364 38.3983C27.0393 37.5873 27.2705 36.7069 27.565 35.8539C27.8504 35.0283 28.2894 34.2922 28.4773 33.4337C28.5785 32.9716 28.667 32.5076 28.7429 32.04C28.8621 31.3204 28.9488 30.5952 29.0084 29.8683C29.0572 29.2673 29.0843 28.6609 29.0915 28.0563V28.0362C29.0951 27.5357 28.853 27.1558 28.6706 26.6937C27.8612 24.6388 26.6165 22.7483 24.9978 21.5958C24.3529 21.1373 23.5869 20.7939 22.9347 21.0643C21.9754 21.4588 21.7966 22.4506 21.3793 23.3712C20.9493 24.3137 20.9656 25.3987 20.8193 26.4544C20.6494 27.6764 20.4019 28.8801 20.167 30.0874C20.1002 30.429 19.9503 30.7523 19.7841 31.0555C19.6558 31.2875 19.486 31.4464 19.5962 31.7186Z" fill="#F7967C"/>
<path d="M26.5569 31.1394C27.0681 31.5138 27.9642 32.0253 28.7446 32.0417C28.8638 31.322 28.9506 30.5969 29.0102 29.8699C29.059 29.269 29.086 28.6626 29.0933 28.058C28.5928 27.7292 27.9461 27.5867 27.3517 27.3858C26.4376 27.0826 24.9978 26.6661 24.5154 27.6086C23.9644 28.6973 25.6626 30.4836 26.5569 31.1394Z" fill="#DB6357"/>
<path d="M30.49 14.6395C30.7248 15.0706 30.8802 15.5437 31.0193 16.0149C31.4131 17.3501 31.3029 19.0708 32.3056 20.1393C32.9596 20.8352 33.796 21.3192 34.4861 21.9713C34.7011 22.1741 34.9558 22.5704 34.9973 22.8755C35.0281 23.1148 34.786 23.2864 34.5764 23.3997C34.3145 23.5422 34.0525 23.6828 33.7887 23.8253C33.6243 23.9148 33.4545 24.0061 33.3371 24.1541C33.2377 24.2783 33.1835 24.4335 33.1492 24.5906C33.0517 25.0491 33.1799 25.4801 33.2648 25.9313C33.3841 26.5578 33.4672 27.1898 33.5141 27.8254C33.5521 28.335 33.6009 29.0036 33.2558 29.4164C32.8945 29.8493 32.3074 30.1835 31.7853 30.3698C29.5361 31.1735 26.6997 30.8411 24.6222 29.6593C23.6123 29.0839 23.0631 28.2839 22.2809 27.4784C21.6305 26.8062 20.6153 27.1551 19.8168 26.9432C18.0662 26.4811 16.8467 24.5742 16.48 22.8864C16.2903 22.0152 16.3355 21.1128 16.3825 20.2215C16.4204 19.4963 16.4601 18.7621 16.6769 18.0716C16.8937 17.383 17.2785 16.7638 17.6615 16.1556C18.2125 15.2788 18.7816 14.3893 19.571 13.7226C20.8645 12.6322 22.5645 12.2522 24.1832 11.9947C25.8778 11.7244 27.6717 12.1609 29.079 13.1472C29.5578 13.4815 30.0004 13.8815 30.3237 14.371C30.3888 14.4587 30.4412 14.5482 30.49 14.6395Z" fill="#F7967C"/>
<path d="M27.1245 17.9093C26.9366 17.4107 26.7541 16.9066 26.8065 16.3823C26.8535 15.9019 27.1118 15.4471 27.4984 15.1622C28.2644 14.5978 29.4586 14.6873 30.0096 13.9073C30.389 13.3685 30.2805 12.5977 29.9246 12.0443C29.3285 11.12 28.8985 10.5666 27.8308 10.1519C27.6032 10.0624 27.363 9.97295 27.1209 10.0077C26.8662 10.0442 26.6548 10.2141 26.4507 10.3711C26.0622 10.6689 25.6214 10.9538 25.1337 10.9538C24.7543 10.9538 24.3966 10.7821 24.0425 10.6433C23.4301 10.404 22.7833 10.2561 22.1293 10.2031C21.4356 10.1483 20.7003 10.2122 20.1132 10.5903C19.3833 11.0616 18.957 11.9694 18.1476 12.2817C17.7032 12.4534 17.2082 12.4169 16.7403 12.4954C15.4794 12.7055 14.4315 13.8507 14.3213 15.1384C14.2798 15.628 14.3574 16.143 14.1659 16.596C13.8841 17.2646 13.1362 17.5641 12.5129 17.9258C11.5301 18.4957 10.6702 19.5222 10.7804 20.6638C10.8455 21.3323 11.2321 21.9296 11.3495 22.5926C11.5789 23.884 10.7606 25.1827 10.9448 26.4814C11.084 27.4586 11.8409 28.3189 12.7857 28.5709C13.3457 28.7207 13.9528 28.6732 14.4911 28.8906C15.3492 29.2376 15.1487 30.1564 16.1153 30.392C16.9969 30.6057 18.0175 30.5582 18.7438 29.95C19.0274 29.7125 19.2569 29.3984 19.5911 29.2431C20.1241 28.9947 20.7527 29.2212 21.2658 29.5116C21.7788 29.802 22.2847 30.1673 22.8718 30.2039C23.4337 30.2386 23.9756 29.9573 24.4056 29.5901C25.5455 28.6184 26.0713 26.969 25.71 25.5078C25.6016 25.0676 25.4191 24.6475 25.3378 24.2018C25.2547 23.7561 25.2872 23.2593 25.5672 22.9031C25.8256 22.5744 26.2411 22.4264 26.5789 22.1816C27.1498 21.7688 27.4804 21.0747 27.5635 20.3697C27.6466 19.6646 27.5021 18.9505 27.2654 18.282C27.2184 18.1577 27.1715 18.0335 27.1245 17.9093Z" fill="#1E1B35"/>
<path d="M30.9232 18.2715C30.8726 18.1509 30.7534 18.056 30.6089 18.0432C30.2909 18.014 30.0325 18.0633 29.7543 18.213C29.4273 18.3902 29.0949 18.5729 28.8258 18.8651C28.6776 19.0259 28.5457 19.214 28.4391 19.4241C28.4012 19.4989 28.2188 20.0889 28.1862 20.0944C28.5006 20.0433 28.7246 19.7218 28.9775 19.4953C29.3334 19.1756 29.7652 19.0313 30.1879 18.8944C30.4011 18.8249 30.6522 18.8067 30.8329 18.6423C30.9557 18.529 30.9719 18.3884 30.9232 18.2715Z" fill="#1E1B35"/>
<path d="M30.7049 20.4183C30.62 20.3398 30.508 20.2941 30.3653 20.316C30.0546 20.3635 29.9714 20.6448 29.9714 20.8677C29.9714 20.8768 29.9714 20.8841 29.9732 20.8932C29.966 20.99 29.966 21.0868 29.9769 21.1818C29.9968 21.359 30.0419 21.5563 30.1395 21.7079C30.1846 21.7809 30.2461 21.843 30.3255 21.8741C30.4267 21.9143 30.5405 21.8905 30.6344 21.843C30.6417 21.8394 30.6453 21.8339 30.6525 21.8303C30.6977 21.8083 30.7411 21.7809 30.779 21.7499C30.9289 21.6202 30.9831 21.4339 30.9723 21.2384C30.9687 21.1745 30.9542 21.1124 30.9416 21.0485C30.9452 20.9681 30.9397 20.8914 30.9217 20.8202C30.9145 20.7855 30.9037 20.7489 30.8892 20.7106C30.8784 20.6375 30.8567 20.5644 30.8079 20.5042C30.779 20.4695 30.7428 20.4402 30.7049 20.4183Z" fill="#1E1B35"/>
<path d="M30.414 26.0383C30.3688 25.9853 30.3327 25.9251 30.3128 25.8593C30.2333 25.6054 30.47 25.4136 30.685 25.3607C30.7807 25.3369 30.8783 25.326 30.974 25.3406C31.0842 25.3588 31.1854 25.4118 31.292 25.452C31.4889 25.5269 31.7039 25.5543 31.9116 25.5305C32.0019 25.5196 32.0941 25.4995 32.1862 25.505C32.7734 25.5378 32.7806 26.358 32.329 26.5918C32.1447 26.6867 31.9279 26.6995 31.7201 26.6886C31.4419 26.674 31.1583 26.621 30.9198 26.4767C30.7807 26.3945 30.6615 26.2849 30.5441 26.1735C30.4989 26.1315 30.4537 26.0858 30.414 26.0383Z" fill="white"/>
<path d="M24.8085 20.9031C25.4353 20.8209 25.8852 20.2328 26.0333 19.6446C26.223 18.8902 25.9791 18.0993 25.6738 17.4125C25.6178 17.2865 25.9665 17.2536 26.0153 17.3632C26.3495 18.1158 26.606 18.9871 26.3441 19.8035C26.1327 20.4593 25.5925 20.9871 24.9042 21.0785C24.8482 21.0858 24.7091 21.0858 24.6874 21.0145C24.6603 20.9433 24.7525 20.9104 24.8085 20.9031Z" fill="#3F3768"/>
<path d="M23.0814 20.4244C23.9684 20.3221 24.5375 19.4344 24.3857 18.5704C24.3659 18.4572 24.7163 18.4389 24.7398 18.5704C24.8247 19.0526 24.6982 19.5641 24.3911 19.944C24.0912 20.3166 23.645 20.5468 23.1753 20.6016C23.1139 20.6089 22.9892 20.6089 22.9567 20.5376C22.926 20.4646 23.0326 20.4299 23.0814 20.4244Z" fill="#3F3768"/>
<path d="M21.6596 27.02C21.7337 26.978 21.8349 26.9889 21.9107 27.02C22.3064 27.1825 22.7688 27.0857 23.0886 26.8063C23.4174 26.5159 23.5854 26.0702 23.5457 25.6336C23.5348 25.5131 23.8871 25.5021 23.8997 25.6336C23.9467 26.1542 23.7046 26.6912 23.2783 26.9889C22.8068 27.3177 22.1871 27.3652 21.6614 27.1497C21.5874 27.1204 21.6018 27.0529 21.6596 27.02Z" fill="#3F3768"/>
<path d="M20.3318 26.1631C20.6769 26.1777 21.0581 26.2033 21.3797 26.0517C21.6434 25.9275 21.8674 25.6882 21.8999 25.3868C21.9144 25.2572 22.2667 25.2663 22.2541 25.3868C22.2161 25.7485 21.9469 26.0316 21.6308 26.1814C21.2261 26.3713 20.7672 26.364 20.3318 26.3458C20.2776 26.344 20.1566 26.3312 20.1548 26.2544C20.153 26.1814 20.2849 26.1613 20.3318 26.1631Z" fill="#3F3768"/>
<path d="M13.0134 19.2227C13.0748 19.1697 13.1814 19.166 13.2555 19.1898C13.3061 19.2062 13.382 19.261 13.3187 19.314C12.7443 19.809 12.4643 20.5944 12.5817 21.3488C12.5997 21.4638 12.2474 21.4803 12.2276 21.3488C12.1065 20.5615 12.4154 19.7396 13.0134 19.2227Z" fill="#3F3768"/>
<path d="M17.6848 13.426C17.748 13.4151 17.869 13.4224 17.9016 13.49C17.9377 13.5612 17.8221 13.5941 17.7787 13.6014C17.7787 13.6014 17.7498 13.6087 17.7462 13.6087C17.7317 13.6123 17.7173 13.616 17.701 13.6196C17.6667 13.6288 17.6342 13.6397 17.6017 13.6525C17.5565 13.6708 17.4843 13.7055 17.4319 13.7365C17.3127 13.8078 17.2061 13.9009 17.1139 14.0032C16.9297 14.2133 16.8122 14.4854 16.7905 14.7649C16.7851 14.8398 16.6713 14.8562 16.6135 14.8562C16.5665 14.8562 16.4311 14.8398 16.4365 14.7649C16.4889 14.0854 17.0344 13.5448 17.6848 13.426Z" fill="#3F3768"/>
<path d="M14.9646 25.989C15.0315 25.9525 15.1471 25.9488 15.2157 25.989C15.3187 26.0511 15.4235 26.0877 15.5301 26.1004C15.5337 26.1004 15.5554 26.1023 15.5626 26.1041C15.5698 26.1041 15.5951 26.1059 15.5951 26.1059C15.6114 26.1059 15.6276 26.1059 15.6421 26.1059C15.6421 26.1059 15.6619 26.1059 15.6673 26.1041C15.727 26.0986 15.7794 26.0895 15.8263 26.0767C16.0594 26.0128 16.2635 25.863 16.3864 25.6529C16.4478 25.547 16.7947 25.589 16.7278 25.7004C16.3846 26.2831 15.5283 26.4585 14.961 26.1187C14.905 26.0822 14.8996 26.0237 14.9646 25.989Z" fill="#3F3768"/>
<path d="M69.9712 83.492C70.2931 81.4248 70.2734 79.3362 69.8746 77.219C69.3936 74.6726 68.0596 72.2639 65.3415 71.6917C64.6674 71.5504 63.9771 71.5683 63.294 71.5933C58.2762 71.765 53.271 71.9349 48.289 72.3909C46.1485 72.5876 44.0098 72.7914 41.8711 72.9935C37.6617 73.3941 33.4522 73.7928 29.2374 74.129C25.7932 74.4026 22.1989 74.9998 19.1232 76.7594C18.0771 77.3585 16.4319 78.2436 15.7112 79.304C14.6991 80.7936 14.7885 83.6476 14.919 85.4107C14.9888 86.3424 15.139 87.2883 15.5342 88.1252C16.2942 89.7364 17.875 90.7378 19.4879 91.1294C21.1009 91.521 22.7675 91.3887 24.4073 91.2671C36.8051 90.3426 49.2564 90.1119 61.6971 90.5715C62.5733 90.6036 63.4388 90.5339 64.3061 90.4141C65.5256 90.246 66.6451 90.3623 67.6483 89.4843C68.5352 88.7064 68.943 87.5315 69.2917 86.405C69.5921 85.4394 69.8192 84.4683 69.9712 83.492Z" fill="#131515"/>
<path d="M58.5748 116.913C57.7451 117.23 56.9081 117.269 56.0265 117.244L52.9472 117.162C52.1139 116.915 51.2735 116.557 50.3901 116.564C49.7946 116.568 49.2922 116.852 48.7682 117.051L45.7819 116.97C45.3939 116.861 45.0201 116.716 44.6839 116.523C44.5659 116.457 44.4496 116.378 44.3888 116.264C44.3351 116.162 44.3316 116.048 44.3333 115.937C44.3387 115.604 44.3924 115.279 44.4711 114.957C44.6749 114.132 45.038 113.335 45.1399 112.487C45.1542 112.373 45.1667 112.258 45.1739 112.144C45.2293 111.414 45.2007 110.662 45.2884 109.928C45.3027 109.825 45.3205 109.714 45.3974 109.641C45.4492 109.592 45.5207 109.565 45.5905 109.542C46.9674 109.065 48.3337 108.807 49.7643 108.786C50.1809 108.779 50.5993 108.791 51.0285 108.825C51.1018 108.466 51.2073 108.115 51.3414 107.772C51.3807 107.677 51.4237 107.575 51.5149 107.52C51.5936 107.471 51.6955 107.464 51.7903 107.475C52.4877 107.559 52.6415 108.212 52.7184 108.734C52.8274 109.467 53.0134 110.184 53.2853 110.878C53.6125 111.718 54.5763 112.292 55.3202 112.811C56.1428 113.381 57.0441 113.873 58.0508 114.09C58.387 114.161 58.7376 114.206 59.0398 114.363C59.3617 114.531 59.5637 114.744 59.671 114.975C60.0107 115.692 59.4153 116.593 58.5748 116.913Z" fill="#060C0D"/>
<path d="M58.5748 116.913C57.7451 117.23 56.9081 117.269 56.0265 117.244L52.9472 117.162C52.1139 116.915 51.2735 116.557 50.3901 116.565C49.7946 116.568 49.2922 116.853 48.7682 117.051L45.7819 116.971C45.3939 116.861 45.0201 116.717 44.6839 116.524C44.5659 116.457 44.4496 116.379 44.3888 116.264C44.3351 116.162 44.3316 116.048 44.3333 115.937C44.3387 115.604 44.3924 115.279 44.4711 114.957C44.6159 115.041 44.768 115.141 44.9217 115.22C46.1073 115.833 47.5236 116.053 48.8522 115.799C49.2546 115.722 49.6498 115.604 50.0575 115.57C50.7174 115.517 51.3701 115.681 52.0228 115.806C53.3228 116.055 54.6567 116.137 55.98 116.055C56.7186 116.008 57.4661 115.907 58.1367 115.619C58.6499 115.4 59.1238 115.073 59.6746 114.975C60.0107 115.692 59.4153 116.593 58.5748 116.913Z" fill="#1E1B35"/>
<path d="M53.148 110.04C52.928 109.99 52.7099 109.94 52.4899 109.89C52.6902 109.801 52.8797 109.695 53.0693 109.588C53.1193 109.559 53.1266 109.518 53.0711 109.488C53.0175 109.459 52.9155 109.452 52.86 109.483C52.6419 109.604 52.4238 109.726 52.1913 109.822L51.3329 109.627C51.3222 109.626 51.3096 109.624 51.2953 109.624C51.2649 109.62 51.2346 109.62 51.2078 109.626C51.1685 109.633 51.1238 109.647 51.1148 109.688C51.0647 109.89 51.1827 110.1 51.3687 110.205C51.3973 110.221 51.4403 110.228 51.4742 110.228C51.5082 110.228 51.5493 110.225 51.5797 110.21L51.5815 110.209C51.6799 110.198 51.7746 110.164 51.8676 110.121C51.9892 110.066 52.118 110.03 52.2432 109.987C52.5167 110.049 52.7903 110.112 53.0639 110.173C53.114 110.185 53.2213 110.18 53.2482 110.128C53.2786 110.074 53.1873 110.049 53.148 110.04ZM51.8157 109.955C51.7585 109.974 51.7031 109.998 51.6477 110.023C51.6369 110.028 51.6262 110.033 51.6155 110.037C51.619 109.967 51.5994 109.896 51.5636 109.833C51.6852 109.862 51.8068 109.888 51.9302 109.917C51.8909 109.93 51.8533 109.94 51.8157 109.955Z" fill="#1E1B35"/>
<path d="M54.2382 111.913C53.9395 111.915 53.6392 111.92 53.3406 111.888C53.2708 111.881 53.201 111.87 53.1331 111.857C53.1581 111.836 53.1814 111.813 53.2064 111.791C53.2905 111.716 53.3727 111.639 53.4549 111.564C53.5247 111.5 53.5945 111.432 53.666 111.369C53.7 111.364 53.7304 111.35 53.7465 111.325C53.8073 111.237 53.607 111.21 53.5587 111.215C53.4747 111.224 53.43 111.271 53.3728 111.323C53.2673 111.419 53.1635 111.516 53.058 111.611C52.9918 111.672 52.9256 111.732 52.8595 111.793C52.7253 111.756 52.5948 111.711 52.4625 111.657C52.4571 111.655 52.45 111.654 52.4446 111.652C52.4392 111.65 52.4357 111.648 52.4303 111.646C52.4214 111.643 52.4107 111.641 52.4 111.639C52.3249 111.62 52.2426 111.62 52.1728 111.65C52.1549 111.657 52.137 111.668 52.1227 111.682C52.1192 111.686 52.1174 111.689 52.1138 111.693C52.1066 111.695 52.0995 111.697 52.0941 111.698C52.0763 111.707 52.044 111.725 52.0494 111.748C52.0512 111.759 52.0565 111.768 52.0583 111.779C52.0494 111.791 52.0441 111.806 52.0405 111.822C52.0334 111.859 52.053 111.897 52.0798 111.924C52.0941 111.938 52.1102 111.949 52.1281 111.956C52.1996 112.083 52.3069 112.192 52.4446 112.263C52.45 112.265 52.4554 112.267 52.4608 112.269C52.4679 112.272 52.4768 112.278 52.4857 112.279C52.5412 112.297 52.6431 112.303 52.6914 112.26C52.7933 112.167 52.8953 112.074 52.9972 111.981C53.0705 111.995 53.1456 112.009 53.2225 112.018C53.5587 112.058 53.8948 112.058 54.2328 112.054C54.2775 112.054 54.3831 112.047 54.3849 111.988C54.3866 111.931 54.2793 111.911 54.2382 111.913Z" fill="#1E1B35"/>
<path d="M55.6833 112.93C55.4115 112.912 55.1379 112.914 54.8643 112.932C54.943 112.792 55.0199 112.653 55.0914 112.51C55.1397 112.413 54.8482 112.379 54.8052 112.465C54.7212 112.633 54.6301 112.8 54.5371 112.964C54.4834 112.971 54.4315 112.973 54.3778 112.982C54.2473 113.002 54.115 113.021 53.9988 113.082C53.9934 113.086 53.9916 113.087 53.9881 113.091C53.9648 113.098 53.9433 113.109 53.9344 113.127L53.9326 113.134C53.9255 113.138 53.9165 113.139 53.9094 113.145C53.8933 113.159 53.8825 113.177 53.8932 113.198C53.9272 113.266 53.9773 113.331 54.0363 113.381C54.0917 113.429 54.1579 113.465 54.2276 113.495C54.2491 113.558 54.4727 113.579 54.5192 113.508C54.6104 113.368 54.6962 113.225 54.7802 113.082C54.8232 113.079 54.8679 113.071 54.9108 113.07C55.1665 113.052 55.4239 113.053 55.6814 113.071C55.7261 113.073 55.8299 113.061 55.8317 113.005C55.8335 112.946 55.7244 112.934 55.6833 112.93Z" fill="#1E1B35"/>
<path d="M57.064 113.56C56.9996 113.526 56.9191 113.531 56.853 113.555C56.7725 113.581 56.692 113.612 56.6151 113.646V113.644C56.5991 113.569 56.5651 113.496 56.574 113.417C56.5794 113.36 56.4684 113.342 56.4273 113.342C56.3808 113.342 56.2825 113.349 56.2771 113.408C56.27 113.481 56.2986 113.549 56.3147 113.619C56.3272 113.671 56.3326 113.723 56.3379 113.776C56.1949 113.851 56.0572 113.932 55.9267 114.023H55.9213H55.9141C55.907 114.023 55.898 114.023 55.8909 114.023C55.8605 114.027 55.8229 114.034 55.8015 114.053L55.7854 114.07C55.7783 114.082 55.7782 114.095 55.7836 114.107C55.7854 114.111 55.7872 114.116 55.7872 114.116V114.12C55.7872 114.146 55.7979 114.175 55.8158 114.197C55.8247 114.207 55.8373 114.213 55.8462 114.222C55.882 114.263 55.9248 114.298 55.9749 114.323C56.0983 114.39 56.2521 114.406 56.388 114.374C56.4023 114.37 56.4167 114.365 56.4292 114.357C56.4792 114.356 56.5364 114.347 56.5508 114.311C56.6098 114.166 56.6419 114.014 56.6401 113.86C56.6401 113.851 56.6383 113.842 56.6365 113.834C56.7742 113.766 56.9156 113.707 57.0622 113.658C57.1194 113.64 57.1104 113.585 57.064 113.56Z" fill="#1E1B35"/>
<path d="M60.3897 80.9025C59.9248 81.2476 59.4849 81.6446 59.0736 82.0791C57.7378 83.49 56.7847 85.212 55.8709 86.9251C52.096 94.0028 48.727 101.299 45.7889 108.763C44.9807 110.817 45.8015 110.74 47.6219 111.05C49.3565 111.345 51.0927 111.64 52.8273 111.935C53.2565 112.008 53.6553 112.03 54.088 112.01C54.3312 111.999 54.3295 112.178 54.5655 112.078C54.6997 112.021 54.8963 111.649 54.9911 111.527C55.5776 110.765 56.157 109.998 56.7203 109.219C57.8755 107.622 58.9789 105.987 60.0554 104.335C62.2084 101.03 64.2487 97.6543 66.3714 94.33C67.4514 92.6402 68.5386 90.9325 69.2092 89.0423C69.8369 87.2756 70.2214 84.9331 69.4489 83.1395C68.8051 81.6446 67.1045 80.4358 65.6167 79.9064C63.7051 79.2234 61.9115 79.7759 60.3897 80.9025Z" fill="#131515"/>
<path d="M63.8536 83.3117C63.9287 82.9469 63.9948 82.5785 64.0592 82.2137C64.4759 79.8604 64.796 77.3731 63.9591 75.136C63.2903 73.3496 61.4824 72.0335 59.6388 71.6472C58.9646 71.506 58.2743 71.5239 57.5912 71.5471C52.5735 71.7188 47.5683 71.8886 42.5863 72.3446C40.4458 72.5413 38.3071 72.7452 36.1684 72.9491C31.9589 73.3496 27.7494 73.7484 23.5346 74.0846C20.0905 74.3599 16.4962 74.9554 13.4205 76.7168C12.6158 77.1781 11.7484 77.6145 11.0403 78.2189C10.2678 78.8769 10.1963 79.5117 10.0568 80.54C9.76532 82.6983 9.92625 84.9175 10.5414 87.0079C10.967 88.4509 11.7681 90.2284 13.1772 90.9669C14.6686 91.7484 17.072 91.346 18.7064 91.2244C31.1042 90.2999 43.5555 90.0675 55.9962 90.5288C58.9843 90.6397 61.57 89.2574 62.8754 86.4839C63.3475 85.479 63.6336 84.4025 63.8536 83.3117Z" fill="#131515"/>
<path d="M52.3374 116.913C51.5077 117.23 50.6708 117.269 49.7892 117.244L46.7099 117.162C45.8766 116.915 45.0362 116.557 44.1528 116.564C43.5573 116.568 43.0547 116.852 42.5308 117.051L39.5445 116.97C39.1564 116.861 38.781 116.716 38.4466 116.523C38.3285 116.457 38.2123 116.378 38.1515 116.264C38.0978 116.162 38.0943 116.048 38.096 115.937C38.1014 115.604 38.155 115.279 38.2337 114.957C38.4376 114.132 38.8006 113.335 38.9026 112.487C38.9169 112.373 38.9276 112.258 38.9383 112.144C38.9937 111.414 38.9633 110.662 39.0527 109.928C39.067 109.825 39.0849 109.714 39.1618 109.641C39.2137 109.592 39.2852 109.565 39.355 109.542C40.7319 109.065 42.0981 108.807 43.5287 108.786C43.9454 108.779 44.3637 108.791 44.7929 108.825C44.8662 108.466 44.9717 108.115 45.1058 107.772C45.1452 107.677 45.1882 107.575 45.2794 107.52C45.3581 107.471 45.46 107.464 45.5547 107.475C46.2521 107.559 46.4059 108.212 46.4845 108.734C46.5936 109.467 46.7796 110.184 47.0514 110.878C47.3787 111.718 48.3425 112.292 49.0864 112.811C49.909 113.381 50.8103 113.873 51.8171 114.09C52.1533 114.161 52.5038 114.206 52.806 114.363C53.1278 114.531 53.3299 114.744 53.4371 114.975C53.7715 115.692 53.1779 116.593 52.3374 116.913Z" fill="#060C0D"/>
<path d="M52.3374 116.913C51.5077 117.23 50.6708 117.269 49.7892 117.244L46.7099 117.162C45.8766 116.915 45.0362 116.557 44.1528 116.565C43.5573 116.568 43.0547 116.853 42.5308 117.051L39.5445 116.971C39.1564 116.861 38.781 116.717 38.4466 116.524C38.3285 116.457 38.2123 116.379 38.1515 116.264C38.0978 116.162 38.0943 116.048 38.096 115.937C38.1014 115.604 38.155 115.279 38.2337 114.957C38.3786 115.041 38.5306 115.141 38.6844 115.22C39.87 115.833 41.288 116.053 42.6148 115.799C43.0172 115.722 43.4106 115.604 43.8201 115.57C44.48 115.517 45.1327 115.681 45.7854 115.806C47.0854 116.055 48.4194 116.137 49.7427 116.055C50.4813 116.008 51.2287 115.907 51.8993 115.619C52.4125 115.4 52.8864 115.073 53.4371 114.975C53.7715 115.692 53.1779 116.593 52.3374 116.913Z" fill="#1E1B35"/>
<path d="M46.9082 110.04C46.69 109.99 46.4701 109.94 46.2502 109.89C46.4505 109.801 46.6401 109.695 46.8296 109.588C46.8797 109.559 46.8868 109.518 46.8314 109.488C46.7777 109.459 46.6758 109.452 46.6204 109.483C46.4022 109.604 46.184 109.726 45.9516 109.822L45.0932 109.627C45.0825 109.626 45.07 109.624 45.0557 109.624C45.0253 109.62 44.9949 109.62 44.9681 109.626C44.9287 109.633 44.884 109.647 44.8751 109.688C44.825 109.89 44.943 110.1 45.1289 110.205C45.1576 110.221 45.2005 110.228 45.2345 110.228C45.2667 110.228 45.3096 110.225 45.34 110.21L45.3418 110.209C45.4401 110.198 45.535 110.164 45.6279 110.121C45.7495 110.066 45.8783 110.03 46.0053 109.987C46.2789 110.049 46.5524 110.112 46.826 110.173C46.8761 110.185 46.9833 110.18 47.0102 110.128C47.0406 110.074 46.9476 110.049 46.9082 110.04ZM45.5779 109.955C45.5206 109.974 45.4652 109.998 45.4098 110.023C45.399 110.028 45.3883 110.033 45.3776 110.037C45.3811 109.967 45.3614 109.896 45.3275 109.833C45.4491 109.862 45.5707 109.888 45.6941 109.917C45.653 109.93 45.6154 109.94 45.5779 109.955Z" fill="#1E1B35"/>
<path d="M48.0007 111.913C47.7021 111.915 47.4017 111.92 47.103 111.888C47.0333 111.881 46.9636 111.87 46.8957 111.857C46.9207 111.836 46.944 111.813 46.969 111.791C47.053 111.716 47.1353 111.639 47.2175 111.564C47.2873 111.5 47.357 111.432 47.4285 111.369C47.4625 111.364 47.4928 111.35 47.5089 111.325C47.5697 111.237 47.3696 111.21 47.3231 111.215C47.239 111.224 47.1943 111.271 47.1371 111.323C47.0316 111.419 46.9278 111.516 46.8223 111.611C46.7561 111.672 46.6899 111.732 46.6238 111.793C46.4897 111.756 46.3592 111.711 46.2268 111.657C46.2215 111.655 46.2143 111.654 46.2089 111.652C46.2036 111.65 46.2 111.648 46.1946 111.646C46.1857 111.643 46.175 111.641 46.166 111.639C46.0909 111.62 46.0086 111.62 45.9389 111.65C45.921 111.657 45.9032 111.668 45.8889 111.682C45.8853 111.686 45.8835 111.689 45.88 111.693C45.8728 111.695 45.8656 111.697 45.8602 111.698C45.8423 111.707 45.8102 111.725 45.8156 111.748C45.8174 111.759 45.8227 111.768 45.8263 111.779C45.8173 111.791 45.8119 111.806 45.8084 111.822C45.8012 111.859 45.8209 111.897 45.8478 111.924C45.8621 111.938 45.8781 111.949 45.896 111.956C45.9675 112.083 46.0748 112.192 46.2125 112.263C46.2179 112.265 46.2233 112.267 46.2287 112.269C46.2358 112.272 46.2447 112.278 46.2537 112.279C46.3091 112.297 46.411 112.303 46.4593 112.26C46.5612 112.167 46.6632 112.074 46.7651 111.981C46.8384 111.995 46.9135 112.009 46.9904 112.018C47.3266 112.058 47.6646 112.058 48.0007 112.054C48.0454 112.054 48.151 112.047 48.1528 111.988C48.1492 111.931 48.0419 111.911 48.0007 111.913Z" fill="#1E1B35"/>
<path d="M49.4457 112.93C49.1739 112.912 48.9003 112.914 48.6267 112.932C48.7054 112.792 48.7823 112.653 48.8538 112.51C48.9021 112.413 48.6107 112.379 48.5677 112.465C48.4837 112.633 48.3925 112.8 48.2977 112.964C48.2459 112.971 48.1922 112.973 48.1386 112.982C48.008 113.002 47.8757 113.021 47.7594 113.082C47.7541 113.086 47.7523 113.087 47.7487 113.091C47.7255 113.098 47.704 113.109 47.695 113.127L47.6933 113.134C47.6861 113.138 47.6772 113.139 47.67 113.145C47.6539 113.159 47.6433 113.177 47.654 113.198C47.688 113.266 47.738 113.331 47.797 113.381C47.8524 113.429 47.9186 113.465 47.9883 113.495C48.0115 113.558 48.2333 113.579 48.2798 113.508C48.371 113.368 48.4568 113.225 48.5409 113.082C48.5838 113.079 48.6285 113.071 48.6714 113.07C48.9271 113.052 49.1847 113.053 49.4422 113.071C49.4869 113.073 49.5906 113.061 49.5924 113.005C49.596 112.946 49.485 112.934 49.4457 112.93Z" fill="#1E1B35"/>
<path d="M50.8244 113.56C50.7601 113.526 50.6796 113.531 50.6135 113.555C50.533 113.581 50.4525 113.612 50.3756 113.646V113.644C50.3596 113.569 50.3256 113.496 50.3345 113.417C50.3399 113.36 50.229 113.342 50.1879 113.342C50.1414 113.342 50.043 113.349 50.0376 113.408C50.0305 113.481 50.0592 113.549 50.0753 113.619C50.0878 113.671 50.095 113.723 50.0985 113.776C49.9555 113.851 49.8177 113.932 49.6872 114.023H49.6818H49.6747C49.6676 114.023 49.6586 114.023 49.6515 114.023C49.6211 114.027 49.5834 114.034 49.562 114.053L49.5459 114.07C49.5388 114.082 49.5387 114.095 49.5441 114.107C49.5459 114.111 49.5477 114.116 49.5477 114.116V114.12C49.5477 114.146 49.5584 114.175 49.5763 114.197C49.5852 114.207 49.5978 114.213 49.6067 114.222C49.6425 114.263 49.6854 114.298 49.7355 114.323C49.8589 114.39 50.0126 114.406 50.1485 114.374C50.1628 114.37 50.1772 114.365 50.1879 114.357C50.238 114.356 50.2952 114.347 50.3095 114.311C50.3685 114.166 50.4007 114.014 50.3989 113.86C50.3989 113.851 50.3971 113.842 50.3953 113.834C50.5312 113.766 50.6743 113.707 50.821 113.658C50.8818 113.64 50.8727 113.585 50.8244 113.56Z" fill="#1E1B35"/>
<path d="M54.1525 80.9025C53.6875 81.2476 53.2476 81.6446 52.8363 82.0791C51.5005 83.49 50.5475 85.212 49.6337 86.9251C45.8587 94.0028 42.4915 101.299 39.5516 108.763C38.7434 110.817 39.5641 110.74 41.3845 111.05C43.1209 111.345 44.8555 111.64 46.5901 111.935C47.0818 112.019 47.5986 112.101 48.0725 111.944C48.8629 111.681 49.1544 110.536 49.5424 109.902C50.1844 108.854 50.8264 107.806 51.4469 106.737C52.89 104.255 54.4279 101.826 56.0552 99.4603C58.716 95.5907 61.6504 91.8194 63.2956 87.4204C63.8642 85.8987 64.0467 84.4789 63.1812 83.0465C62.3157 81.6142 60.9602 80.4697 59.3794 79.9064C57.4678 79.2234 55.6742 79.7759 54.1525 80.9025Z" fill="#131515"/>
<path d="M64.5849 78.1342C64.5027 76.9808 64.3113 75.8078 63.8482 74.742C63.4512 73.8318 62.8326 72.961 61.9223 72.5103C61.706 72.403 61.4753 72.3226 61.2392 72.2689C61.1748 72.2546 61.0497 72.2385 61.0014 72.3011C60.9585 72.3583 60.996 72.4066 61.0639 72.4227C62.0671 72.6552 62.795 73.4187 63.2742 74.2985C63.816 75.2963 64.0574 76.4176 64.1844 77.537C64.483 80.1889 64.0485 82.8801 63.2045 85.3979C62.3533 87.9353 61.0765 90.3065 59.6709 92.5757C58.226 94.9075 56.6524 97.157 55.1432 99.4459C53.5606 101.847 52.0066 104.271 50.4848 106.711C50.2952 107.015 50.1058 107.319 49.918 107.623C49.8518 107.729 50.188 107.772 50.2524 107.67C51.7921 105.186 53.3639 102.72 54.9661 100.274C56.5022 97.9278 58.1062 95.6228 59.6101 93.2552C61.0711 90.9538 62.4212 88.5594 63.351 85.9898C64.2523 83.4845 64.7763 80.8022 64.5849 78.1342Z" fill="#060C0D"/>
<path d="M58.6607 62.9574C58.6178 62.9574 58.5748 62.9413 58.5427 62.9109C58.4729 62.8448 58.4693 62.7357 58.5355 62.6659C58.6696 62.5229 72.1242 48.2763 92.4223 33.6918C104.346 25.1245 116.263 18.1184 127.843 12.8682C142.324 6.30197 156.317 2.4788 169.434 1.50245C169.529 1.49529 169.613 1.56683 169.62 1.6616C169.627 1.75638 169.555 1.8404 169.461 1.84756C139.844 4.0524 111.334 20.5324 92.6333 33.9689C72.3602 48.5338 58.9253 62.7607 58.7912 62.902C58.7519 62.9377 58.7072 62.9574 58.6607 62.9574Z" fill="#4295A3"/>
<path d="M124.989 16.9234C124.911 16.9234 124.823 16.918 124.726 16.9055C124.317 16.8501 123.841 16.673 123.382 16.4084C122.924 16.1437 122.532 15.8183 122.28 15.4928C121.865 14.9582 121.964 14.6041 122.057 14.4414C122.151 14.2769 122.411 14.0176 123.079 14.1088C123.489 14.1642 123.965 14.3412 124.424 14.6059C124.882 14.8705 125.274 15.196 125.526 15.5215C125.941 16.0561 125.842 16.4102 125.749 16.5729C125.669 16.7124 125.467 16.9234 124.989 16.9234ZM122.817 14.6667C122.652 14.6667 122.572 14.7042 122.557 14.7293C122.538 14.7615 122.557 14.9063 122.736 15.1388C122.942 15.4034 123.282 15.6842 123.67 15.9077C124.058 16.133 124.471 16.2868 124.803 16.3315C125.095 16.3708 125.229 16.3154 125.247 16.2814C125.267 16.2474 125.247 16.1044 125.068 15.8719C124.862 15.6073 124.523 15.3265 124.135 15.103C123.747 14.8777 123.333 14.7239 123.003 14.6792C122.931 14.6703 122.87 14.6667 122.817 14.6667Z" fill="#B2754B"/>
<path d="M147.035 7.92354C146.584 7.92354 146.017 7.72862 145.511 7.43714C145.078 7.18679 144.708 6.87921 144.468 6.57164C144.073 6.06021 144.166 5.72047 144.257 5.5631C144.585 4.99625 145.638 5.20727 146.509 5.71154C146.942 5.96189 147.312 6.26944 147.551 6.57701C147.947 7.08844 147.853 7.42819 147.762 7.58555C147.625 7.82159 147.36 7.92354 147.035 7.92354ZM144.975 5.79735C144.851 5.79735 144.776 5.8206 144.758 5.851C144.749 5.8653 144.746 5.9869 144.926 6.21758C145.118 6.46435 145.436 6.72723 145.801 6.93645C146.621 7.41032 147.208 7.38884 147.262 7.29586C147.271 7.28155 147.274 7.15998 147.094 6.9293C146.902 6.68253 146.584 6.41965 146.219 6.21043C145.668 5.89213 145.223 5.79735 144.975 5.79735Z" fill="#B2754B"/>
<path d="M169.888 2.36777C169.516 2.36777 169.058 2.20503 168.663 1.97614C168.318 1.77765 168.021 1.53088 167.83 1.28232C167.497 0.853154 167.581 0.559912 167.66 0.422221C167.738 0.28453 167.953 0.0663612 168.489 0.139677C168.801 0.182594 169.162 0.314933 169.507 0.515211C170.194 0.910402 170.8 1.56666 170.51 2.06736C170.387 2.28015 170.16 2.36777 169.888 2.36777ZM168.167 0.715488C168.189 0.831721 168.42 1.16788 168.951 1.47545C169.484 1.78302 169.89 1.81343 170 1.77409C169.979 1.65786 169.748 1.32167 169.217 1.0141C168.684 0.708321 168.278 0.677936 168.167 0.715488Z" fill="#B2754B"/>
<path d="M104.993 28.7079C104.451 28.7079 103.759 28.4701 103.141 28.1125C102.093 27.5081 101.233 26.5478 101.615 25.8862C101.719 25.7055 102.005 25.4194 102.758 25.5214C103.228 25.5857 103.777 25.7896 104.307 26.0936C105.355 26.698 106.215 27.6583 105.832 28.3199C105.675 28.5935 105.371 28.7079 104.993 28.7079ZM102.458 26.0775C102.263 26.0775 102.145 26.1222 102.114 26.1741C102.011 26.3547 102.431 27.036 103.429 27.6118C104.426 28.1876 105.228 28.2108 105.331 28.0302C105.435 27.8514 105.015 27.1683 104.017 26.5925C103.559 26.3278 103.071 26.1454 102.679 26.0918C102.597 26.0829 102.524 26.0775 102.458 26.0775Z" fill="#B2754B"/>
<path d="M85.246 43.5188C84.6863 43.5188 83.9728 43.272 83.3344 42.9037C82.789 42.5889 82.324 42.2027 82.0236 41.8146C81.5461 41.1977 81.6534 40.7972 81.7589 40.613C81.8662 40.4288 82.1595 40.1355 82.932 40.241C83.4166 40.3072 83.9853 40.5164 84.5289 40.8329C85.0743 41.1476 85.5392 41.5339 85.8397 41.922C86.3171 42.5389 86.2098 42.9394 86.1043 43.1236C85.9451 43.4008 85.634 43.5188 85.246 43.5188ZM82.6262 40.7972C82.4188 40.7972 82.2936 40.8454 82.2614 40.9027C82.2167 40.9796 82.2685 41.1852 82.4813 41.4624C82.7335 41.7878 83.1484 42.1312 83.624 42.4047C84.6612 43.0038 85.4963 43.0235 85.6054 42.8339C85.6501 42.7588 85.5983 42.5514 85.3855 42.2742C85.1333 41.9488 84.7166 41.6072 84.2428 41.3318C83.7671 41.0582 83.2628 40.8687 82.8551 40.8133C82.7711 40.8007 82.6942 40.7972 82.6262 40.7972Z" fill="#B2754B"/>
<path d="M168.991 0.00259485C153.592 1.64237 137.572 6.54026 121.374 14.5567C108.398 20.9782 95.2962 29.397 82.4299 39.579C70.8673 48.7292 61.7456 57.5468 56.1306 63.3334C52.8134 66.7506 50.4029 69.4293 48.9652 71.0745C48.2267 71.9185 47.7027 72.5408 47.3433 72.9736C47.6097 73.1363 47.8458 73.333 48.0532 73.5547C51.3846 69.5277 64.5388 54.8234 83.6334 39.8061C103.617 24.0914 134.662 4.58933 169.087 0.921742C169.341 0.894919 169.525 0.667797 169.498 0.413873C169.472 0.159949 169.244 -0.0242281 168.991 0.00259485Z" fill="#B2754B"/>
<path d="M58.5102 69.4183L58.2975 69.218C57.761 68.712 57.7377 67.8697 58.242 67.3333L59.6905 65.7972C60.1965 65.2607 61.0388 65.2375 61.5753 65.7436L61.7881 65.9438C62.3227 66.4499 62.3478 67.2939 61.8435 67.8286L60.3969 69.3628C59.8908 69.8993 59.0467 69.9244 58.5102 69.4183Z" fill="#3F3768"/>
<path d="M61.9436 66.4936L61.205 65.7962C60.8152 65.4278 60.7973 64.8127 61.1657 64.4229L61.3123 64.2673C61.6807 63.8775 62.2959 63.8596 62.6857 64.2279L63.4242 64.9236C63.814 65.2919 63.8319 65.9071 63.4653 66.2969L63.3187 66.4525C62.9503 66.8441 62.3352 66.862 61.9436 66.4936Z" fill="#3F3768"/>
<path d="M58.3779 68.6942C57.0868 66.94 56.4341 64.7315 56.5485 62.5571C56.5646 62.2513 56.8328 62.0206 57.1368 62.0564C57.4176 62.0886 57.6179 62.3336 57.6035 62.6161C57.5016 64.5474 58.0828 66.5108 59.229 68.0683L58.3779 68.6942Z" fill="#3F3768"/>
<path d="M60.9888 72.4024C60.8672 72.4024 60.7438 72.3613 60.6455 72.2754C60.0893 71.798 59.7603 71.0344 59.696 70.0688C59.6727 69.7362 59.6799 69.4072 59.687 69.0907C59.6942 68.7241 59.7013 68.379 59.6655 68.041C59.6351 67.7513 59.8461 67.492 60.1358 67.4616C60.4273 67.433 60.6866 67.6422 60.7152 67.9319C60.7563 68.3342 60.7492 68.7294 60.7421 69.1103C60.7367 69.4197 60.7295 69.7094 60.7492 69.9973C60.7814 70.4693 60.9065 71.1077 61.3321 71.4725C61.5539 71.6621 61.5789 71.9965 61.3894 72.2182C61.2857 72.3398 61.1373 72.4024 60.9888 72.4024Z" fill="#1E1B35"/>
<path d="M46.0088 74.2756L45.7763 74.0556C45.1898 73.5031 45.163 72.5804 45.7155 71.9956L56.1105 60.9732C56.663 60.3884 57.5857 60.3598 58.1705 60.9124L58.4029 61.1323C58.9895 61.6849 59.0163 62.6076 58.4637 63.1923L48.0688 74.2148C47.5181 74.8013 46.5953 74.8281 46.0088 74.2756Z" fill="#3F3768"/>
<path d="M26.4227 72.3513C24.1159 75.2554 20.7076 77.1884 17.0256 77.6426C16.8396 77.6658 16.5481 77.7714 16.6214 78.0056C16.693 78.2327 17.1633 78.2327 17.3314 78.2112C21.337 77.7159 25.0243 75.6684 27.5367 72.5087C27.7746 72.2083 26.673 72.0366 26.4227 72.3513Z" fill="#B2754B"/>
<path d="M33.3267 79.8975C33.1819 80.0231 33.0335 80.1424 32.8814 80.2555C31.7736 81.0844 30.5318 81.6705 29.2393 81.9761C26.3032 82.6669 23.487 84.4327 20.8821 86.1533C20.9169 86.1302 20.8472 86.1764 20.8821 86.1533L13.873 87.4834L5.86405 87.8239C5.85014 85.8712 5.93501 83.9173 6.0398 81.9677C6.5539 72.3952 7.5658 62.8603 9.06827 53.428C9.52263 50.5728 9.96979 47.6128 10.8767 44.8979C12.0135 41.4963 13.2625 38.3145 15.3533 35.5283C16.0991 34.534 16.9282 33.5858 17.4042 32.3905C17.5853 31.9363 17.7138 31.4506 17.9545 31.0362C18.6623 29.82 20.335 30.3852 21.3541 30.6824C24.9998 31.7458 28.6329 33.7595 29.9254 38.2182C30.2566 39.3612 30.3508 40.5731 30.5191 41.7621C31.6052 49.3859 32.7855 57.0033 33.4679 64.694C33.8082 68.5352 34.0255 72.3931 34.0454 76.2552C34.049 77.0946 34.4056 78.338 34.0164 79.1083C33.8517 79.4328 33.591 79.6756 33.3267 79.8975Z" fill="#8E93BC"/>
<path d="M53.2478 63.1643C54.2095 63.2693 55.1599 63.4488 56.0703 63.7611C56.499 63.9086 56.9264 64.0922 57.2456 64.4044C57.5933 64.744 57.8865 65.267 57.2791 65.5217C57.0785 65.6065 56.8533 65.6157 56.6344 65.6108C56.3365 65.6041 56.0407 65.5732 55.7488 65.5198C55.8413 65.5379 56.098 66.0787 56.1168 66.1769C56.1548 66.3802 56.0273 66.6558 55.892 66.8101C55.6343 67.0974 55.126 67.1349 54.8307 66.8863C54.9977 67.2305 54.9362 67.6716 54.6636 67.9478C54.3909 68.2241 53.9138 68.3025 53.5737 68.1099C53.7778 68.3609 53.6967 68.7757 53.4116 68.9413C52.9676 69.1993 52.3601 68.9449 51.9353 68.7748C51.4427 68.5799 50.9866 68.3124 50.549 68.0249C50.0198 67.678 49.5169 67.2935 48.9746 66.9664C48.5852 66.7323 48.0109 66.7466 47.5604 66.7633C47.2244 66.7762 46.8066 66.7994 46.6436 66.5183C46.571 66.3927 46.5775 66.2414 46.5881 66.0984C46.641 65.4385 46.7677 64.7841 46.9655 64.1475C47.0415 63.9061 47.1398 63.6496 47.3544 63.5022C47.5004 63.402 47.6825 63.3647 47.8577 63.3295C48.6822 63.1656 49.5139 63.0011 50.355 63.0127C51.3128 63.0271 52.2859 63.0576 53.2478 63.1643Z" fill="#F7967C"/>
<path d="M30.8105 64.3804C29.7306 65.3458 28.7488 66.4729 27.4414 67.1579C26.8536 67.4663 26.5442 68.1785 25.7888 68.1067C25.6952 68.0989 25.6044 68.0807 25.515 68.0556C24.2556 67.6935 23.3056 66.2541 22.5247 65.3318C21.548 64.1769 20.6363 62.9733 19.7695 61.7428C19.2632 61.0242 18.7299 60.304 18.284 59.5489C17.9446 58.9757 17.5697 58.2659 16.782 58.1927C16.5819 58.1745 16.38 58.2114 16.1775 58.2106C15.1273 58.2072 14.4017 57.2249 13.9689 56.3113C12.4846 53.1796 12.2647 49.6434 12.5806 46.2495C12.7722 44.1956 13.6169 42.0418 15.3555 40.7276C17.2154 39.3216 19.5088 39.376 21.2812 40.926C22.6172 42.0957 23.3619 43.7436 24.0797 45.335C26.1456 49.9177 28.3076 54.4599 30.5635 58.9584C31.2224 60.2724 32.2133 61.819 31.7399 63.332C31.6093 63.7569 31.1342 64.0906 30.8105 64.3804Z" fill="#8E93BC"/>
<path d="M49.5529 62.6676C49.5933 63.1612 49.4687 63.6522 49.3413 64.1283C49.0618 65.1688 48.7657 66.2028 48.4496 67.2306C48.2061 68.0216 48.1396 68.9466 47.3042 69.2772C46.9162 69.4302 46.4906 69.4441 46.0739 69.4575C46.0131 69.4595 45.9541 69.4614 45.8951 69.4632C40.1197 69.6275 34.3206 69.7857 28.5837 69.0361C27.3118 68.8719 25.6648 68.5013 24.8147 67.3932C23.9177 66.2239 24.0352 64.5522 24.6702 63.2984C25.2891 62.0722 26.4036 61.1709 27.6438 60.6975C28.9663 60.1925 30.637 60.12 32.0153 60.4624C33.472 60.8262 34.9368 60.98 36.441 61.1351C38.1493 61.313 39.8557 61.4911 41.5638 61.6672C42.4676 61.7624 43.373 61.8557 44.2814 61.911C45.3915 61.9818 46.4894 62.0024 47.5874 62.0796C47.8087 62.0938 48.032 62.1116 48.2556 62.1332C48.5349 62.1588 48.8128 62.1902 49.0931 62.2289C49.2305 62.2485 49.3791 62.2748 49.4669 62.3881C49.5274 62.4654 49.5448 62.5681 49.5529 62.6676Z" fill="#8E93BC"/>
<path d="M17.2303 57.8599C16.2943 56.0493 15.4209 54.2089 14.6139 52.3421C14.5699 52.242 14.2304 52.286 14.2829 52.4077C15.0901 54.2763 15.9618 56.1168 16.8995 57.9256C16.9524 58.0251 17.2915 57.976 17.2303 57.8599Z" fill="#1E1B35"/>
<path d="M49.4767 62.9756C49.5143 63.424 49.3868 63.871 49.2568 64.3045C48.9713 65.2518 48.6694 66.1933 48.3473 67.1293C48.0994 67.8496 48.0275 68.6908 47.1905 68.9961C46.8017 69.1375 46.3762 69.1526 45.9597 69.1671C45.8989 69.1693 45.8399 69.1713 45.7809 69.1734C46.0142 67.746 46.3562 66.3356 46.7402 64.938C46.9275 64.2506 47.0999 63.5522 47.3309 62.8757C47.3807 62.7286 47.4414 62.5859 47.5171 62.4525C47.7383 62.4641 47.9614 62.479 48.1848 62.4973C48.4639 62.519 48.7415 62.5459 49.0214 62.5794C49.1587 62.5964 49.3071 62.6195 49.3942 62.722C49.4525 62.792 49.4692 62.8852 49.4767 62.9756Z" fill="#F9C06E"/>
<path d="M34.3262 69.4553C34.2457 69.325 34.0307 69.3135 33.89 69.3187C33.6465 69.326 33.4022 69.3386 33.1601 69.3497C32.2021 69.3903 31.2427 69.4272 30.2813 69.3869C28.5716 69.3177 26.7992 68.9761 25.3744 68.0265C23.9244 67.0607 23.1902 65.5398 22.4607 64.1037C21.6644 62.5376 20.9203 60.9526 20.2265 59.3486C19.4474 57.5421 18.7325 55.715 18.0858 53.8681C18.0477 53.7568 17.6748 53.7335 17.7188 53.8582C18.8193 56.999 20.1134 60.0854 21.5955 63.1024C21.9574 63.8388 22.3235 64.5741 22.7192 65.296C23.0819 65.9628 23.4872 66.6219 24.0162 67.1945C25.0572 68.321 26.5508 68.9773 28.0892 69.3026C29.0531 69.5059 30.0415 69.5753 31.0237 69.583C31.5314 69.5877 32.0398 69.5745 32.5471 69.5559C32.8066 69.5474 33.0665 69.5355 33.3243 69.525C33.4452 69.5203 33.5683 69.5142 33.6893 69.5095C33.7508 69.5064 33.8102 69.5048 33.8718 69.5018L33.8778 69.5009C33.9134 69.6672 34.4504 69.6602 34.3262 69.4553Z" fill="#1E1B35"/>
<path d="M32.8472 60.6942C32.4925 60.6321 32.1339 60.6017 31.7767 60.597C31.011 57.1593 30.5474 53.6787 30.3206 50.1725C30.2109 48.482 30.1274 46.7904 29.9389 45.1049C29.7512 43.4395 29.4743 41.753 28.9277 40.1605C28.6424 39.3288 28.213 38.5755 27.5488 37.979C26.9103 37.4068 26.1144 37.0079 25.2705 36.8354C25.2194 36.8251 25.0975 36.8089 25.0809 36.8794C25.0646 36.9482 25.183 36.9943 25.2306 37.0038C25.9815 37.1561 26.6742 37.507 27.2458 38.0108C27.8417 38.5367 28.2496 39.2013 28.521 39.9354C28.8074 40.7075 29.0043 41.5146 29.1706 42.3182C29.3392 43.1278 29.4656 43.9437 29.5634 44.7637C29.7626 46.4118 29.8525 48.0686 29.9556 49.7249C30.0632 51.4476 30.2069 53.1661 30.4315 54.8784C30.6844 56.7988 31.023 58.7087 31.4453 60.6003C30.3454 60.6431 29.2661 60.9576 28.3306 61.5385C28.1961 61.6229 28.5089 61.7531 28.6024 61.6936C29.837 60.9257 31.3562 60.61 32.8055 60.8623C32.8571 60.8709 32.9785 60.8887 32.9952 60.8182C33.011 60.7512 32.8952 60.702 32.8472 60.6942Z" fill="#1E1B35"/>
<path d="M22.561 43.2334C24.0399 49.1128 23.3533 55.2905 22.786 61.3267C21.8251 71.5813 21.239 81.87 21.0311 92.1672C21.0073 93.3973 20.8216 94.8915 19.6937 95.3855C19.2763 95.5678 18.8061 95.5661 18.3495 95.561C12.5552 95.4963 6.76087 95.3191 0.973381 95.0278C0.697381 95.0141 0.3924 94.9886 0.199881 94.7892C-0.00115635 94.5831 -0.0113499 94.2594 0.00568718 93.9715C0.0925762 92.4381 0.549146 90.9542 0.971665 89.4771C4.77775 76.1797 6.07601 62.3047 8.98935 48.784C9.44935 46.576 9.98769 44.3561 10.8498 42.2673C11.5687 40.5245 12.6745 39.1888 13.3355 37.3794C14.3219 34.6773 15.4396 31.8032 17.8077 30.1693C18.6 29.6224 19.6869 29.1352 20.6597 29.3754C19.6102 34.2906 21.3565 38.4442 22.561 43.2334Z" fill="#3F3768"/>
</svg>
