<svg width="168" height="120" viewBox="0 0 168 120" fill="none" xmlns="http://www.w3.org/2000/svg">
<path d="M64.6121 85.4511C64.9415 83.3355 64.9214 81.1979 64.5132 79.031C64.0209 76.4249 62.6557 73.9597 59.8738 73.3741C59.1839 73.2295 58.4774 73.2478 57.7783 73.2734C52.6429 73.4491 47.5203 73.623 42.4215 74.0897C40.2308 74.291 38.042 74.4996 35.8531 74.7064C31.5449 75.1164 27.2367 75.5245 22.9231 75.8686C19.3982 76.1486 15.7196 76.7598 12.5717 78.5607C11.5011 79.1737 9.81731 80.0797 9.07976 81.1649C8.04389 82.6894 8.13541 85.6103 8.26901 87.4148C8.34039 88.3683 8.49411 89.3365 8.89858 90.193C9.67639 91.8419 11.2942 92.8668 12.945 93.2676C14.5958 93.6684 16.3016 93.5329 17.9798 93.4085C30.6682 92.4623 43.4116 92.2262 56.144 92.6966C57.0407 92.7295 57.9265 92.6581 58.8141 92.5355C60.0623 92.3635 61.208 92.4825 62.2347 91.5839C63.1425 90.7878 63.5597 89.5854 63.9166 88.4324C64.2241 87.4441 64.4565 86.4503 64.6121 85.4511Z" fill="#5BB6BA"/>
<path d="M52.9486 119.656C52.0994 119.98 51.2428 120.02 50.3405 119.995L47.189 119.91C46.3362 119.658 45.476 119.292 44.5719 119.299C43.9625 119.303 43.4482 119.594 42.912 119.797L39.8557 119.715C39.4585 119.603 39.076 119.455 38.7319 119.257C38.6111 119.189 38.4921 119.109 38.4299 118.992C38.375 118.887 38.3713 118.77 38.3731 118.657C38.3786 118.316 38.4336 117.983 38.5141 117.654C38.7228 116.81 39.0943 115.994 39.1986 115.126C39.2133 115.009 39.2261 114.892 39.2334 114.775C39.2901 114.028 39.2609 113.258 39.3506 112.508C39.3652 112.401 39.3834 112.288 39.4621 112.213C39.5152 112.163 39.5884 112.136 39.6597 112.112C41.069 111.624 42.4673 111.36 43.9314 111.338C44.3578 111.331 44.786 111.344 45.2253 111.378C45.3003 111.01 45.4083 110.652 45.5455 110.3C45.5858 110.203 45.6298 110.099 45.7231 110.042C45.8037 109.993 45.908 109.986 46.005 109.997C46.7187 110.083 46.8761 110.751 46.9548 111.285C47.0664 112.035 47.2568 112.769 47.535 113.479C47.8699 114.339 48.8563 114.927 49.6177 115.458C50.4595 116.041 51.3819 116.545 52.4123 116.766C52.7563 116.839 53.1151 116.885 53.4244 117.046C53.7539 117.218 53.9606 117.436 54.0704 117.672C54.4181 118.406 53.8087 119.328 52.9486 119.656Z" fill="#4295A3"/>
<path d="M52.9486 119.654C52.0994 119.978 51.2428 120.019 50.3405 119.993L47.189 119.909C46.3362 119.656 45.476 119.29 44.5719 119.298C43.9625 119.301 43.4482 119.592 42.912 119.795L39.8557 119.713C39.4585 119.601 39.076 119.453 38.7319 119.256C38.6111 119.188 38.4921 119.107 38.4299 118.99C38.375 118.886 38.3713 118.769 38.3731 118.655C38.3786 118.315 38.4336 117.982 38.5141 117.652C38.6624 117.738 38.8179 117.841 38.9753 117.921C40.1887 118.549 41.6382 118.774 42.998 118.514C43.4098 118.436 43.8143 118.315 44.2316 118.28C44.9069 118.225 45.5749 118.394 46.2429 118.522C47.5734 118.776 48.9386 118.86 50.2929 118.776C51.0488 118.728 51.8139 118.624 52.5002 118.329C53.0254 118.106 53.5104 117.771 54.0741 117.671C54.4182 118.405 53.8087 119.327 52.9486 119.654Z" fill="#1E1B35"/>
<path d="M47.3944 112.62C47.1693 112.569 46.946 112.518 46.7209 112.467C46.9259 112.375 47.1199 112.267 47.3138 112.157C47.3651 112.128 47.3725 112.086 47.3157 112.055C47.2608 112.026 47.1564 112.018 47.0997 112.049C46.8764 112.174 46.6532 112.298 46.4153 112.397L45.5368 112.198C45.5258 112.196 45.513 112.194 45.4983 112.194C45.4672 112.19 45.4362 112.19 45.4087 112.196C45.3685 112.203 45.3227 112.218 45.3136 112.26C45.2623 112.467 45.3831 112.681 45.5734 112.789C45.6027 112.805 45.6466 112.813 45.6814 112.813C45.7162 112.813 45.7582 112.809 45.7893 112.794L45.7912 112.792C45.8919 112.781 45.9888 112.747 46.084 112.703C46.2084 112.646 46.3403 112.609 46.4684 112.566C46.7484 112.63 47.0284 112.694 47.3084 112.756C47.3596 112.769 47.4695 112.763 47.4969 112.71C47.528 112.655 47.4347 112.63 47.3944 112.62ZM46.0309 112.533C45.9724 112.553 45.9156 112.576 45.8589 112.602C45.8479 112.608 45.8369 112.613 45.826 112.617C45.8296 112.545 45.8095 112.472 45.7729 112.408C45.8973 112.437 46.0218 112.465 46.1481 112.494C46.1078 112.507 46.0694 112.518 46.0309 112.533Z" fill="#1E1B35"/>
<path d="M48.5102 114.539C48.2046 114.54 47.8972 114.546 47.5915 114.513C47.5202 114.506 47.4487 114.495 47.3792 114.482C47.4048 114.46 47.4286 114.436 47.4543 114.414C47.5403 114.337 47.6244 114.259 47.7086 114.182C47.78 114.116 47.8514 114.046 47.9246 113.982C47.9594 113.977 47.9905 113.962 48.007 113.937C48.0692 113.847 47.8643 113.819 47.8148 113.825C47.7288 113.834 47.6831 113.882 47.6245 113.935C47.5165 114.034 47.4103 114.132 47.3023 114.229C47.2346 114.292 47.1669 114.354 47.0992 114.416C46.9619 114.378 46.8283 114.332 46.6929 114.277C46.6874 114.275 46.6801 114.273 46.6746 114.271C46.6691 114.27 46.6654 114.268 46.6599 114.266C46.6508 114.262 46.6399 114.26 46.6289 114.259C46.552 114.238 46.4678 114.239 46.3964 114.27C46.3781 114.277 46.3598 114.288 46.3452 114.303C46.3415 114.306 46.3397 114.31 46.336 114.314C46.3287 114.315 46.3214 114.317 46.3159 114.319C46.2976 114.328 46.2646 114.346 46.2701 114.37C46.2719 114.381 46.2774 114.39 46.2792 114.401C46.2701 114.414 46.2647 114.429 46.261 114.445C46.2537 114.484 46.2738 114.522 46.3013 114.55C46.3159 114.564 46.3323 114.575 46.3506 114.583C46.4238 114.713 46.5336 114.824 46.6746 114.897C46.6801 114.899 46.6856 114.901 46.6911 114.903C46.6984 114.907 46.7075 114.912 46.7167 114.914C46.7734 114.932 46.8777 114.938 46.9271 114.894C47.0314 114.799 47.1358 114.703 47.2401 114.608C47.3152 114.623 47.392 114.637 47.4707 114.647C47.8147 114.687 48.1588 114.687 48.5047 114.683C48.5505 114.683 48.6585 114.676 48.6603 114.616C48.6622 114.557 48.5523 114.537 48.5102 114.539Z" fill="#1E1B35"/>
<path d="M49.9893 115.579C49.7111 115.561 49.4311 115.562 49.1511 115.581C49.2316 115.438 49.3103 115.295 49.3835 115.149C49.4329 115.05 49.1346 115.015 49.0906 115.103C49.0046 115.275 48.9113 115.445 48.8162 115.614C48.7613 115.621 48.7081 115.623 48.6532 115.632C48.5196 115.652 48.3842 115.672 48.2653 115.734C48.2598 115.738 48.258 115.74 48.2543 115.744C48.2305 115.751 48.2085 115.762 48.1994 115.78L48.1976 115.788C48.1902 115.791 48.1811 115.793 48.1738 115.799C48.1573 115.813 48.1463 115.831 48.1572 115.853C48.192 115.923 48.2433 115.989 48.3037 116.04C48.3604 116.089 48.4281 116.126 48.4995 116.157C48.5215 116.221 48.7503 116.243 48.7979 116.17C48.8912 116.027 48.979 115.881 49.0651 115.734C49.109 115.731 49.1547 115.723 49.1987 115.722C49.4604 115.703 49.7239 115.705 49.9874 115.723C50.0331 115.725 50.1394 115.712 50.1412 115.656C50.143 115.595 50.0314 115.583 49.9893 115.579Z" fill="#1E1B35"/>
<path d="M51.4022 116.223C51.3363 116.188 51.254 116.194 51.1862 116.218C51.1039 116.245 51.0215 116.276 50.9428 116.311V116.309C50.9264 116.232 50.8916 116.157 50.9007 116.077C50.9062 116.018 50.7927 116 50.7506 116C50.703 116 50.6024 116.007 50.5969 116.068C50.5896 116.143 50.6189 116.212 50.6353 116.284C50.6481 116.337 50.6536 116.39 50.6591 116.445C50.5127 116.522 50.3718 116.604 50.2382 116.697H50.2327H50.2254C50.2181 116.697 50.2089 116.697 50.2016 116.697C50.1705 116.701 50.1321 116.708 50.1101 116.728L50.0937 116.745C50.0864 116.758 50.0863 116.77 50.0918 116.783C50.0936 116.787 50.0955 116.792 50.0955 116.792V116.796C50.0955 116.824 50.1064 116.853 50.1247 116.875C50.1339 116.886 50.1467 116.891 50.1559 116.9C50.1925 116.942 50.2363 116.979 50.2876 117.005C50.4139 117.072 50.5713 117.089 50.7104 117.056C50.725 117.052 50.7397 117.047 50.7525 117.04C50.8037 117.038 50.8623 117.029 50.8769 116.992C50.9373 116.844 50.9703 116.688 50.9684 116.531C50.9684 116.522 50.9666 116.512 50.9647 116.503C51.1057 116.434 51.2503 116.373 51.4004 116.324C51.4589 116.306 51.4498 116.249 51.4022 116.223Z" fill="#1E1B35"/>
<path d="M54.806 82.8C54.3302 83.1532 53.88 83.5595 53.4591 84.0042C52.092 85.4482 51.1165 87.2106 50.1813 88.9639C46.3178 96.2075 42.8698 103.674 39.8629 111.313C39.0356 113.416 39.8757 113.338 41.7388 113.654C43.5141 113.956 45.2911 114.258 47.0663 114.56C47.5055 114.635 47.9137 114.657 48.3566 114.637C48.6055 114.626 48.6037 114.809 48.8453 114.706C48.9826 114.648 49.1838 114.267 49.2808 114.143C49.8811 113.363 50.474 112.578 51.0505 111.78C52.2328 110.146 53.3621 108.473 54.4639 106.782C56.6674 103.4 58.7555 99.9447 60.9279 96.5424C62.0334 94.813 63.146 93.0652 63.8323 91.1308C64.4747 89.3226 64.8683 86.9251 64.0776 85.0895C63.4188 83.5595 61.6783 82.3224 60.1556 81.7806C58.1992 81.0815 56.3635 81.647 54.806 82.8Z" fill="#5BB6BA"/>
<path d="M58.351 85.2656C58.4279 84.8923 58.4956 84.5153 58.5615 84.1419C58.9879 81.7335 59.3156 79.1878 58.4591 76.8983C57.7746 75.07 55.9243 73.723 54.0374 73.3277C53.3474 73.1831 52.6409 73.2014 51.9418 73.2252C46.8064 73.4009 41.6838 73.5748 36.585 74.0414C34.3943 74.2428 32.2055 74.4514 30.0166 74.66C25.7085 75.07 21.4003 75.4781 17.0866 75.8222C13.5617 76.104 9.88317 76.7134 6.73531 78.5161C5.91174 78.9883 5.02407 79.4348 4.29933 80.0534C3.5087 80.7269 3.43552 81.3766 3.29277 82.4289C2.99445 84.6379 3.15916 86.9091 3.78873 89.0485C4.22431 90.5254 5.04421 92.3446 6.48637 93.1004C8.01272 93.9002 10.4725 93.4884 12.1452 93.3639C24.8337 92.4178 37.577 92.1799 50.3094 92.652C53.3676 92.7655 56.0139 91.3508 57.3499 88.5123C57.8331 87.4838 58.1259 86.382 58.351 85.2656Z" fill="#5BB6BA"/>
<path d="M46.5649 119.656C45.7157 119.98 44.8592 120.02 43.957 119.995L40.8055 119.91C39.9526 119.658 39.0925 119.292 38.1884 119.299C37.5789 119.303 37.0646 119.594 36.5283 119.797L33.472 119.715C33.0749 119.603 32.6906 119.455 32.3483 119.257C32.2275 119.189 32.1086 119.109 32.0463 118.992C31.9914 118.887 31.9878 118.77 31.9896 118.657C31.9951 118.316 32.05 117.983 32.1305 117.654C32.3392 116.81 32.7107 115.994 32.815 115.126C32.8297 115.009 32.8406 114.892 32.8516 114.775C32.9084 114.028 32.8772 113.258 32.9687 112.508C32.9834 112.401 33.0017 112.288 33.0804 112.213C33.1335 112.163 33.2067 112.136 33.278 112.112C34.6873 111.624 36.0855 111.36 37.5496 111.338C37.9761 111.331 38.4043 111.344 38.8435 111.378C38.9185 111.01 39.0265 110.652 39.1638 110.3C39.204 110.203 39.248 110.099 39.3414 110.042C39.4219 109.993 39.5262 109.986 39.6232 109.997C40.337 110.083 40.4943 110.751 40.5748 111.285C40.6864 112.035 40.8768 112.769 41.155 113.479C41.4899 114.339 42.4764 114.927 43.2377 115.458C44.0796 116.041 45.002 116.545 46.0324 116.766C46.3765 116.839 46.7352 116.885 47.0445 117.046C47.3739 117.218 47.5806 117.436 47.6904 117.672C48.0327 118.406 47.4251 119.328 46.5649 119.656Z" fill="#4295A3"/>
<path d="M46.5649 119.654C45.7157 119.978 44.8592 120.019 43.957 119.993L40.8055 119.909C39.9526 119.656 39.0925 119.29 38.1884 119.298C37.5789 119.301 37.0646 119.592 36.5283 119.795L33.472 119.713C33.0749 119.601 32.6906 119.453 32.3483 119.256C32.2275 119.188 32.1086 119.107 32.0463 118.99C31.9914 118.886 31.9878 118.769 31.9896 118.655C31.9951 118.315 32.05 117.982 32.1305 117.652C32.2788 117.738 32.4343 117.841 32.5917 117.921C33.8051 118.549 35.2564 118.774 36.6144 118.514C37.0261 118.436 37.4288 118.315 37.8479 118.28C38.5232 118.225 39.1912 118.394 39.8592 118.522C41.1898 118.776 42.5551 118.86 43.9094 118.776C44.6652 118.728 45.4302 118.624 46.1165 118.329C46.6418 118.106 47.1268 117.771 47.6904 117.671C48.0327 118.405 47.4251 119.327 46.5649 119.654Z" fill="#1E1B35"/>
<path d="M41.0084 112.62C40.7851 112.569 40.56 112.518 40.3349 112.467C40.5399 112.375 40.734 112.267 40.928 112.157C40.9792 112.128 40.9865 112.086 40.9298 112.055C40.8749 112.026 40.7706 112.018 40.7138 112.049C40.4906 112.174 40.2672 112.298 40.0293 112.397L39.1509 112.198C39.1399 112.196 39.1271 112.194 39.1125 112.194C39.0813 112.19 39.0502 112.19 39.0228 112.196C38.9825 112.203 38.9367 112.218 38.9276 112.26C38.8763 112.467 38.9971 112.681 39.1874 112.789C39.2167 112.805 39.2607 112.813 39.2954 112.813C39.3284 112.813 39.3723 112.809 39.4034 112.794L39.4052 112.792C39.5059 112.781 39.603 112.747 39.6981 112.703C39.8226 112.646 39.9543 112.609 40.0843 112.566C40.3643 112.63 40.6443 112.694 40.9243 112.756C40.9755 112.769 41.0853 112.763 41.1127 112.71C41.1438 112.655 41.0487 112.63 41.0084 112.62ZM39.6468 112.533C39.5883 112.553 39.5316 112.576 39.4748 112.602C39.4638 112.608 39.4529 112.613 39.4419 112.617C39.4455 112.545 39.4254 112.472 39.3906 112.408C39.515 112.437 39.6395 112.465 39.7658 112.494C39.7237 112.507 39.6853 112.518 39.6468 112.533Z" fill="#1E1B35"/>
<path d="M42.1267 114.539C41.821 114.54 41.5135 114.546 41.2079 114.513C41.1365 114.506 41.0652 114.495 40.9957 114.482C41.0213 114.46 41.0451 114.436 41.0707 114.414C41.1567 114.337 41.2409 114.259 41.3251 114.182C41.3964 114.116 41.4678 114.046 41.541 113.982C41.5758 113.977 41.6068 113.962 41.6233 113.937C41.6855 113.847 41.4807 113.819 41.4331 113.825C41.3471 113.834 41.3013 113.882 41.2427 113.935C41.1348 114.034 41.0286 114.132 40.9206 114.229C40.8529 114.292 40.7851 114.354 40.7174 114.416C40.5801 114.378 40.4466 114.332 40.3111 114.277C40.3056 114.275 40.2983 114.273 40.2928 114.271C40.2873 114.27 40.2837 114.268 40.2782 114.266C40.269 114.262 40.2581 114.26 40.2489 114.259C40.172 114.238 40.0878 114.239 40.0165 114.27C39.9982 114.277 39.9799 114.288 39.9653 114.303C39.9616 114.306 39.9598 114.31 39.9561 114.314C39.9488 114.315 39.9414 114.317 39.9359 114.319C39.9176 114.328 39.8847 114.346 39.8902 114.37C39.8921 114.381 39.8975 114.39 39.9012 114.401C39.892 114.414 39.8865 114.429 39.8829 114.445C39.8755 114.484 39.8957 114.522 39.9232 114.55C39.9378 114.564 39.9543 114.575 39.9726 114.583C40.0458 114.713 40.1556 114.824 40.2965 114.897C40.302 114.899 40.3075 114.901 40.313 114.903C40.3204 114.907 40.3295 114.912 40.3386 114.914C40.3953 114.932 40.4996 114.938 40.5491 114.894C40.6534 114.799 40.7577 114.703 40.8621 114.608C40.9371 114.623 41.0139 114.637 41.0926 114.647C41.4367 114.687 41.7826 114.687 42.1267 114.683C42.1724 114.683 42.2804 114.676 42.2823 114.616C42.2786 114.557 42.1687 114.537 42.1267 114.539Z" fill="#1E1B35"/>
<path d="M43.6055 115.579C43.3273 115.561 43.0473 115.562 42.7673 115.581C42.8478 115.438 42.9265 115.295 42.9997 115.149C43.0491 115.05 42.7509 115.015 42.7069 115.103C42.6209 115.275 42.5276 115.445 42.4306 115.614C42.3775 115.621 42.3226 115.623 42.2677 115.632C42.1341 115.652 41.9986 115.672 41.8797 115.734C41.8742 115.738 41.8724 115.74 41.8687 115.744C41.8449 115.751 41.8229 115.762 41.8138 115.78L41.812 115.788C41.8047 115.791 41.7955 115.793 41.7882 115.799C41.7717 115.813 41.7608 115.831 41.7718 115.853C41.8065 115.923 41.8577 115.989 41.9181 116.04C41.9748 116.089 42.0425 116.126 42.1139 116.157C42.1377 116.221 42.3647 116.243 42.4123 116.17C42.5056 116.027 42.5935 115.881 42.6795 115.734C42.7234 115.731 42.7691 115.723 42.8131 115.722C43.0748 115.703 43.3384 115.705 43.6019 115.723C43.6477 115.725 43.7538 115.712 43.7556 115.656C43.7593 115.595 43.6458 115.583 43.6055 115.579Z" fill="#1E1B35"/>
<path d="M45.0164 116.223C44.9505 116.188 44.8682 116.194 44.8005 116.218C44.7181 116.245 44.6358 116.276 44.5571 116.311V116.309C44.5406 116.232 44.5058 116.157 44.515 116.077C44.5205 116.018 44.4071 116 44.365 116C44.3174 116 44.2166 116.007 44.2112 116.068C44.2038 116.143 44.2332 116.212 44.2497 116.284C44.2625 116.337 44.2698 116.39 44.2735 116.445C44.1271 116.522 43.9861 116.604 43.8525 116.697H43.847H43.8397C43.8324 116.697 43.8233 116.697 43.8159 116.697C43.7848 116.701 43.7463 116.708 43.7244 116.728L43.7079 116.745C43.7006 116.758 43.7005 116.77 43.706 116.783C43.7079 116.787 43.7097 116.792 43.7097 116.792V116.796C43.7097 116.824 43.7207 116.853 43.739 116.875C43.7481 116.886 43.761 116.891 43.7701 116.9C43.8068 116.942 43.8507 116.979 43.902 117.005C44.0282 117.072 44.1856 117.089 44.3246 117.056C44.3393 117.052 44.354 117.047 44.365 117.04C44.4162 117.038 44.4748 117.029 44.4894 116.992C44.5498 116.844 44.5827 116.688 44.5809 116.531C44.5809 116.522 44.579 116.512 44.5772 116.503C44.7163 116.434 44.8628 116.373 45.0129 116.324C45.0751 116.306 45.0658 116.249 45.0164 116.223Z" fill="#1E1B35"/>
<path d="M48.4225 82.8C47.9467 83.1532 47.4964 83.5595 47.0755 84.0042C45.7084 85.4482 44.733 87.2106 43.7978 88.9639C39.9343 96.2075 36.4881 103.674 33.4793 111.313C32.6521 113.416 33.4921 113.338 35.3552 113.654C37.1323 113.956 38.9076 114.258 40.6828 114.56C41.1861 114.646 41.715 114.73 42.2 114.569C43.0089 114.3 43.3073 113.129 43.7044 112.479C44.3614 111.407 45.0185 110.334 45.6535 109.24C47.1305 106.7 48.7044 104.214 50.3699 101.793C53.0931 97.8327 56.0963 93.973 57.7801 89.4708C58.3621 87.9134 58.5488 86.4603 57.663 84.9943C56.7772 83.5284 55.3899 82.3571 53.772 81.7806C51.8156 81.0815 49.98 81.647 48.4225 82.8Z" fill="#5BB6BA"/>
<path d="M59.0997 79.9674C59.0155 78.7869 58.8197 77.5864 58.3457 76.4956C57.9394 75.5641 57.3062 74.6728 56.3747 74.2116C56.1532 74.1018 55.9171 74.0195 55.6755 73.9646C55.6097 73.9499 55.4816 73.9334 55.4321 73.9975C55.3882 74.056 55.4266 74.1055 55.4961 74.1219C56.5229 74.3599 57.2678 75.1413 57.7583 76.0417C58.3128 77.063 58.5598 78.2105 58.6897 79.3561C58.9954 82.0702 58.5507 84.8245 57.6869 87.4013C56.8157 89.9983 55.509 92.4251 54.0705 94.7475C52.5917 97.134 50.9812 99.4362 49.4366 101.779C47.8169 104.237 46.2264 106.717 44.6689 109.215C44.4749 109.526 44.281 109.837 44.0889 110.148C44.0211 110.256 44.3652 110.3 44.4311 110.196C46.0069 107.654 47.6156 105.13 49.2554 102.626C50.8275 100.225 52.4691 97.866 54.0083 95.443C55.5035 93.0876 56.8852 90.637 57.8369 88.0071C58.7593 85.4431 59.2955 82.6979 59.0997 79.9674Z" fill="#4295A3"/>
<path d="M53.0363 64.4336C52.9924 64.4336 52.9485 64.4172 52.9155 64.386C52.8441 64.3183 52.8405 64.2067 52.9082 64.1353C53.0455 63.9889 66.8155 49.4083 87.5896 34.4817C99.7931 25.7136 111.989 18.5432 123.841 13.1699C138.662 6.44968 152.983 2.53686 166.407 1.53761C166.504 1.53029 166.59 1.60351 166.597 1.7005C166.605 1.7975 166.531 1.8835 166.434 1.89082C136.123 4.14736 106.945 21.0138 87.8055 34.7654C67.0571 49.6718 53.3072 64.2323 53.1699 64.3769C53.1297 64.4135 53.0839 64.4336 53.0363 64.4336Z" fill="#4295A3"/>
<path d="M120.92 17.3199C120.84 17.3199 120.75 17.3144 120.651 17.3016C120.232 17.2449 119.745 17.0637 119.275 16.7928C118.806 16.522 118.405 16.1889 118.147 15.8558C117.723 15.3086 117.823 14.9462 117.919 14.7797C118.016 14.6113 118.281 14.346 118.965 14.4393C119.385 14.496 119.871 14.6772 120.342 14.9481C120.81 15.2189 121.211 15.552 121.469 15.8851C121.894 16.4323 121.793 16.7947 121.698 16.9612C121.615 17.104 121.409 17.3199 120.92 17.3199ZM118.696 15.0103C118.528 15.0103 118.446 15.0487 118.431 15.0743C118.411 15.1073 118.431 15.2555 118.614 15.4935C118.825 15.7643 119.172 16.0516 119.569 16.2804C119.967 16.511 120.389 16.6684 120.73 16.7141C121.028 16.7544 121.165 16.6977 121.184 16.6629C121.204 16.6281 121.184 16.4817 121.001 16.2438C120.79 15.973 120.442 15.6856 120.045 15.4568C119.648 15.2262 119.225 15.0689 118.887 15.0231C118.814 15.014 118.751 15.0103 118.696 15.0103Z" fill="#B2754B"/>
<path d="M143.482 8.10987C143.021 8.10987 142.441 7.91038 141.923 7.61207C141.48 7.35585 141.101 7.04105 140.856 6.72627C140.452 6.20286 140.547 5.85514 140.64 5.69409C140.975 5.11394 142.053 5.32991 142.944 5.846C143.387 6.10222 143.766 6.41699 144.011 6.73177C144.416 7.25519 144.321 7.60291 144.227 7.76396C144.086 8.00553 143.815 8.10987 143.482 8.10987ZM141.374 5.93383C141.248 5.93383 141.171 5.95762 141.153 5.98873C141.143 6.00337 141.14 6.12782 141.325 6.36391C141.52 6.61647 141.846 6.88551 142.22 7.09964C143.06 7.58462 143.66 7.56264 143.715 7.46747C143.724 7.45283 143.728 7.32841 143.543 7.09232C143.347 6.83976 143.021 6.57072 142.648 6.35659C142.084 6.03083 141.628 5.93383 141.374 5.93383Z" fill="#B2754B"/>
<path d="M166.871 2.42427C166.491 2.42427 166.022 2.25771 165.618 2.02346C165.265 1.82031 164.961 1.56775 164.765 1.31337C164.425 0.874135 164.51 0.574017 164.591 0.433097C164.672 0.292177 164.891 0.0688925 165.44 0.143928C165.759 0.187851 166.128 0.323293 166.482 0.528267C167.184 0.932725 167.805 1.60438 167.508 2.11681C167.382 2.3346 167.15 2.42427 166.871 2.42427ZM165.111 0.73324C165.133 0.852199 165.369 1.19624 165.912 1.51102C166.458 1.8258 166.873 1.85693 166.987 1.81667C166.965 1.69771 166.729 1.35364 166.185 1.03886C165.64 0.725906 165.224 0.694808 165.111 0.73324Z" fill="#B2754B"/>
<path d="M100.455 29.3808C99.9008 29.3808 99.1925 29.1374 98.5593 28.7714C97.4868 28.1528 96.6065 27.17 96.9982 26.4929C97.1043 26.308 97.3971 26.0152 98.1676 26.1195C98.649 26.1854 99.2108 26.394 99.7525 26.7052C100.825 27.3237 101.705 28.3065 101.314 28.9837C101.153 29.2637 100.841 29.3808 100.455 29.3808ZM97.8602 26.6887C97.6607 26.6887 97.5399 26.7345 97.5088 26.7875C97.4026 26.9724 97.8327 27.6696 98.8539 28.2589C99.8752 28.8482 100.695 28.872 100.801 28.6872C100.907 28.5042 100.477 27.8051 99.456 27.2158C98.9875 26.9449 98.4879 26.7582 98.0871 26.7033C98.0029 26.6942 97.9279 26.6887 97.8602 26.6887Z" fill="#B2754B"/>
<path d="M80.2449 44.5395C79.6721 44.5395 78.9418 44.287 78.2885 43.91C77.7303 43.5879 77.2544 43.1926 76.947 42.7954C76.4583 42.164 76.5681 41.7541 76.6761 41.5656C76.7859 41.3771 77.086 41.0769 77.8767 41.1849C78.3726 41.2526 78.9546 41.4668 79.511 41.7907C80.0692 42.1128 80.545 42.5081 80.8525 42.9052C81.3412 43.5366 81.2313 43.9466 81.1233 44.1351C80.9604 44.4188 80.642 44.5395 80.2449 44.5395ZM77.5637 41.7541C77.3514 41.7541 77.2233 41.8035 77.1904 41.8621C77.1446 41.9408 77.1977 42.1512 77.4154 42.4349C77.6735 42.768 78.0981 43.1194 78.5849 43.3994C79.6464 44.0125 80.5011 44.0326 80.6127 43.8386C80.6585 43.7617 80.6054 43.5494 80.3877 43.2658C80.1296 42.9327 79.7032 42.5831 79.2182 42.3013C78.7314 42.0213 78.2152 41.8273 77.798 41.7705C77.712 41.7577 77.6333 41.7541 77.5637 41.7541Z" fill="#B2754B"/>
<path d="M165.953 0.00265569C150.194 1.68088 133.797 6.69362 117.22 14.8981C103.94 21.4701 90.5307 30.0863 77.3628 40.5071C65.529 49.8718 56.1934 58.8962 50.4467 64.8185C47.0518 68.3158 44.5848 71.0574 43.1133 72.7411C42.3575 73.6049 41.8212 74.2418 41.4534 74.6847C41.7261 74.8512 41.9676 75.0526 42.1799 75.2795C45.5895 71.158 59.0521 56.1089 78.5945 40.7395C99.0464 24.6563 130.82 4.69695 166.052 0.943355C166.312 0.915903 166.5 0.683456 166.473 0.423577C166.445 0.163699 166.213 -0.0247962 165.953 0.00265569Z" fill="#B2754B"/>
<path d="M52.8822 71.0462L52.6645 70.8412C52.1154 70.3233 52.0916 69.4613 52.6077 68.9123L54.0901 67.3402C54.6081 66.7912 55.4701 66.7674 56.0191 67.2853L56.2369 67.4903C56.7841 68.0082 56.8098 68.872 56.2937 69.4192L54.8131 70.9895C54.2951 71.5385 53.4313 71.5641 52.8822 71.0462Z" fill="#3F3768"/>
<path d="M56.396 68.0529L55.6402 67.3392C55.2412 66.9622 55.2229 66.3326 55.5999 65.9337L55.75 65.7744C56.127 65.3755 56.7566 65.3572 57.1555 65.7342L57.9114 66.4461C58.3103 66.8231 58.3286 67.4526 57.9534 67.8516L57.8034 68.0108C57.4263 68.4116 56.7968 68.4299 56.396 68.0529Z" fill="#3F3768"/>
<path d="M52.7468 70.305C51.4254 68.5096 50.7574 66.2494 50.8745 64.024C50.891 63.711 51.1655 63.475 51.4766 63.5116C51.764 63.5445 51.9689 63.7952 51.9543 64.0844C51.85 66.0609 52.4447 68.0704 53.6179 69.6644L52.7468 70.305Z" fill="#3F3768"/>
<path d="M55.4189 74.1003C55.2944 74.1003 55.1681 74.0582 55.0674 73.9704C54.4983 73.4818 54.1616 72.7003 54.0957 71.712C54.0719 71.3716 54.0792 71.0349 54.0865 70.711C54.0938 70.3358 54.1011 69.9826 54.0645 69.6367C54.0334 69.3402 54.2494 69.0748 54.5458 69.0437C54.8442 69.0144 55.1095 69.2285 55.1388 69.525C55.1809 69.9368 55.1736 70.3412 55.1663 70.7311C55.1608 71.0477 55.1535 71.3442 55.1736 71.6388C55.2066 72.122 55.3346 72.7753 55.7702 73.1487C55.9972 73.3427 56.0228 73.6849 55.8288 73.9118C55.7227 74.0363 55.5708 74.1003 55.4189 74.1003Z" fill="#1E1B35"/>
<path d="M40.0877 76.0181L39.8498 75.793C39.2495 75.2275 39.2221 74.2832 39.7876 73.6847L50.4263 62.4038C50.9918 61.8054 51.9361 61.7761 52.5346 62.3416L52.7725 62.5667C53.3728 63.1322 53.4002 64.0766 52.8347 64.675L42.1961 75.9559C41.6324 76.5562 40.688 76.5837 40.0877 76.0181Z" fill="#3F3768"/>
<path d="M11.8595 34.2332C11.9254 34.7438 12.2219 35.2508 12.4909 35.6516C13.1827 36.6837 14.0392 37.6061 15.0147 38.3766C15.8071 39.0025 17.2493 40.194 18.3327 40.0055C19.6834 39.7694 19.9103 37.8239 20.5454 36.8869C20.8034 36.5081 21.0834 36.1439 21.3964 35.8071C21.6435 35.5418 21.9143 35.2855 22.1632 35.0202C22.5256 34.6377 22.8477 34.2332 23.0087 33.7391C23.2247 33.0729 23.1002 32.361 22.9209 31.693C22.7635 31.1074 22.6665 30.4998 22.4652 29.9233C22.0479 28.7355 21.228 27.6923 20.291 26.8322C19.1508 25.7762 17.4908 25.4944 16.7551 27.0006C15.7742 29.0082 14.4564 30.8585 12.8715 32.4562C12.4908 32.8405 11.9382 33.2815 11.8595 33.8379C11.8412 33.9697 11.843 34.1014 11.8595 34.2332Z" fill="#F7967C"/>
<path d="M19.4709 35.2734C19.7162 35.8462 20.1664 36.377 20.547 36.8894C20.8051 36.5106 21.0851 36.1464 21.3981 35.8096C21.6451 35.5443 21.916 35.2881 22.1649 35.0227C22.2161 34.9165 22.2693 34.8122 22.3205 34.7061C22.5731 34.1918 22.8165 33.6611 22.9812 33.1102C22.9006 33.048 22.8219 32.9857 22.7432 32.9235C21.9416 32.2793 20.9314 31.2252 19.793 31.7413C18.543 32.3104 19.0573 34.3071 19.4709 35.2734Z" fill="#DB6357"/>
<path d="M27.7452 22.1448C27.7526 22.1741 27.7599 22.2033 27.7672 22.2326C27.8258 22.4614 27.7635 22.7798 27.7837 23.0306C27.8075 23.3398 27.8111 23.651 27.7727 23.9584C27.7049 24.5203 27.2584 24.9778 27.1888 25.5378C27.1577 25.7922 27.2694 26.0283 27.3444 26.268C27.4323 26.5517 27.5311 26.8335 27.6391 27.1117C27.8605 27.6772 28.1278 28.2281 28.4334 28.7552C28.6475 29.1212 28.8873 29.5202 28.8122 29.9338C28.6878 30.6055 27.9447 30.6988 27.3957 30.8287C26.8045 30.9696 26.5776 31.6999 26.4403 32.2013C26.2536 32.8858 26.1878 33.5831 25.9718 34.2657C25.7046 35.1112 25.2288 35.7939 24.2606 35.7609C22.8935 35.7134 21.5575 35.2357 20.4209 34.4871C19.5315 33.9015 18.7592 33.153 18.1131 32.3166C17.555 31.5956 16.6673 30.9605 16.3709 30.0766C16.0634 29.156 15.2178 29.1761 14.4913 28.6307C14.2003 28.413 14.0209 28.1183 13.7702 27.8676C13.5451 27.6425 13.4499 27.4284 13.3731 27.1136C13.1919 26.3522 12.9887 25.5012 12.9997 24.7198C13.0107 23.8925 13.0692 23.08 13.2376 22.2692C13.4792 21.0998 14.3339 20.0145 15.0293 19.061C15.4485 18.4864 15.8987 17.908 16.5118 17.5493C18.1681 16.5794 20.291 16.1145 22.2145 16.497C23.1186 16.6764 23.9221 17.0149 24.7712 17.3517C25.5545 17.6628 26.1274 18.3399 26.5703 19.0445C27.1614 19.9889 27.4689 21.0723 27.7452 22.1448Z" fill="#F7967C"/>
<path d="M15.3916 30.5735C15.5124 30.4967 15.6351 30.4217 15.7632 30.3521C16.3342 30.0392 16.8485 29.6841 17.295 29.2009C17.6153 28.8551 18.0014 28.5147 18.2906 28.1468C18.6694 27.6673 18.7408 27.1036 19.3173 26.7779C19.6046 26.615 19.9341 26.5418 20.2342 26.4045C20.9022 26.1007 20.9132 25.5151 21.0852 24.88C21.2609 24.2322 21.4769 23.5788 21.9015 23.0481C22.7617 21.9756 24.0849 21.6553 25.3879 21.5693C26.0816 21.5236 26.7898 21.4851 27.4377 21.2344C28.4974 20.8263 27.4871 19.1774 27.1156 18.5972C26.5373 17.6913 25.7411 16.9226 24.8096 16.3846C24.0153 15.9252 23.1295 15.8813 22.2199 15.8319C21.1346 15.7733 20.0457 15.8666 18.9751 16.0478C18.2266 16.1741 17.4798 16.3462 16.7862 16.6573C15.8913 17.0599 15.1116 17.6931 14.493 18.4526C13.8415 19.2524 13.2559 19.9954 12.8368 20.9544C12.4854 21.756 12.1395 22.5997 12.2035 23.4727C12.2273 23.7929 12.306 24.1059 12.3847 24.417C12.6537 25.484 12.9466 26.5509 13.1424 27.627C13.243 28.1852 13.4279 28.7233 13.5139 29.2906C13.5981 29.858 13.6585 30.429 13.7555 30.9945C13.7683 31.075 13.7866 31.161 13.847 31.2159C13.9422 31.302 14.0904 31.2672 14.2112 31.2233C14.6523 31.0659 15.0128 30.8115 15.3916 30.5735Z" fill="#1E1B35"/>
<path d="M27.0971 24.6171C27.0935 24.5622 27.0788 24.5073 27.0569 24.4579C26.883 24.0626 26.2626 24.0973 25.9076 24.0992C25.4427 24.1028 24.9906 24.2712 24.577 24.4725C24.1762 24.6647 23.759 24.93 23.629 25.3565C23.6217 25.3803 23.6162 25.4077 23.629 25.4297C23.6967 25.5596 24.3025 25.243 24.3995 25.2064C24.5386 25.1533 24.685 25.1204 24.8296 25.0929C25.3676 24.9868 25.9258 24.9319 26.4639 25.0325C26.581 25.0545 26.7036 25.0838 26.8189 25.0545C27.0239 25.0069 27.1136 24.8074 27.0971 24.6171Z" fill="#1E1B35"/>
<path d="M25.1422 26.4974C25.1843 26.3437 25.2502 26.2046 25.3527 26.1424C25.4259 26.0966 25.5193 26.0857 25.6089 26.0911C25.8688 26.1113 26.0061 26.2906 26.0152 26.5102C26.0207 26.6475 25.9841 26.7884 25.9384 26.9202C25.8908 27.0556 25.8249 27.1965 25.7352 27.3137C25.6876 27.3759 25.6272 27.4216 25.5449 27.4436C25.1953 27.5388 25.0525 27.2972 25.0672 27.0263C25.0745 26.9001 25.091 26.6878 25.1422 26.4974Z" fill="#1E1B35"/>
<path d="M25.421 31.8247C25.4228 31.7588 25.41 31.6948 25.3734 31.6435C25.3094 31.5502 25.2014 31.4989 25.1117 31.4294C24.9086 31.2738 24.7914 31.0341 24.6413 30.8254C24.5699 30.7266 24.4895 30.6314 24.387 30.5692C24.2149 30.4631 23.9807 30.4631 23.9056 30.6827C23.7995 30.9938 23.8159 31.3452 23.9458 31.6472C24.0776 31.9491 24.3247 32.198 24.6248 32.3335C24.7456 32.3884 24.8829 32.425 25.0128 32.3884C25.1977 32.3371 25.41 32.0571 25.421 31.8247Z" fill="white"/>
<path d="M25.1038 23.7738C25.4113 23.7628 25.7205 23.75 26.028 23.7372C28.151 23.653 30.3033 23.5432 32.3237 22.8917C32.8398 22.7251 33.3523 22.5202 33.775 22.1797C33.9068 22.0736 34.0332 21.9492 34.0899 21.7899C34.2564 21.3324 33.8684 21.3855 33.5701 21.3855C33.118 21.3837 32.6642 21.3727 32.2121 21.3672C31.2824 21.3544 30.3508 21.3434 29.4211 21.3306C28.6543 21.3196 27.8875 21.3105 27.1225 21.3654C26.1434 21.4349 25.1733 21.6124 24.2162 21.8284C23.0064 22.1011 21.751 22.4744 20.8817 23.362C20.4223 23.8305 21.2166 23.7116 21.4783 23.739C22.1701 23.8086 22.829 23.8507 23.5262 23.8287C24.0515 23.8122 24.5767 23.7939 25.1038 23.7738Z" fill="#F9C06E"/>
<path d="M28.2959 21.3202C28.2813 21.3605 28.2465 21.3879 28.2118 21.4099C27.9006 21.635 27.6206 21.8125 27.2765 21.9681C26.8007 22.1822 26.3541 22.4732 25.8801 22.6672C25.3183 22.896 24.7564 23.1302 24.1909 23.348C24.0664 23.3974 23.9383 23.445 23.812 23.4944C23.7059 23.5365 23.5979 23.5768 23.4918 23.6189C21.7989 24.2777 20.1042 24.9347 18.4094 25.5918C17.8 25.8297 17.1869 26.0676 16.5903 26.3403C16.486 26.3879 16.378 26.4391 16.27 26.4885C15.5618 26.8216 14.8516 27.1657 14.0958 27.378C13.9073 27.431 13.717 27.4749 13.523 27.5061C13.4077 27.5244 13.188 27.5994 13.0764 27.5774C12.8275 27.528 12.8055 27.1309 12.7378 26.9387C12.6884 26.796 12.5987 26.5544 12.7122 26.4226C12.7982 26.3238 13.0416 26.2451 13.1624 26.1774C13.8798 25.7766 13.9512 25.0537 13.2356 24.5833C13.0636 24.4717 12.8769 24.382 12.6811 24.318C12.5237 24.2667 12.2858 24.2759 12.1485 24.1917C11.8539 24.0087 11.938 23.3206 11.9289 23.0296C11.9088 22.411 11.9472 21.7503 12.0698 21.1043C12.2382 20.202 12.5658 19.3254 13.1075 18.6263C13.8322 17.6929 14.8406 16.8748 15.9241 16.3313C16.0961 16.2434 16.27 16.1648 16.4438 16.0934C16.5299 16.0586 16.6141 16.0257 16.7001 15.9946C17.542 15.6853 18.4095 15.5077 19.2898 15.4089C19.4215 15.3943 19.5533 15.3815 19.6887 15.3705C20.5837 15.2954 21.4878 15.2954 22.3827 15.3174C22.7323 15.3265 23.0855 15.3357 23.4204 15.4272C23.9145 15.5608 24.4929 15.7878 24.9412 16.033C25.4848 16.3295 25.9442 16.9773 26.3249 17.4532C26.8867 18.1578 27.3736 18.9228 27.7707 19.7299C28.0123 20.2185 28.2136 20.676 28.2978 21.2086C28.3051 21.247 28.3106 21.2854 28.2959 21.3202Z" fill="#4295A3"/>
<path d="M15.7335 22.5213C15.9787 23.8042 16.2716 25.0761 16.5937 26.3407L16.59 26.3426C16.4857 26.3902 16.3778 26.4414 16.2698 26.4908C16.1014 25.8301 15.9422 25.164 15.7902 24.496C15.1991 21.8807 14.4707 18.7677 15.9221 16.3336C16.0941 16.2458 16.268 16.1671 16.4418 16.0957C16.0557 16.6557 15.7921 17.2908 15.631 17.9551C15.2668 19.4576 15.448 21.0242 15.7335 22.5213Z" fill="#5BB6BA"/>
<path d="M23.8121 23.4931C23.7059 23.5352 23.598 23.5754 23.4918 23.6175C23.3216 23.1509 23.1514 22.686 22.9812 22.2175C22.4505 20.7644 21.9837 19.2563 21.2718 17.8783C20.9534 17.2578 20.5709 16.6649 20.1024 16.1488C19.8828 15.909 19.6485 15.6857 19.3923 15.4863C19.3612 15.4625 19.3282 15.435 19.2898 15.4076C19.4216 15.3929 19.5533 15.3801 19.6851 15.3691C19.9047 15.5393 20.1115 15.7278 20.3018 15.9292C21.356 17.0346 21.96 18.4547 22.4852 19.8676C22.9336 21.0718 23.3728 22.2834 23.8121 23.4931Z" fill="#5BB6BA"/>
<path d="M17.7083 17.4892C17.7046 17.4745 17.7009 17.4581 17.6936 17.4434C17.6881 17.4324 17.6772 17.4215 17.6698 17.4123C17.668 17.4087 17.6717 17.405 17.668 17.4013C17.6607 17.3867 17.6497 17.3775 17.635 17.3702C17.6186 17.3592 17.6021 17.3519 17.5838 17.3483C17.5545 17.3409 17.5234 17.3391 17.4941 17.3409C17.4575 17.3391 17.4209 17.3391 17.3843 17.3446C17.3642 17.3483 17.3441 17.3537 17.3239 17.3629C17.2892 17.3775 17.2745 17.3867 17.2471 17.4105C17.2343 17.4215 17.2251 17.4361 17.216 17.4489C17.2123 17.4544 17.2087 17.4617 17.2068 17.469C17.205 17.4818 17.1995 17.4983 17.2013 17.513C17.2031 17.5294 17.2086 17.5459 17.2141 17.5587C17.216 17.566 17.2214 17.5733 17.2251 17.5788C17.2342 17.5916 17.2452 17.6063 17.2599 17.6154C17.2709 17.6246 17.2855 17.6337 17.2983 17.6392C17.3056 17.6429 17.3129 17.6447 17.3203 17.6466C17.3276 17.6502 17.3349 17.652 17.3441 17.6539C17.3605 17.6594 17.377 17.6612 17.3953 17.663C17.4063 17.6685 17.4155 17.6758 17.4283 17.6777C17.4576 17.685 17.4886 17.6887 17.5179 17.6868C17.5472 17.685 17.5783 17.6795 17.6058 17.6685C17.6296 17.6594 17.6497 17.6466 17.6661 17.6301C17.6826 17.6081 17.6973 17.588 17.7046 17.5605C17.7101 17.5404 17.7156 17.5148 17.7083 17.4892Z" fill="#5BB6BA"/>
<path d="M22.8748 15.8283C22.8711 15.8192 22.8674 15.8119 22.8601 15.8027C22.8528 15.7917 22.8418 15.7789 22.8309 15.7698C22.818 15.7588 22.8034 15.7515 22.7887 15.7442C22.7851 15.7423 22.7796 15.7387 22.7741 15.7368C22.7576 15.7313 22.7394 15.7222 22.7211 15.7185C22.6552 15.7039 22.5874 15.7039 22.5197 15.7149C22.5106 15.7167 22.5014 15.7203 22.4923 15.7222C22.485 15.724 22.4776 15.7258 22.4721 15.7277C22.4538 15.7332 22.4373 15.7423 22.4245 15.7551C22.4062 15.7698 22.4099 15.7679 22.3934 15.7917C22.3916 15.7954 22.3879 15.8009 22.3861 15.8045C22.3806 15.821 22.377 15.8375 22.377 15.8558C22.377 15.8741 22.3825 15.8942 22.3898 15.9107C22.3971 15.929 22.4117 15.9436 22.4245 15.9583C22.4373 15.9747 22.4575 15.9857 22.4758 15.9949L22.4813 15.9985L22.4868 16.0004C22.5105 16.0168 22.5362 16.0297 22.5637 16.037C22.5984 16.0461 22.6277 16.0479 22.6625 16.0461C22.6716 16.0461 22.6808 16.0443 22.6917 16.0425C22.7009 16.0406 22.7119 16.0406 22.7211 16.0388C22.7668 16.0278 22.8089 16.0095 22.8437 15.9766C22.8528 15.9674 22.8601 15.9546 22.8674 15.9436C22.8711 15.94 22.8729 15.9345 22.8729 15.9308C22.8802 15.9143 22.8821 15.8961 22.8821 15.8777C22.8857 15.8631 22.8803 15.8448 22.8748 15.8283Z" fill="#5BB6BA"/>
<path d="M13.6546 18.7127C13.6565 18.6944 13.6491 18.6761 13.6363 18.6633C13.6345 18.6578 13.6345 18.6523 13.6308 18.6468C13.6199 18.6303 13.6016 18.6157 13.5833 18.6065C13.5704 18.6029 13.5577 18.5974 13.5467 18.5937C13.5247 18.5882 13.5027 18.5846 13.4808 18.5864C13.4497 18.5864 13.4186 18.5901 13.3893 18.5992C13.3746 18.6011 13.3637 18.6065 13.3509 18.6139C13.3344 18.6212 13.3197 18.6303 13.3069 18.6432C13.2795 18.6834 13.2538 18.7219 13.241 18.7694C13.2282 18.8152 13.2209 18.8628 13.2246 18.9085C13.2264 18.9396 13.2556 18.9616 13.2813 18.9744C13.2996 18.9836 13.3197 18.9891 13.3399 18.9909C13.3563 18.9945 13.3765 18.9945 13.3948 18.9945L13.4021 18.9964C13.4332 18.9982 13.4661 18.9964 13.4972 18.9909C13.5192 18.9872 13.5375 18.9799 13.5558 18.9708C13.5723 18.9653 13.5869 18.9543 13.5997 18.9415C13.64 18.8975 13.6619 18.8463 13.6674 18.7877C13.6693 18.7676 13.6675 18.7475 13.6638 18.7292C13.6583 18.7218 13.6565 18.7182 13.6546 18.7127Z" fill="#5BB6BA"/>
<path d="M21.4383 27.9703C21.4419 27.9538 21.4456 27.9373 21.4493 27.9209C21.7329 26.6325 20.7739 24.1654 19.0883 24.7859C18.4972 25.0036 18.0745 25.5765 17.9537 26.1969C17.7176 27.3993 18.5704 29.4545 19.9668 29.5625C20.8179 29.6284 21.2717 28.6749 21.4383 27.9703Z" fill="#F7967C"/>
<path d="M28.4718 91.6274C28.4279 92.0575 28.3016 92.6926 27.9557 92.9982C27.9374 93.0147 27.9173 93.0293 27.8972 93.0458C27.7489 93.1537 27.5641 93.2288 27.3646 93.28C27.0736 93.3551 26.7588 93.3807 26.5081 93.4008C25.5015 93.4868 24.5022 93.3478 23.5011 93.2691C20.7376 93.0513 17.9613 93.1336 15.1941 93.2416C12.7673 93.3368 10.3387 93.4539 7.90827 93.4118C6.7022 93.3899 5.49608 93.3313 4.2955 93.2068C3.69521 93.1446 3.09861 93.0677 2.50198 92.9707C2.10667 92.9067 1.5009 92.8756 1.14585 92.6834C1.07813 92.6468 1.0177 92.5974 0.959133 92.548C0.898738 92.4968 0.836524 92.4473 0.78711 92.3888C0.658999 92.2369 0.598608 92.0392 0.551024 91.8489C0.274671 90.727 0.298473 89.4807 0.228927 88.3295C0.177683 87.4785 0.141057 86.4811 0.4229 85.6667C0.457673 85.5642 0.497931 85.4617 0.508912 85.3556C0.510742 85.3355 0.510755 85.3153 0.510755 85.2952C0.508925 85.211 0.486965 85.1323 0.455853 85.0536C0.42657 84.9841 0.393637 84.9145 0.362524 84.8468C-0.102334 83.8329 0.0148081 82.6507 0.0093176 81.5654C0.00382714 80.3118 0.0184742 79.0563 0.0495867 77.8008C0.0715486 76.8803 0.0990125 75.9615 0.130125 75.041C0.152087 74.4352 0.0971385 73.5311 0.565657 73.0754C0.59128 73.0498 0.61876 73.0242 0.640722 72.9967C0.666344 72.9675 0.682818 72.9345 0.688308 72.8979C0.695629 72.843 0.668145 72.7899 0.644353 72.7368C0.637032 72.7222 0.63158 72.7076 0.626089 72.6948C0.358887 72.0853 0.397321 71.3899 0.421113 70.7237C0.541903 67.4771 0.186805 64.1865 0.840169 61.0039C0.929846 60.5628 1.0397 60.1254 1.16964 59.6935C1.23003 59.4959 1.27213 59.2415 1.3673 59.0603C1.38011 59.0365 1.40024 59.0127 1.4222 58.9871C1.48443 58.9175 1.56858 58.8444 1.58322 58.773C1.58871 58.7474 1.58507 58.7217 1.57775 58.6961C1.57226 58.6815 1.56861 58.6668 1.56311 58.6522C1.21722 57.7225 1.39109 56.5549 1.49358 55.5904C1.61254 54.4575 1.73882 53.3265 1.87242 52.1955C2.06276 50.5777 2.26772 48.9635 2.55689 47.3603C2.80945 45.9621 3.00341 44.3424 3.88554 43.1748C3.90751 43.1455 3.92766 43.1181 3.95145 43.0906C3.93681 43.0174 3.92766 42.9424 3.92034 42.8692C3.81785 41.8644 4.29005 40.8707 4.75125 39.9593C5.15754 39.1522 5.60776 38.3286 6.21903 37.6588C6.7388 37.086 7.30979 36.5607 7.92106 36.0849C8.6458 35.5175 9.76216 35.351 10.2435 34.5293C10.454 34.1687 10.562 33.757 10.6663 33.3525C10.7706 32.9517 10.8731 32.5491 10.9774 32.1483C11.0909 31.709 11.219 31.246 11.5484 30.9367C11.9291 30.578 12.5093 30.5048 13.0199 30.6164C13.5287 30.7281 13.9862 31.0026 14.4346 31.2716C17.2987 32.9938 20.1629 34.7196 22.9063 36.6266C22.9338 36.6467 22.9613 36.665 22.9887 36.6852C22.9979 36.6907 23.0052 36.6962 23.0143 36.7016C23.2504 36.8664 23.5048 37.0658 23.5359 37.3513C23.578 37.7338 23.2138 38.0852 23.082 38.4219C22.9082 38.8648 22.7855 39.3736 22.7343 39.8476C22.6391 40.7535 22.7819 41.6576 22.9631 42.5434C23.1058 43.2498 23.2687 44.0002 23.2193 44.7267C23.2157 44.767 23.212 44.8091 23.2138 44.8494C23.2138 44.8677 23.2156 44.8878 23.2211 44.9079C23.2339 44.9738 23.2687 45.0324 23.3016 45.0928C23.3145 45.1147 23.3273 45.1385 23.3383 45.1605C23.7665 45.9456 24.0209 46.8552 24.1691 47.73C24.3101 48.5627 24.5461 49.3716 24.7054 50.2098C24.892 51.1944 25.0787 52.179 25.2654 53.1636C25.4264 54.0201 25.5472 54.8894 25.6918 55.7423C25.8456 56.65 26.1402 57.4278 26.089 58.374C26.0817 58.4948 26.0633 58.6284 26.0139 58.74C25.9718 58.8407 25.906 58.923 25.8035 58.9633C25.8327 58.9889 25.8602 59.0127 25.8876 59.0383C26.3104 59.4483 26.4806 60.0413 26.5813 60.6068C26.7112 61.3425 26.8338 62.0782 26.9473 62.8194C27.1999 64.4702 27.4305 66.1246 27.6281 67.7809C27.7306 68.6282 27.8477 69.4792 27.9703 70.3156C28.0875 71.1208 27.8661 72.089 27.6739 72.8686L27.672 72.8723C27.6483 72.9729 27.6501 73.0736 27.6684 73.1724C27.7361 73.5385 28.0326 73.899 28.1277 74.2705C28.2559 74.7756 28.2742 75.3009 28.2961 75.8188C28.3364 76.8528 28.3968 77.8887 28.4261 78.9245C28.4847 81.0365 28.7756 83.3882 28.1003 85.4343C28.082 85.4892 28.0637 85.5459 28.0436 85.6008C28.0326 85.6356 28.018 85.6704 28.0051 85.7051C28.0015 85.7143 27.9997 85.7235 27.9978 85.7326C27.9722 85.8314 28.0033 85.9485 28.0527 86.0693C28.1351 86.2652 28.2687 86.4701 28.3016 86.6147C28.4206 87.1107 28.406 87.6945 28.4499 88.2051C28.5432 89.338 28.589 90.4873 28.4718 91.6274Z" fill="#F9C06E"/>
<path d="M20.2981 85.2492C15.5635 85.1595 10.8289 85.0991 6.09425 85.0698C4.21652 85.0588 2.33513 85.0533 0.455566 85.0515C0.486679 85.1302 0.508639 85.2089 0.510469 85.2931C0.510469 85.3132 0.510456 85.3334 0.508626 85.3535C4.45992 85.3571 8.40942 85.3809 12.3607 85.4267C17.0953 85.4834 21.8299 85.5694 26.5627 85.6866C27.0404 85.6994 27.5199 85.7122 27.9975 85.725C27.9994 85.7158 28.0012 85.7067 28.0049 85.6975C28.0396 85.6079 28.0689 85.5182 28.1 85.4267C25.4976 85.359 22.8987 85.2986 20.2981 85.2492ZM0.689865 72.8958C0.684374 72.9342 0.667901 72.9653 0.642279 72.9946C3.91459 73.2289 7.1942 73.3716 10.4757 73.3698C12.9354 73.3698 15.3859 73.2563 17.842 73.1282C20.2725 73.0001 22.7011 72.9873 25.1334 73.0623C25.9771 73.088 26.8207 73.1246 27.6644 73.1648C27.6461 73.066 27.6443 72.9653 27.6681 72.8647C24.6923 72.7183 21.7146 72.6487 18.7351 72.7823C16.3029 72.8903 13.8779 73.0422 11.442 73.0642C9.00974 73.0861 6.57743 73.0276 4.14882 72.9086C2.97387 72.85 1.79893 72.7787 0.625803 72.6927C0.631293 72.7073 0.638576 72.7219 0.644066 72.7347C0.669688 72.786 0.697185 72.8391 0.689865 72.8958ZM1.4237 58.9832C4.40136 59.2119 7.38821 59.3199 10.375 59.3089C12.7268 59.2998 15.0767 59.201 17.4247 59.1351C19.8076 59.0674 22.1905 59.0326 24.5752 59.0289C25.0107 59.0289 25.4482 59.0289 25.8856 59.0307C25.8581 59.0051 25.8306 58.9795 25.8013 58.9557C25.9038 58.9136 25.9679 58.8331 26.0118 58.7324C23.4624 58.7196 20.913 58.7452 18.3655 58.8093C16.0137 58.8679 13.6619 58.9722 11.3102 59.0015C8.9676 59.0308 6.62318 58.985 4.28242 58.866C3.38199 58.8203 2.48158 58.7636 1.58115 58.694C1.58847 58.7196 1.59211 58.7452 1.58662 58.7709C1.57015 58.8404 1.48593 58.9136 1.4237 58.9832ZM9.84973 43.8517C13.9676 44.322 18.0873 44.785 22.2234 45.0797C22.5949 45.1053 22.9665 45.1309 23.3362 45.1547C23.3252 45.1327 23.3123 45.109 23.2995 45.087C23.2666 45.0285 23.2318 44.968 23.219 44.9022C23.2135 44.882 23.2117 44.8619 23.2117 44.8436C21.0869 44.7045 18.9657 44.5215 16.8482 44.3074C12.7377 43.8956 8.63455 43.4033 4.53135 42.9348C4.3282 42.911 4.12504 42.889 3.9219 42.8652C3.92922 42.9384 3.93837 43.0135 3.95301 43.0867C3.93104 43.1141 3.90906 43.1416 3.8871 43.1709C5.87465 43.3978 7.86218 43.6247 9.84973 43.8517Z" fill="#B2754B"/>
<path d="M21.5026 40.3133C18.7756 39.5263 16.3562 37.9799 13.9477 36.5249C13.2175 36.0839 12.4873 35.6428 11.757 35.1999C11.6582 35.1395 11.3342 35.2237 11.5063 35.328C12.7929 36.1058 14.0777 36.8891 15.3679 37.6596C16.5776 38.3825 17.8057 39.0816 19.0978 39.6508C19.8207 39.9711 20.5637 40.2493 21.3232 40.4689C21.3891 40.4872 21.5154 40.4963 21.5666 40.4359C21.6179 40.3792 21.5648 40.3316 21.5026 40.3133Z" fill="#B2754B"/>
<path d="M28.4716 91.6296C28.4276 92.0597 28.3013 92.6947 27.9554 93.0004C27.9371 93.0168 27.917 93.0315 27.8969 93.048C27.7487 93.1559 27.5638 93.231 27.3643 93.2822C27.5126 89.3804 27.5931 85.4731 27.54 81.5676C27.432 73.7346 26.7567 65.9236 25.1352 58.2517C24.3299 54.4414 23.3728 50.6622 22.6791 46.8281C22.0733 43.4936 21.4456 39.826 22.9079 36.627C22.9353 36.6471 22.9628 36.6654 22.9903 36.6855C22.9994 36.691 23.0067 36.6965 23.0159 36.702C23.2519 36.8667 23.5063 37.0662 23.5375 37.3517C23.5795 37.7342 23.2154 38.0856 23.0836 38.4223C22.9097 38.8652 22.7871 39.374 22.7359 39.848C22.6407 40.7539 22.7835 41.658 22.9646 42.5438C23.1074 43.2502 23.2702 44.0005 23.2208 44.7271C23.2172 44.7674 23.2135 44.8094 23.2154 44.8497C23.2154 44.868 23.2172 44.8881 23.2227 44.9083C23.2355 44.9742 23.2703 45.0327 23.3032 45.0931C23.316 45.1151 23.3288 45.1389 23.3398 45.1608C23.7681 45.946 24.0225 46.8555 24.1707 47.7303C24.3116 48.5631 24.5477 49.372 24.7069 50.2102C24.8936 51.1948 25.0803 52.1794 25.267 53.164C25.428 54.0205 25.5488 54.8898 25.6934 55.7427C25.8471 56.6504 26.1418 57.4282 26.0906 58.3744C26.0832 58.4951 26.0649 58.6288 26.0155 58.7404C25.9734 58.8411 25.9075 58.9234 25.805 58.9637C25.8343 58.9893 25.8618 59.0131 25.8892 59.0387C26.312 59.4487 26.4822 60.0416 26.5828 60.6071C26.7128 61.3428 26.8354 62.0785 26.9489 62.8197C27.2014 64.4705 27.432 66.1249 27.6297 67.7812C27.7321 68.6286 27.8493 69.4796 27.9719 70.316C28.089 71.1212 27.8676 72.0893 27.6755 72.869L27.6736 72.8727C27.6498 72.9733 27.6516 73.0739 27.6699 73.1728C27.7376 73.5388 28.0341 73.8993 28.1293 74.2709C28.2574 74.776 28.2757 75.3012 28.2977 75.8191C28.338 76.8532 28.3983 77.889 28.4276 78.9249C28.4862 81.0368 28.7772 83.3886 28.1019 85.4346C28.0836 85.4896 28.0653 85.5463 28.0451 85.6012C28.0342 85.6359 28.0195 85.6707 28.0067 85.7055C28.0031 85.7146 28.0012 85.7238 27.9994 85.7329C27.9738 85.8318 28.0049 85.9489 28.0543 86.0697C28.1367 86.2655 28.2702 86.4705 28.3032 86.6151C28.4221 87.111 28.4075 87.6948 28.4514 88.2054C28.5429 89.3401 28.5887 90.4895 28.4716 91.6296Z" fill="#B2754B"/>
<path d="M46.8524 65.6957C47.8278 65.8733 48.7868 66.1295 49.6964 66.5248C50.1247 66.7115 50.5492 66.9366 50.8549 67.2916C51.188 67.6778 51.4533 68.2561 50.8165 68.4867C50.606 68.5635 50.3754 68.558 50.1521 68.5379C49.8483 68.5105 49.5482 68.4574 49.2535 68.3805C49.3468 68.4062 49.5738 69.0009 49.5866 69.1071C49.6122 69.3267 49.464 69.6122 49.3158 69.7678C49.0339 70.0569 48.5123 70.0624 48.2268 69.7769C48.3751 70.1558 48.2835 70.6224 47.9871 70.8988C47.6906 71.1751 47.1982 71.2264 46.8633 70.9976C47.0555 71.2795 46.9457 71.7168 46.6437 71.8742C46.1734 72.1195 45.5694 71.8065 45.1467 71.5961C44.6562 71.3545 44.2078 71.0379 43.7795 70.7011C43.2616 70.2949 42.7729 69.8501 42.2404 69.464C41.8579 69.1876 41.2704 69.1638 40.8092 69.151C40.4651 69.1419 40.0369 69.1382 39.8887 68.8271C39.8228 68.688 39.8392 68.527 39.8593 68.3751C39.9563 67.6741 40.1284 66.9841 40.3718 66.318C40.4651 66.0654 40.5823 65.7982 40.811 65.6555C40.9666 65.5585 41.1551 65.531 41.3363 65.5054C42.1891 65.3864 43.0493 65.2675 43.9076 65.337C44.8849 65.4176 45.8769 65.5164 46.8524 65.6957Z" fill="#F7967C"/>
<path d="M23.8562 65.4682C22.6904 66.4253 21.6143 67.5618 20.2344 68.2042C19.6139 68.4934 19.2516 69.2328 18.4847 69.1046C18.3896 69.09 18.2981 69.0644 18.2084 69.0315C16.9456 68.5593 16.069 66.9579 15.3314 65.9202C14.409 64.6208 13.5562 63.2739 12.7509 61.9013C12.2805 61.0997 11.7827 60.2944 11.3764 59.458C11.0671 58.823 10.7304 58.0397 9.93059 57.9079C9.72745 57.875 9.51884 57.9006 9.31203 57.886C8.23956 57.8109 7.56239 56.7128 7.17989 55.7081C5.86767 52.2638 5.87318 48.4736 6.41673 44.8719C6.74616 42.6922 7.74907 40.4503 9.61034 39.1656C11.6015 37.7912 13.9405 38.0053 15.6498 39.7805C16.9382 41.1202 17.5916 42.9302 18.2212 44.6779C20.033 49.7108 21.9455 54.707 23.9569 59.663C24.5444 61.1107 25.4558 62.8291 24.8738 64.4122C24.7127 64.8569 24.2058 65.1809 23.8562 65.4682Z" fill="#3F3768"/>
<path d="M43.0127 65.2376C43.0219 65.719 42.8626 66.1875 42.7016 66.6414C42.3483 67.6333 41.9786 68.6179 41.5888 69.5952C41.2887 70.3474 41.1606 71.2405 40.2857 71.5095C39.8794 71.6339 39.4439 71.6211 39.0175 71.6083C38.9552 71.6065 38.8948 71.6047 38.8344 71.6028C32.9249 71.4052 26.9915 71.2002 21.1808 70.1186C19.8924 69.8807 18.2342 69.4195 17.4381 68.2921C16.5981 67.1026 16.8268 65.4884 17.5571 64.3116C18.269 63.1605 19.4659 62.3552 20.7635 61.9727C22.1471 61.5646 23.8583 61.5975 25.2437 62.0148C26.7079 62.4577 28.194 62.6974 29.7203 62.9408C31.4535 63.219 33.1848 63.4972 34.9179 63.7736C35.8348 63.9218 36.7536 64.0682 37.6778 64.178C38.807 64.3153 39.927 64.4031 41.0434 64.5459C41.2685 64.5733 41.4955 64.6044 41.7224 64.6392C42.0061 64.6813 42.2879 64.7289 42.5716 64.7838C42.7107 64.8112 42.8608 64.846 42.9431 64.9613C42.9998 65.04 43.0109 65.1406 43.0127 65.2376Z" fill="#3F3768"/>
<path d="M10.4101 57.5815C9.57193 55.5848 8.79965 53.5607 8.09687 51.5128C8.05844 51.403 7.70885 51.4268 7.75461 51.5604C8.45739 53.6101 9.22789 55.6343 10.0679 57.6291C10.1155 57.7389 10.465 57.7096 10.4101 57.5815Z" fill="#1E1B35"/>
<path d="M24.7054 62.1753C24.6377 62.1387 24.5224 62.1351 24.4547 62.1753C23.8745 62.5139 23.4316 63.0648 23.2486 63.7126C23.2285 63.7858 23.3145 63.8151 23.373 63.8243C23.4224 63.8316 23.5726 63.8298 23.5909 63.7602C23.7629 63.1563 24.1618 62.62 24.7054 62.3034C24.7658 62.2668 24.7713 62.2101 24.7054 62.1753Z" fill="#1E1B35"/>
<path d="M43.0125 65.2406C43.0217 65.7219 42.8624 66.1905 42.7014 66.6443C42.3481 67.6363 41.9784 68.6209 41.5886 69.5982C41.2885 70.3503 41.1604 71.2434 40.2855 71.5125C39.8792 71.6369 39.4437 71.6241 39.0173 71.6113C38.955 71.6094 38.8946 71.6076 38.8342 71.6058C39.1655 70.0978 39.6066 68.6154 40.0897 67.1494C40.3258 66.4284 40.5473 65.6945 40.8273 64.988C40.8877 64.8343 40.959 64.6861 41.0451 64.5488C41.2702 64.5763 41.4971 64.6074 41.7241 64.6422C42.0077 64.6842 42.2896 64.7318 42.5732 64.7867C42.7123 64.8142 42.8624 64.849 42.9448 64.9642C42.9997 65.0429 43.0107 65.1436 43.0125 65.2406Z" fill="#F9C06E"/>
<path d="M20.0422 74.0486C17.6813 77.0207 14.193 78.9991 10.4248 79.464C10.2344 79.4878 9.93608 79.5957 10.0111 79.8355C10.0843 80.0679 10.5657 80.0679 10.7377 80.0459C14.8372 79.539 18.611 77.4435 21.1824 74.2097C21.4258 73.9022 20.2984 73.7265 20.0422 74.0486Z" fill="#B2754B"/>
</svg>
