<svg width="92" height="66" viewBox="0 0 92 66" fill="none" xmlns="http://www.w3.org/2000/svg">
<path d="M35.3042 46.6909C35.4842 45.5349 35.4732 44.3669 35.2502 43.1829C34.9812 41.7589 34.2352 40.4119 32.7152 40.0919C32.3382 40.0129 31.9522 40.0229 31.5702 40.0369C28.7642 40.1329 25.9652 40.2279 23.1792 40.4829C21.9822 40.5929 20.7862 40.707 19.5902 40.8199C17.2362 41.0439 14.8822 41.2669 12.5252 41.4549C10.5992 41.6079 8.58923 41.9419 6.86923 42.9259C6.28423 43.2609 5.36421 43.7559 4.96121 44.3489C4.39521 45.1819 4.44522 46.778 4.51822 47.764C4.55722 48.285 4.64121 48.8139 4.86221 49.2819C5.28721 50.1829 6.17121 50.7429 7.07321 50.9619C7.97521 51.1809 8.90722 51.1069 9.82421 51.0389C16.7572 50.5219 23.7202 50.3929 30.6772 50.6499C31.1672 50.6679 31.6512 50.6289 32.1362 50.5619C32.8182 50.4679 33.4442 50.533 34.0052 50.042C34.5012 49.6069 34.7292 48.95 34.9242 48.32C35.0922 47.78 35.2192 47.2369 35.3042 46.6909Z" fill="#5BB6BA"/>
<path d="M28.9313 65.38C28.4673 65.557 27.9992 65.579 27.5062 65.565L25.7842 65.519C25.3182 65.381 24.8483 65.181 24.3543 65.185C24.0213 65.187 23.7403 65.346 23.4473 65.457L21.7773 65.412C21.5603 65.351 21.3513 65.27 21.1633 65.162C21.0973 65.125 21.0322 65.081 20.9982 65.017C20.9682 64.96 20.9662 64.896 20.9672 64.834C20.9702 64.648 21.0003 64.466 21.0443 64.286C21.1583 63.825 21.3613 63.379 21.4183 62.905C21.4263 62.841 21.4333 62.777 21.4373 62.713C21.4683 62.305 21.4523 61.884 21.5013 61.474C21.5093 61.416 21.5193 61.354 21.5623 61.313C21.5913 61.286 21.6312 61.271 21.6702 61.258C22.4402 60.991 23.2043 60.847 24.0043 60.835C24.2373 60.831 24.4712 60.838 24.7112 60.857C24.7522 60.656 24.8112 60.46 24.8862 60.268C24.9082 60.215 24.9323 60.158 24.9833 60.127C25.0273 60.1 25.0843 60.096 25.1373 60.102C25.5273 60.149 25.6133 60.514 25.6563 60.806C25.7173 61.216 25.8213 61.617 25.9733 62.005C26.1563 62.475 26.6953 62.796 27.1113 63.086C27.5713 63.405 28.0752 63.68 28.6382 63.801C28.8262 63.841 29.0223 63.866 29.1913 63.954C29.3713 64.048 29.4843 64.167 29.5443 64.296C29.7343 64.697 29.4013 65.201 28.9313 65.38Z" fill="#4295A3"/>
<path d="M28.9313 65.3792C28.4673 65.5562 27.9992 65.5781 27.5062 65.5641L25.7842 65.5182C25.3182 65.3802 24.8483 65.1801 24.3543 65.1841C24.0213 65.1861 23.7403 65.3451 23.4473 65.4561L21.7773 65.4112C21.5603 65.3502 21.3513 65.2692 21.1633 65.1612C21.0973 65.1242 21.0322 65.0801 20.9982 65.0161C20.9682 64.9591 20.9662 64.8952 20.9672 64.8332C20.9702 64.6472 21.0003 64.4652 21.0443 64.2852C21.1253 64.3322 21.2103 64.3882 21.2963 64.4322C21.9593 64.7752 22.7513 64.8982 23.4943 64.7562C23.7193 64.7132 23.9403 64.6471 24.1683 64.6281C24.5373 64.5981 24.9023 64.6902 25.2673 64.7602C25.9943 64.8992 26.7402 64.9451 27.4802 64.8991C27.8932 64.8731 28.3113 64.8162 28.6863 64.6552C28.9733 64.5332 29.2383 64.3502 29.5463 64.2952C29.7343 64.6962 29.4013 65.2002 28.9313 65.3792Z" fill="#1E1B35"/>
<path d="M25.8961 61.5359C25.7731 61.5079 25.6511 61.4799 25.5281 61.4519C25.6401 61.4019 25.7461 61.3429 25.8521 61.2829C25.8801 61.2669 25.8841 61.2439 25.8531 61.2269C25.8231 61.2109 25.7661 61.2069 25.7351 61.2239C25.6131 61.2919 25.4911 61.3599 25.3611 61.4139L24.8811 61.3049C24.8751 61.3039 24.8681 61.3029 24.8601 61.3029C24.8431 61.3009 24.8261 61.3009 24.8111 61.3039C24.7891 61.3079 24.7641 61.3159 24.7591 61.3389C24.7311 61.4519 24.7971 61.5689 24.9011 61.6279C24.9171 61.6369 24.9411 61.6409 24.9601 61.6409C24.9791 61.6409 25.0021 61.6389 25.0191 61.6309L25.0201 61.6299C25.0751 61.6239 25.1281 61.6049 25.1801 61.5809C25.2481 61.5499 25.3201 61.5299 25.3901 61.5059C25.5431 61.5409 25.6961 61.5759 25.8491 61.6099C25.8771 61.6169 25.9371 61.6139 25.9521 61.5849C25.9691 61.5549 25.9181 61.5409 25.8961 61.5359ZM25.1511 61.4879C25.1191 61.4989 25.0881 61.5119 25.0571 61.5259C25.0511 61.5289 25.0451 61.5319 25.0391 61.5339C25.0411 61.4949 25.0301 61.4549 25.0101 61.4199C25.0781 61.4359 25.1461 61.4509 25.2151 61.4669C25.1931 61.4739 25.1721 61.4799 25.1511 61.4879Z" fill="#1E1B35"/>
<path d="M26.5061 62.5837C26.3391 62.5847 26.1712 62.5877 26.0042 62.5697C25.9652 62.5657 25.9262 62.5597 25.8882 62.5527C25.9022 62.5407 25.9152 62.5277 25.9292 62.5157C25.9762 62.4737 26.0222 62.4307 26.0682 62.3887C26.1072 62.3527 26.1462 62.3147 26.1862 62.2797C26.2052 62.2767 26.2222 62.2687 26.2312 62.2547C26.2652 62.2057 26.1532 62.1907 26.1262 62.1937C26.0792 62.1987 26.0542 62.2247 26.0222 62.2537C25.9632 62.3077 25.9052 62.3617 25.8462 62.4147C25.8092 62.4487 25.7721 62.4827 25.7351 62.5167C25.6601 62.4957 25.5872 62.4707 25.5132 62.4407C25.5102 62.4397 25.5061 62.4387 25.5031 62.4377C25.5001 62.4367 25.4982 62.4357 25.4952 62.4347C25.4902 62.4327 25.4842 62.4317 25.4782 62.4307C25.4362 62.4197 25.3902 62.4197 25.3512 62.4367C25.3412 62.4407 25.3312 62.4467 25.3232 62.4547C25.3212 62.4567 25.3202 62.4587 25.3182 62.4607C25.3142 62.4617 25.3102 62.4627 25.3072 62.4637C25.2972 62.4687 25.2791 62.4787 25.2821 62.4917C25.2831 62.4977 25.2861 62.5027 25.2871 62.5087C25.2821 62.5157 25.2792 62.5237 25.2772 62.5327C25.2732 62.5537 25.2842 62.5747 25.2992 62.5897C25.3072 62.5977 25.3161 62.6037 25.3261 62.6077C25.3661 62.6787 25.4261 62.7397 25.5031 62.7797C25.5061 62.7807 25.5092 62.7817 25.5122 62.7827C25.5162 62.7847 25.5212 62.7877 25.5262 62.7887C25.5572 62.7987 25.6141 62.8017 25.6411 62.7777C25.6981 62.7257 25.7552 62.6737 25.8122 62.6217C25.8532 62.6297 25.8951 62.6377 25.9381 62.6427C26.1261 62.6647 26.3141 62.6647 26.5031 62.6627C26.5281 62.6627 26.5872 62.6587 26.5882 62.6257C26.5892 62.5937 26.5291 62.5827 26.5061 62.5837Z" fill="#1E1B35"/>
<path d="M27.3142 63.1527C27.1622 63.1427 27.0092 63.1437 26.8562 63.1537C26.9002 63.0757 26.9432 62.9977 26.9832 62.9177C27.0102 62.8637 26.8472 62.8447 26.8232 62.8927C26.7762 62.9867 26.7252 63.0797 26.6732 63.1717C26.6432 63.1757 26.6142 63.1767 26.5842 63.1817C26.5112 63.1927 26.4372 63.2037 26.3722 63.2377C26.3692 63.2397 26.3682 63.2407 26.3662 63.2427C26.3532 63.2467 26.3412 63.2527 26.3362 63.2627L26.3352 63.2667C26.3312 63.2687 26.3262 63.2697 26.3222 63.2727C26.3132 63.2807 26.3072 63.2907 26.3132 63.3027C26.3322 63.3407 26.3602 63.3767 26.3932 63.4047C26.4242 63.4317 26.4612 63.4517 26.5002 63.4687C26.5122 63.5037 26.6372 63.5157 26.6632 63.4757C26.7142 63.3977 26.7622 63.3177 26.8092 63.2377C26.8332 63.2357 26.8582 63.2317 26.8822 63.2307C27.0252 63.2207 27.1692 63.2217 27.3132 63.2317C27.3382 63.2327 27.3962 63.2257 27.3972 63.1947C27.3982 63.1617 27.3372 63.1547 27.3142 63.1527Z" fill="#1E1B35"/>
<path d="M28.0863 63.5048C28.0503 63.4858 28.0053 63.4888 27.9683 63.5018C27.9233 63.5168 27.8783 63.5338 27.8353 63.5528V63.5518C27.8263 63.5098 27.8073 63.4688 27.8123 63.4248C27.8153 63.3928 27.7533 63.3828 27.7303 63.3828C27.7043 63.3828 27.6493 63.3868 27.6463 63.4198C27.6423 63.4608 27.6583 63.4988 27.6673 63.5378C27.6743 63.5668 27.6773 63.5958 27.6803 63.6258C27.6003 63.6678 27.5233 63.7128 27.4503 63.7638H27.4473H27.4433C27.4393 63.7638 27.4343 63.7638 27.4303 63.7638C27.4133 63.7658 27.3923 63.7698 27.3803 63.7808L27.3713 63.7898C27.3673 63.7968 27.3673 63.8038 27.3703 63.8108C27.3713 63.8128 27.3723 63.8158 27.3723 63.8158V63.8178C27.3723 63.8328 27.3783 63.8488 27.3883 63.8608C27.3933 63.8668 27.4003 63.8698 27.4053 63.8748C27.4253 63.8978 27.4493 63.9178 27.4773 63.9318C27.5463 63.9688 27.6323 63.9778 27.7083 63.9598C27.7163 63.9578 27.7243 63.9548 27.7313 63.9508C27.7593 63.9498 27.7913 63.9448 27.7993 63.9248C27.8323 63.8438 27.8503 63.7588 27.8493 63.6728C27.8493 63.6678 27.8483 63.6628 27.8473 63.6578C27.9243 63.6198 28.0033 63.5868 28.0853 63.5598C28.1173 63.5498 28.1123 63.5188 28.0863 63.5048Z" fill="#1E1B35"/>
<path d="M29.9462 45.2418C29.6862 45.4348 29.4402 45.6568 29.2102 45.8998C28.4632 46.6888 27.9302 47.6518 27.4192 48.6098C25.3082 52.5678 23.4242 56.6478 21.7812 60.8218C21.3292 61.9708 21.7882 61.9278 22.8062 62.1008C23.7762 62.2658 24.7471 62.4308 25.7171 62.5958C25.9571 62.6368 26.1802 62.6488 26.4222 62.6378C26.5582 62.6318 26.5572 62.7318 26.6892 62.6758C26.7642 62.6438 26.8742 62.4358 26.9272 62.3678C27.2552 61.9418 27.5791 61.5128 27.8941 61.0768C28.5401 60.1838 29.1572 59.2698 29.7592 58.3458C30.9632 56.4978 32.1042 54.6098 33.2912 52.7508C33.8952 51.8058 34.5032 50.8508 34.8782 49.7938C35.2292 48.8058 35.4442 47.4958 35.0122 46.4928C34.6522 45.6568 33.7012 44.9808 32.8692 44.6848C31.8002 44.3028 30.7972 44.6118 29.9462 45.2418Z" fill="#5BB6BA"/>
<path d="M31.8832 46.5879C31.9252 46.3839 31.9622 46.1779 31.9982 45.9739C32.2312 44.6579 32.4102 43.2669 31.9422 42.0159C31.5682 41.0169 30.5572 40.2809 29.5262 40.0649C29.1492 39.9859 28.7632 39.9959 28.3812 40.0089C25.5752 40.1049 22.7762 40.1999 19.9902 40.4549C18.7932 40.5649 17.5972 40.6789 16.4012 40.7929C14.0472 41.0169 11.6932 41.2399 9.33618 41.4279C7.41018 41.5819 5.4002 41.9149 3.6802 42.8999C3.2302 43.1579 2.74518 43.4019 2.34918 43.7399C1.91718 44.1079 1.87719 44.4629 1.79919 45.0379C1.63619 46.2449 1.72618 47.4859 2.07018 48.6549C2.30818 49.4619 2.75618 50.4559 3.54418 50.8689C4.37818 51.3059 5.72219 51.0809 6.63619 51.0129C13.5692 50.4959 20.5322 50.3659 27.4892 50.6239C29.1602 50.6859 30.6062 49.9129 31.3362 48.3619C31.6002 47.7999 31.7602 47.1979 31.8832 46.5879Z" fill="#5BB6BA"/>
<path d="M25.4432 65.38C24.9792 65.557 24.5112 65.579 24.0182 65.565L22.2962 65.519C21.8302 65.381 21.3602 65.181 20.8662 65.185C20.5332 65.187 20.2522 65.346 19.9592 65.457L18.2892 65.412C18.0722 65.351 17.8622 65.27 17.6752 65.162C17.6092 65.125 17.5442 65.081 17.5102 65.017C17.4802 64.96 17.4782 64.896 17.4792 64.834C17.4822 64.648 17.5122 64.466 17.5562 64.286C17.6702 63.825 17.8732 63.379 17.9302 62.905C17.9382 62.841 17.9442 62.777 17.9502 62.713C17.9812 62.305 17.9642 61.884 18.0142 61.474C18.0222 61.416 18.0322 61.354 18.0752 61.313C18.1042 61.286 18.1442 61.271 18.1832 61.258C18.9532 60.991 19.7172 60.847 20.5172 60.835C20.7502 60.831 20.9842 60.838 21.2242 60.857C21.2652 60.656 21.3242 60.46 21.3992 60.268C21.4212 60.215 21.4452 60.158 21.4962 60.127C21.5402 60.1 21.5972 60.096 21.6502 60.102C22.0402 60.149 22.1262 60.514 22.1702 60.806C22.2312 61.216 22.3352 61.617 22.4872 62.005C22.6702 62.475 23.2092 62.796 23.6252 63.086C24.0852 63.405 24.5892 63.68 25.1522 63.801C25.3402 63.841 25.5362 63.866 25.7052 63.954C25.8852 64.048 25.9982 64.167 26.0582 64.296C26.2452 64.697 25.9132 65.201 25.4432 65.38Z" fill="#4295A3"/>
<path d="M25.4432 65.3792C24.9792 65.5562 24.5112 65.5781 24.0182 65.5641L22.2962 65.5182C21.8302 65.3802 21.3602 65.1801 20.8662 65.1841C20.5332 65.1861 20.2522 65.3451 19.9592 65.4561L18.2892 65.4112C18.0722 65.3502 17.8622 65.2692 17.6752 65.1612C17.6092 65.1242 17.5442 65.0801 17.5102 65.0161C17.4802 64.9591 17.4782 64.8952 17.4792 64.8332C17.4822 64.6472 17.5122 64.4652 17.5562 64.2852C17.6372 64.3322 17.7222 64.3882 17.8082 64.4322C18.4712 64.7752 19.2642 64.8982 20.0062 64.7562C20.2312 64.7132 20.4512 64.6471 20.6802 64.6281C21.0492 64.5981 21.4142 64.6902 21.7792 64.7602C22.5062 64.8992 23.2522 64.9451 23.9922 64.8991C24.4052 64.8731 24.8232 64.8162 25.1982 64.6552C25.4852 64.5332 25.7502 64.3502 26.0582 64.2952C26.2452 64.6962 25.9132 65.2002 25.4432 65.3792Z" fill="#1E1B35"/>
<path d="M22.4071 61.5359C22.2851 61.5079 22.1621 61.4799 22.0391 61.4519C22.1511 61.4019 22.2571 61.3429 22.3631 61.2829C22.3911 61.2669 22.3951 61.2439 22.3641 61.2269C22.3341 61.2109 22.2771 61.2069 22.2461 61.2239C22.1241 61.2919 22.0021 61.3599 21.8721 61.4139L21.3921 61.3049C21.3861 61.3039 21.3791 61.3029 21.3711 61.3029C21.3541 61.3009 21.3371 61.3009 21.3221 61.3039C21.3001 61.3079 21.2751 61.3159 21.2701 61.3389C21.2421 61.4519 21.3081 61.5689 21.4121 61.6279C21.4281 61.6369 21.4521 61.6409 21.4711 61.6409C21.4891 61.6409 21.5131 61.6389 21.5301 61.6309L21.5311 61.6299C21.5861 61.6239 21.6391 61.6049 21.6911 61.5809C21.7591 61.5499 21.8311 61.5299 21.9021 61.5059C22.0551 61.5409 22.2081 61.5759 22.3611 61.6099C22.3891 61.6169 22.4491 61.6139 22.4641 61.5849C22.4811 61.5549 22.4291 61.5409 22.4071 61.5359ZM21.6631 61.4879C21.6311 61.4989 21.6001 61.5119 21.5691 61.5259C21.5631 61.5289 21.5571 61.5319 21.5511 61.5339C21.5531 61.4949 21.5421 61.4549 21.5231 61.4199C21.5911 61.4359 21.6591 61.4509 21.7281 61.4669C21.7051 61.4739 21.6841 61.4799 21.6631 61.4879Z" fill="#1E1B35"/>
<path d="M23.0181 62.5837C22.8511 62.5847 22.6831 62.5877 22.5161 62.5697C22.4771 62.5657 22.4381 62.5597 22.4001 62.5527C22.4141 62.5407 22.4271 62.5277 22.4411 62.5157C22.4881 62.4737 22.5341 62.4307 22.5801 62.3887C22.6191 62.3527 22.6581 62.3147 22.6981 62.2797C22.7171 62.2767 22.7341 62.2687 22.7431 62.2547C22.7771 62.2057 22.6651 62.1907 22.6391 62.1937C22.5921 62.1987 22.5671 62.2247 22.5351 62.2537C22.4761 62.3077 22.4181 62.3617 22.3591 62.4147C22.3221 62.4487 22.2851 62.4827 22.2481 62.5167C22.1731 62.4957 22.1001 62.4707 22.0261 62.4407C22.0231 62.4397 22.0191 62.4387 22.0161 62.4377C22.0131 62.4367 22.0111 62.4357 22.0081 62.4347C22.0031 62.4327 21.9971 62.4317 21.9921 62.4307C21.9501 62.4197 21.9041 62.4197 21.8651 62.4367C21.8551 62.4407 21.8451 62.4467 21.8371 62.4547C21.8351 62.4567 21.8341 62.4587 21.8321 62.4607C21.8281 62.4617 21.8241 62.4627 21.8211 62.4637C21.8111 62.4687 21.7931 62.4787 21.7961 62.4917C21.7971 62.4977 21.8001 62.5027 21.8021 62.5087C21.7971 62.5157 21.7941 62.5237 21.7921 62.5327C21.7881 62.5537 21.7991 62.5747 21.8141 62.5897C21.8221 62.5977 21.8311 62.6037 21.8411 62.6077C21.8811 62.6787 21.9411 62.7397 22.0181 62.7797C22.0211 62.7807 22.0241 62.7817 22.0271 62.7827C22.0311 62.7847 22.0361 62.7877 22.0411 62.7887C22.0721 62.7987 22.1291 62.8017 22.1561 62.7777C22.2131 62.7257 22.2701 62.6737 22.3271 62.6217C22.3681 62.6297 22.4101 62.6377 22.4531 62.6427C22.6411 62.6647 22.8301 62.6647 23.0181 62.6627C23.0431 62.6627 23.1021 62.6587 23.1031 62.6257C23.1011 62.5937 23.0411 62.5827 23.0181 62.5837Z" fill="#1E1B35"/>
<path d="M23.8262 63.1527C23.6742 63.1427 23.5211 63.1437 23.3681 63.1537C23.4121 63.0757 23.4552 62.9977 23.4952 62.9177C23.5222 62.8637 23.3592 62.8447 23.3352 62.8927C23.2882 62.9867 23.2372 63.0797 23.1842 63.1717C23.1552 63.1757 23.1252 63.1767 23.0952 63.1817C23.0222 63.1927 22.9482 63.2037 22.8832 63.2377C22.8802 63.2397 22.8792 63.2407 22.8772 63.2427C22.8642 63.2467 22.8521 63.2527 22.8471 63.2627L22.8462 63.2667C22.8422 63.2687 22.8372 63.2697 22.8332 63.2727C22.8242 63.2807 22.8182 63.2907 22.8242 63.3027C22.8432 63.3407 22.8712 63.3767 22.9042 63.4047C22.9352 63.4317 22.9721 63.4517 23.0111 63.4687C23.0241 63.5037 23.1482 63.5157 23.1742 63.4757C23.2252 63.3977 23.2732 63.3177 23.3202 63.2377C23.3442 63.2357 23.3692 63.2317 23.3932 63.2307C23.5362 63.2207 23.6802 63.2217 23.8242 63.2317C23.8492 63.2327 23.9072 63.2257 23.9082 63.1947C23.9102 63.1617 23.8482 63.1547 23.8262 63.1527Z" fill="#1E1B35"/>
<path d="M24.5973 63.5048C24.5613 63.4858 24.5163 63.4888 24.4793 63.5018C24.4343 63.5168 24.3893 63.5338 24.3463 63.5528V63.5518C24.3373 63.5098 24.3183 63.4688 24.3233 63.4248C24.3263 63.3928 24.2643 63.3828 24.2413 63.3828C24.2153 63.3828 24.1603 63.3868 24.1573 63.4198C24.1533 63.4608 24.1693 63.4988 24.1783 63.5378C24.1853 63.5668 24.1893 63.5958 24.1913 63.6258C24.1113 63.6678 24.0343 63.7128 23.9613 63.7638H23.9583H23.9543C23.9503 63.7638 23.9453 63.7638 23.9413 63.7638C23.9243 63.7658 23.9033 63.7698 23.8913 63.7808L23.8823 63.7898C23.8783 63.7968 23.8783 63.8038 23.8813 63.8108C23.8823 63.8128 23.8833 63.8158 23.8833 63.8158V63.8178C23.8833 63.8328 23.8893 63.8488 23.8993 63.8608C23.9043 63.8668 23.9113 63.8698 23.9163 63.8748C23.9363 63.8978 23.9603 63.9178 23.9883 63.9318C24.0573 63.9688 24.1433 63.9778 24.2193 63.9598C24.2273 63.9578 24.2353 63.9548 24.2413 63.9508C24.2693 63.9498 24.3013 63.9448 24.3093 63.9248C24.3423 63.8438 24.3603 63.7588 24.3593 63.6728C24.3593 63.6678 24.3583 63.6628 24.3573 63.6578C24.4333 63.6198 24.5133 63.5868 24.5953 63.5598C24.6293 63.5498 24.6243 63.5188 24.5973 63.5048Z" fill="#1E1B35"/>
<path d="M26.4581 45.2418C26.1981 45.4348 25.9521 45.6568 25.7221 45.8998C24.9751 46.6888 24.4422 47.6518 23.9312 48.6098C21.8202 52.5678 19.9371 56.6478 18.2931 60.8218C17.8411 61.9708 18.3001 61.9278 19.3181 62.1008C20.2891 62.2658 21.2591 62.4308 22.2291 62.5958C22.5041 62.6428 22.7931 62.6888 23.0581 62.6008C23.5001 62.4538 23.6631 61.8138 23.8801 61.4588C24.2391 60.8728 24.5981 60.2868 24.9451 59.6888C25.7521 58.3008 26.6122 56.9428 27.5222 55.6198C29.0102 53.4558 30.6511 51.3468 31.5711 48.8868C31.8891 48.0358 31.9912 47.2418 31.5072 46.4408C31.0232 45.6398 30.2651 44.9998 29.3811 44.6848C28.3121 44.3028 27.3091 44.6118 26.4581 45.2418Z" fill="#5BB6BA"/>
<path d="M32.2922 43.6936C32.2462 43.0486 32.1392 42.3926 31.8802 41.7966C31.6582 41.2876 31.3123 40.8006 30.8033 40.5486C30.6823 40.4886 30.5532 40.4436 30.4212 40.4136C30.3852 40.4056 30.3152 40.3966 30.2882 40.4316C30.2642 40.4636 30.2852 40.4906 30.3232 40.4996C30.8842 40.6296 31.2912 41.0566 31.5592 41.5486C31.8622 42.1066 31.9972 42.7336 32.0682 43.3596C32.2352 44.8426 31.9922 46.3476 31.5202 47.7556C31.0442 49.1746 30.3302 50.5006 29.5442 51.7696C28.7362 53.0736 27.8562 54.3315 27.0122 55.6115C26.1272 56.9545 25.2582 58.3096 24.4072 59.6746C24.3012 59.8446 24.1952 60.0146 24.0902 60.1846C24.0532 60.2436 24.2413 60.2676 24.2773 60.2106C25.1383 58.8216 26.0172 57.4426 26.9132 56.0746C27.7722 54.7626 28.6692 53.4736 29.5102 52.1496C30.3272 50.8626 31.0822 49.5236 31.6022 48.0866C32.1062 46.6856 32.3992 45.1856 32.2922 43.6936Z" fill="#4295A3"/>
<path d="M28.9791 35.2071C28.9551 35.2071 28.9311 35.1981 28.9131 35.1811C28.8741 35.1441 28.8721 35.0831 28.9091 35.0441C28.9841 34.9641 36.5081 26.9971 47.8591 18.8411C54.5271 14.0501 61.1911 10.1321 67.6671 7.19612C75.7651 3.52412 83.5901 1.38612 90.9251 0.840119C90.9781 0.836119 91.0251 0.876124 91.0291 0.929124C91.0331 0.982124 90.9931 1.02911 90.9401 1.03311C74.3781 2.26611 58.4351 11.4821 47.9771 18.9961C36.6401 27.1411 29.1271 35.0971 29.0521 35.1761C29.0301 35.1961 29.0051 35.2071 28.9791 35.2071Z" fill="#4295A3"/>
<path d="M66.071 9.46349C66.027 9.46349 65.978 9.46048 65.924 9.45348C65.695 9.42248 65.429 9.32348 65.172 9.17548C64.916 9.02748 64.6969 8.84549 64.5559 8.66349C64.3239 8.36449 64.3789 8.16649 64.4309 8.07549C64.4839 7.98349 64.629 7.83849 65.003 7.88949C65.232 7.92049 65.498 8.01949 65.755 8.16749C66.011 8.31549 66.2299 8.4975 66.3709 8.6795C66.6029 8.9785 66.5479 9.1765 66.4959 9.2675C66.4509 9.34549 66.338 9.46349 66.071 9.46349ZM64.856 8.20149C64.764 8.20149 64.719 8.22249 64.711 8.23649C64.7 8.25449 64.711 8.33549 64.811 8.46549C64.926 8.61349 65.116 8.77049 65.333 8.89549C65.55 9.02149 65.781 9.10749 65.967 9.13249C66.13 9.15449 66.205 9.12349 66.215 9.10449C66.226 9.08549 66.215 9.0055 66.115 8.8755C66 8.7275 65.81 8.57049 65.593 8.44549C65.376 8.31949 65.145 8.23349 64.96 8.20849C64.92 8.20349 64.886 8.20149 64.856 8.20149Z" fill="#B2754B"/>
<path d="M78.3991 4.43118C78.1471 4.43118 77.8301 4.32217 77.5471 4.15917C77.3051 4.01917 77.0981 3.84716 76.9641 3.67516C76.7431 3.38916 76.7951 3.19917 76.8461 3.11117C77.0291 2.79417 77.6181 2.91218 78.1051 3.19418C78.3471 3.33418 78.5541 3.50617 78.6881 3.67817C78.9091 3.96417 78.8571 4.15417 78.8061 4.24217C78.7291 4.37417 78.5811 4.43118 78.3991 4.43118ZM77.2471 3.24217C77.1781 3.24217 77.1361 3.25516 77.1261 3.27216C77.1211 3.28016 77.1191 3.34817 77.2201 3.47717C77.3271 3.61517 77.5051 3.76217 77.7091 3.87917C78.1681 4.14417 78.4961 4.13216 78.5261 4.08016C78.5311 4.07216 78.5331 4.00418 78.4321 3.87518C78.3251 3.73718 78.1471 3.59017 77.9431 3.47317C77.6351 3.29517 77.3861 3.24217 77.2471 3.24217Z" fill="#B2754B"/>
<path d="M91.1791 1.32452C90.9711 1.32452 90.7151 1.23351 90.4941 1.10551C90.3011 0.994513 90.1351 0.856513 90.0281 0.717513C89.8421 0.477513 89.889 0.313525 89.933 0.236525C89.977 0.159525 90.097 0.0375204 90.397 0.0785204C90.571 0.10252 90.773 0.176527 90.966 0.288527C91.35 0.509527 91.689 0.876523 91.527 1.15652C91.458 1.27552 91.3311 1.32452 91.1791 1.32452ZM90.217 0.400527C90.229 0.465527 90.3581 0.653514 90.6551 0.825514C90.9531 0.997514 91.18 1.01452 91.242 0.992522C91.23 0.927522 91.1011 0.739519 90.8041 0.567519C90.5061 0.396519 90.279 0.379527 90.217 0.400527Z" fill="#B2754B"/>
<path d="M54.8891 16.0537C54.5861 16.0537 54.1991 15.9207 53.8531 15.7207C53.2671 15.3827 52.7861 14.8457 53.0001 14.4757C53.0581 14.3747 53.2181 14.2147 53.6391 14.2717C53.9021 14.3077 54.2091 14.4217 54.5051 14.5917C55.0911 14.9297 55.5721 15.4667 55.3581 15.8367C55.2701 15.9897 55.1001 16.0537 54.8891 16.0537ZM53.4711 14.5827C53.3621 14.5827 53.2961 14.6077 53.2791 14.6367C53.2211 14.7377 53.4561 15.1187 54.0141 15.4407C54.5721 15.7627 55.0201 15.7757 55.0781 15.6747C55.1361 15.5747 54.901 15.1927 54.343 14.8707C54.087 14.7227 53.8141 14.6207 53.5951 14.5907C53.5491 14.5857 53.5081 14.5827 53.4711 14.5827Z" fill="#B2754B"/>
<path d="M43.8461 24.3376C43.5331 24.3376 43.1341 24.1997 42.7771 23.9937C42.4721 23.8177 42.2121 23.6016 42.0441 23.3846C41.7771 23.0396 41.837 22.8156 41.896 22.7126C41.956 22.6096 42.1201 22.4457 42.5521 22.5047C42.8231 22.5417 43.1411 22.6586 43.4451 22.8356C43.7501 23.0116 44.0101 23.2277 44.1781 23.4447C44.4451 23.7897 44.385 24.0137 44.326 24.1167C44.237 24.2717 44.0631 24.3376 43.8461 24.3376ZM42.3811 22.8156C42.2651 22.8156 42.1951 22.8426 42.1771 22.8746C42.1521 22.9176 42.181 23.0327 42.3 23.1877C42.441 23.3697 42.673 23.5616 42.939 23.7146C43.519 24.0496 43.986 24.0607 44.047 23.9547C44.072 23.9127 44.0431 23.7966 43.9241 23.6416C43.7831 23.4596 43.5501 23.2687 43.2851 23.1147C43.0191 22.9617 42.7371 22.8556 42.5091 22.8246C42.4621 22.8176 42.4191 22.8156 42.3811 22.8156Z" fill="#B2754B"/>
<path d="M90.6772 0.0014511C82.0662 0.918451 73.1072 3.65746 64.0492 8.14046C56.7932 11.7315 49.4661 16.4395 42.2711 22.1335C35.8051 27.2505 30.7041 32.1814 27.5641 35.4174C25.7091 37.3284 24.3612 38.8264 23.5572 39.7464C23.1442 40.2184 22.8511 40.5665 22.6501 40.8085C22.7991 40.8995 22.9311 41.0095 23.0471 41.1335C24.9101 38.8815 32.2662 30.6585 42.9442 22.2605C54.1192 13.4725 71.4802 2.56646 90.7312 0.515459C90.8732 0.500459 90.9762 0.373447 90.9612 0.231447C90.9462 0.0894468 90.8192 -0.0135489 90.6772 0.0014511Z" fill="#B2754B"/>
<path d="M28.895 38.8195L28.7761 38.7075C28.4761 38.4245 28.4631 37.9535 28.7451 37.6535L29.555 36.7945C29.838 36.4945 30.3091 36.4815 30.6091 36.7645L30.7281 36.8765C31.0271 37.1595 31.0411 37.6315 30.7591 37.9305L29.9501 38.7885C29.6671 39.0885 29.195 39.1025 28.895 38.8195Z" fill="#3F3768"/>
<path d="M30.8149 37.1848L30.4019 36.7948C30.1839 36.5888 30.1739 36.2448 30.3799 36.0268L30.4619 35.9398C30.6679 35.7218 31.0119 35.7118 31.2299 35.9178L31.6429 36.3068C31.8609 36.5128 31.8709 36.8568 31.6659 37.0748L31.5839 37.1618C31.3779 37.3808 31.0339 37.3908 30.8149 37.1848Z" fill="#3F3768"/>
<path d="M28.821 38.4152C28.099 37.4342 27.734 36.1992 27.798 34.9832C27.807 34.8122 27.957 34.6832 28.127 34.7032C28.284 34.7212 28.396 34.8582 28.388 35.0162C28.331 36.0962 28.656 37.1942 29.297 38.0652L28.821 38.4152Z" fill="#3F3768"/>
<path d="M30.281 40.4891C30.213 40.4891 30.1439 40.4661 30.0889 40.4181C29.7779 40.1511 29.594 39.7241 29.558 39.1841C29.545 38.9981 29.549 38.8141 29.553 38.6371C29.557 38.4321 29.5609 38.2391 29.5409 38.0501C29.5239 37.8881 29.6419 37.7431 29.8039 37.7261C29.9669 37.7101 30.1119 37.8271 30.1279 37.9891C30.1509 38.2141 30.147 38.4351 30.143 38.6481C30.14 38.8211 30.136 38.9831 30.147 39.1441C30.165 39.4081 30.2349 39.7651 30.4729 39.9691C30.5969 40.0751 30.611 40.2621 30.505 40.3861C30.447 40.4541 30.364 40.4891 30.281 40.4891Z" fill="#1E1B35"/>
<path d="M21.9041 41.5367L21.774 41.4137C21.446 41.1047 21.4311 40.5887 21.7401 40.2617L27.5531 34.0977C27.8621 33.7707 28.378 33.7547 28.705 34.0637L28.8351 34.1867C29.1631 34.4957 29.1781 35.0117 28.8691 35.3387L23.0561 41.5027C22.7481 41.8307 22.2321 41.8457 21.9041 41.5367Z" fill="#3F3768"/>
<path d="M6.48003 18.7049C6.51603 18.9839 6.67803 19.2609 6.82503 19.4799C7.20303 20.0439 7.67103 20.5479 8.20403 20.9689C8.63703 21.3109 9.42502 21.9619 10.017 21.8589C10.755 21.7299 10.879 20.6669 11.226 20.1549C11.367 19.9479 11.52 19.7489 11.691 19.5649C11.826 19.4199 11.974 19.2799 12.11 19.1349C12.308 18.9259 12.484 18.7049 12.572 18.4349C12.69 18.0709 12.622 17.6819 12.524 17.3169C12.438 16.9969 12.385 16.6649 12.275 16.3499C12.047 15.7009 11.599 15.1309 11.087 14.6609C10.464 14.0839 9.55702 13.9299 9.15502 14.7529C8.61902 15.8499 7.89901 16.8609 7.03301 17.7339C6.82501 17.9439 6.52303 18.1849 6.48003 18.4889C6.47003 18.5609 6.47103 18.6329 6.48003 18.7049Z" fill="#F7967C"/>
<path d="M10.639 19.2728C10.773 19.5858 11.019 19.8759 11.227 20.1559C11.368 19.9489 11.521 19.7498 11.692 19.5658C11.827 19.4208 11.975 19.2808 12.111 19.1358C12.139 19.0778 12.168 19.0208 12.196 18.9628C12.334 18.6818 12.467 18.3918 12.557 18.0908C12.513 18.0568 12.47 18.0228 12.427 17.9888C11.989 17.6368 11.437 17.0608 10.815 17.3428C10.132 17.6538 10.413 18.7448 10.639 19.2728Z" fill="#DB6357"/>
<path d="M15.16 12.1005C15.164 12.1165 15.168 12.1325 15.172 12.1485C15.204 12.2735 15.17 12.4475 15.181 12.5845C15.194 12.7535 15.196 12.9235 15.175 13.0915C15.138 13.3985 14.894 13.6485 14.856 13.9545C14.839 14.0935 14.9 14.2225 14.941 14.3535C14.989 14.5085 15.043 14.6625 15.102 14.8145C15.223 15.1235 15.369 15.4245 15.536 15.7125C15.653 15.9125 15.784 16.1305 15.743 16.3565C15.675 16.7235 15.269 16.7745 14.969 16.8455C14.646 16.9225 14.522 17.3215 14.447 17.5955C14.345 17.9695 14.309 18.3505 14.191 18.7235C14.045 19.1855 13.785 19.5585 13.256 19.5405C12.509 19.5145 11.779 19.2535 11.158 18.8445C10.672 18.5245 10.25 18.1155 9.89702 17.6585C9.59202 17.2645 9.10703 16.9175 8.94503 16.4345C8.77703 15.9315 8.31502 15.9425 7.91802 15.6445C7.75902 15.5255 7.66101 15.3645 7.52401 15.2275C7.40101 15.1045 7.34903 14.9875 7.30703 14.8155C7.20803 14.3995 7.09702 13.9345 7.10302 13.5075C7.10902 13.0555 7.14102 12.6115 7.23302 12.1685C7.36502 11.5295 7.83202 10.9365 8.21202 10.4155C8.44102 10.1015 8.68702 9.78547 9.02202 9.58947C9.92702 9.05947 11.087 8.80548 12.138 9.01448C12.632 9.11248 13.071 9.29747 13.535 9.48147C13.963 9.65147 14.276 10.0215 14.518 10.4065C14.841 10.9225 15.009 11.5145 15.16 12.1005Z" fill="#F7967C"/>
<path d="M8.41004 16.7051C8.47604 16.6631 8.54304 16.6222 8.61304 16.5842C8.92504 16.4132 9.20604 16.2191 9.45004 15.9551C9.62504 15.7661 9.83602 15.5802 9.99402 15.3791C10.201 15.1171 10.24 14.8091 10.555 14.6311C10.712 14.5421 10.892 14.5021 11.056 14.4271C11.421 14.2611 11.427 13.9411 11.521 13.5941C11.617 13.2401 11.735 12.8831 11.967 12.5931C12.437 12.0071 13.16 11.8321 13.872 11.7851C14.251 11.7601 14.638 11.7391 14.992 11.6021C15.571 11.3791 15.019 10.4781 14.816 10.1611C14.5 9.66615 14.065 9.24615 13.556 8.95215C13.122 8.70115 12.638 8.67715 12.141 8.65015C11.548 8.61815 10.953 8.66914 10.368 8.76814C9.95904 8.83714 9.55103 8.93115 9.17203 9.10115C8.68303 9.32115 8.25704 9.66714 7.91904 10.0821C7.56304 10.5191 7.24304 10.9251 7.01404 11.4491C6.82204 11.8871 6.63303 12.3481 6.66803 12.8251C6.68103 13.0001 6.72403 13.1711 6.76703 13.3411C6.91403 13.9241 7.07403 14.5071 7.18103 15.0951C7.23603 15.4001 7.33704 15.6941 7.38404 16.0041C7.43004 16.3141 7.46302 16.6261 7.51602 16.9351C7.52302 16.9791 7.53304 17.0262 7.56604 17.0562C7.61804 17.1032 7.69905 17.0841 7.76505 17.0601C8.00605 16.9741 8.20304 16.8351 8.41004 16.7051Z" fill="#1E1B35"/>
<path d="M14.8059 13.4518C14.8039 13.4218 14.7959 13.3918 14.7839 13.3648C14.6889 13.1488 14.3499 13.1678 14.1559 13.1688C13.9019 13.1708 13.6549 13.2628 13.4289 13.3728C13.2099 13.4778 12.9819 13.6228 12.9109 13.8558C12.9069 13.8688 12.9039 13.8838 12.9109 13.8958C12.9479 13.9668 13.2789 13.7938 13.3319 13.7738C13.4079 13.7448 13.4879 13.7268 13.5669 13.7118C13.8609 13.6538 14.1659 13.6238 14.4599 13.6788C14.5239 13.6908 14.5909 13.7068 14.6539 13.6908C14.7659 13.6648 14.8149 13.5558 14.8059 13.4518Z" fill="#1E1B35"/>
<path d="M13.7379 14.4786C13.7609 14.3946 13.7969 14.3186 13.8529 14.2846C13.8929 14.2596 13.9439 14.2536 13.9929 14.2566C14.1349 14.2676 14.2098 14.3656 14.2148 14.4856C14.2178 14.5606 14.1979 14.6376 14.1729 14.7096C14.1469 14.7836 14.1109 14.8606 14.0619 14.9246C14.0359 14.9586 14.0029 14.9836 13.9579 14.9956C13.7669 15.0476 13.6888 14.9156 13.6968 14.7676C13.7008 14.6986 13.7099 14.5826 13.7379 14.4786Z" fill="#1E1B35"/>
<path d="M13.89 17.3898C13.891 17.3538 13.884 17.3188 13.864 17.2908C13.829 17.2398 13.77 17.2118 13.721 17.1738C13.61 17.0888 13.546 16.9578 13.464 16.8438C13.425 16.7898 13.381 16.7378 13.325 16.7038C13.231 16.6458 13.103 16.6458 13.062 16.7658C13.004 16.9358 13.013 17.1278 13.084 17.2928C13.156 17.4578 13.291 17.5938 13.455 17.6678C13.521 17.6978 13.596 17.7178 13.667 17.6978C13.768 17.6698 13.884 17.5168 13.89 17.3898Z" fill="white"/>
<path d="M13.7171 12.9899C13.8851 12.9839 14.0541 12.9769 14.2221 12.9699C15.3821 12.9239 16.5581 12.8639 17.6621 12.5079C17.9441 12.4169 18.2241 12.3049 18.4551 12.1189C18.5271 12.0609 18.5961 11.9929 18.6271 11.9059C18.7181 11.6559 18.5061 11.6849 18.3431 11.6849C18.0961 11.6839 17.8481 11.6779 17.6011 11.6749C17.0931 11.6679 16.5841 11.6619 16.0761 11.6549C15.6571 11.6489 15.2381 11.6439 14.8201 11.6739C14.2851 11.7119 13.7551 11.8089 13.2321 11.9269C12.5711 12.0759 11.8851 12.2799 11.4101 12.7649C11.1591 13.0209 11.5931 12.9559 11.7361 12.9709C12.1141 13.0089 12.4741 13.0319 12.8551 13.0199C13.1421 13.0109 13.4291 13.0009 13.7171 12.9899Z" fill="#F9C06E"/>
<path d="M15.4611 11.6502C15.4531 11.6722 15.4342 11.6872 15.4152 11.6992C15.2452 11.8222 15.0921 11.9192 14.9041 12.0042C14.6441 12.1212 14.4001 12.2802 14.1411 12.3862C13.8341 12.5112 13.5271 12.6392 13.2181 12.7582C13.1501 12.7852 13.0801 12.8112 13.0111 12.8382C12.9531 12.8612 12.8941 12.8832 12.8361 12.9062C11.9111 13.2662 10.9851 13.6252 10.0591 13.9842C9.72614 14.1142 9.39115 14.2442 9.06515 14.3932C9.00815 14.4192 8.94916 14.4472 8.89016 14.4742C8.50316 14.6562 8.11514 14.8442 7.70214 14.9602C7.59914 14.9892 7.49515 15.0132 7.38915 15.0302C7.32615 15.0402 7.20613 15.0812 7.14513 15.0692C7.00913 15.0422 6.99714 14.8252 6.96014 14.7202C6.93314 14.6422 6.88416 14.5102 6.94616 14.4382C6.99316 14.3842 7.12613 14.3412 7.19213 14.3042C7.58413 14.0852 7.62314 13.6902 7.23214 13.4332C7.13814 13.3722 7.03613 13.3232 6.92913 13.2882C6.84313 13.2602 6.71314 13.2652 6.63814 13.2192C6.47714 13.1192 6.52315 12.7432 6.51815 12.5842C6.50715 12.2462 6.52815 11.8852 6.59515 11.5322C6.68715 11.0392 6.86613 10.5602 7.16213 10.1782C7.55813 9.66822 8.10913 9.22123 8.70113 8.92423C8.79513 8.87623 8.89013 8.83324 8.98513 8.79424C9.03213 8.77524 9.07814 8.75724 9.12514 8.74024C9.58514 8.57124 10.0592 8.47423 10.5402 8.42023C10.6122 8.41223 10.6841 8.40523 10.7581 8.39923C11.2471 8.35823 11.7412 8.35823 12.2302 8.37023C12.4212 8.37523 12.6141 8.38024 12.7971 8.43024C13.0671 8.50324 13.3831 8.62723 13.6281 8.76123C13.9251 8.92323 14.1761 9.27723 14.3841 9.53723C14.6911 9.92223 14.9572 10.3402 15.1742 10.7812C15.3062 11.0482 15.4162 11.2982 15.4621 11.5892C15.4661 11.6102 15.4691 11.6312 15.4611 11.6502Z" fill="#4295A3"/>
<path d="M8.59703 12.3059C8.73103 13.0069 8.89103 13.7019 9.06703 14.3929L9.06505 14.3939C9.00805 14.4199 8.94906 14.4479 8.89006 14.4749C8.79806 14.1139 8.71104 13.7499 8.62804 13.3849C8.30504 11.9559 7.90706 10.2549 8.70006 8.92491C8.79406 8.87691 8.88905 8.83392 8.98405 8.79492C8.77305 9.10092 8.62903 9.44791 8.54103 9.81091C8.34203 10.6319 8.44103 11.4879 8.59703 12.3059Z" fill="#5BB6BA"/>
<path d="M13.0113 12.8374C12.9533 12.8604 12.8943 12.8824 12.8363 12.9054C12.7433 12.6504 12.6503 12.3964 12.5573 12.1404C12.2673 11.3464 12.0123 10.5224 11.6233 9.76944C11.4493 9.43044 11.2403 9.10643 10.9843 8.82443C10.8643 8.69343 10.7363 8.57143 10.5963 8.46243C10.5793 8.44943 10.5613 8.43443 10.5403 8.41943C10.6123 8.41143 10.6843 8.40444 10.7563 8.39844C10.8763 8.49144 10.9893 8.59444 11.0933 8.70444C11.6693 9.30844 11.9993 10.0844 12.2863 10.8564C12.5313 11.5144 12.7713 12.1764 13.0113 12.8374Z" fill="#5BB6BA"/>
<path d="M9.67613 9.5562C9.67413 9.5482 9.67214 9.53921 9.66814 9.53121C9.66514 9.52521 9.65914 9.51921 9.65514 9.51421C9.65414 9.51221 9.65613 9.5102 9.65413 9.5082C9.65013 9.5002 9.64413 9.4952 9.63613 9.4912C9.62713 9.4852 9.61814 9.48121 9.60814 9.47921C9.59214 9.47521 9.57513 9.47421 9.55913 9.47521C9.53913 9.47421 9.51913 9.47421 9.49913 9.47721C9.48813 9.47921 9.47714 9.4822 9.46614 9.4872C9.44714 9.4952 9.43915 9.5002 9.42415 9.5132C9.41715 9.5192 9.41215 9.5272 9.40715 9.5342C9.40515 9.5372 9.40315 9.5412 9.40215 9.5452C9.40115 9.5522 9.39813 9.5612 9.39913 9.5692C9.40013 9.5782 9.40314 9.5872 9.40614 9.5942C9.40714 9.5982 9.41013 9.6022 9.41213 9.6052C9.41713 9.6122 9.42314 9.6202 9.43114 9.6252C9.43714 9.6302 9.44513 9.6352 9.45213 9.6382C9.45613 9.6402 9.46013 9.6412 9.46413 9.6422C9.46813 9.6442 9.47213 9.6452 9.47713 9.6462C9.48613 9.6492 9.49514 9.6502 9.50514 9.6512C9.51114 9.6542 9.51615 9.6582 9.52315 9.6592C9.53915 9.6632 9.55613 9.6652 9.57213 9.6642C9.58813 9.6632 9.60513 9.66021 9.62013 9.65421C9.63313 9.64921 9.64412 9.6422 9.65312 9.6332C9.66212 9.6212 9.67015 9.6102 9.67415 9.5952C9.67715 9.5842 9.68013 9.5702 9.67613 9.5562Z" fill="#5BB6BA"/>
<path d="M12.4991 8.64831C12.4971 8.64331 12.4951 8.63931 12.4911 8.63431C12.4871 8.62831 12.4811 8.62131 12.4751 8.61631C12.4681 8.61031 12.4601 8.60632 12.4521 8.60232C12.4501 8.60132 12.4471 8.59932 12.4441 8.59832C12.4351 8.59532 12.4251 8.59031 12.4151 8.58831C12.3791 8.58031 12.3421 8.58031 12.3051 8.58631C12.3001 8.58731 12.2951 8.58931 12.2901 8.59031C12.2861 8.59131 12.2821 8.59231 12.2791 8.59331C12.2691 8.59631 12.2601 8.60131 12.2531 8.60831C12.2431 8.61631 12.2451 8.61532 12.2361 8.62832C12.2351 8.63032 12.2331 8.6333 12.2321 8.6353C12.2291 8.6443 12.2271 8.6533 12.2271 8.6633C12.2271 8.6733 12.2301 8.68432 12.2341 8.69332C12.2381 8.70332 12.2461 8.7113 12.2531 8.7193C12.2601 8.7283 12.2711 8.73431 12.2811 8.73931L12.2841 8.74131L12.287 8.74231C12.3 8.75131 12.3141 8.75832 12.3291 8.76232C12.3481 8.76732 12.3641 8.76831 12.3831 8.76731C12.3881 8.76731 12.393 8.76631 12.399 8.76531C12.404 8.76431 12.4101 8.76431 12.4151 8.76331C12.4401 8.75731 12.4631 8.74731 12.4821 8.72931C12.4871 8.72431 12.4911 8.71731 12.4951 8.71131C12.4971 8.70931 12.498 8.7063 12.498 8.7043C12.502 8.6953 12.5031 8.68531 12.5031 8.67531C12.5051 8.66731 12.5021 8.65731 12.4991 8.64831Z" fill="#5BB6BA"/>
<path d="M7.46109 10.2255C7.46209 10.2155 7.45808 10.2055 7.45108 10.1985C7.45008 10.1955 7.45009 10.1925 7.44809 10.1895C7.44209 10.1805 7.43209 10.1725 7.42209 10.1675C7.41509 10.1655 7.4081 10.1625 7.4021 10.1605C7.3901 10.1575 7.37809 10.1555 7.36609 10.1565C7.34909 10.1565 7.3321 10.1585 7.3161 10.1635C7.3081 10.1645 7.3021 10.1675 7.2951 10.1715C7.2861 10.1755 7.27809 10.1805 7.27109 10.1875C7.25609 10.2095 7.24208 10.2305 7.23508 10.2565C7.22808 10.2815 7.2241 10.3075 7.2261 10.3325C7.2271 10.3495 7.24308 10.3615 7.25708 10.3685C7.26708 10.3735 7.27809 10.3765 7.28909 10.3775C7.29809 10.3795 7.30909 10.3795 7.31909 10.3795L7.32309 10.3805C7.34009 10.3815 7.35809 10.3805 7.37509 10.3775C7.38709 10.3755 7.3971 10.3715 7.4071 10.3665C7.4161 10.3635 7.42409 10.3575 7.43109 10.3505C7.45309 10.3265 7.46508 10.2985 7.46808 10.2665C7.46908 10.2555 7.46809 10.2445 7.46609 10.2345C7.46309 10.2305 7.46209 10.2285 7.46109 10.2255Z" fill="#5BB6BA"/>
<path d="M11.7139 15.284C11.7159 15.275 11.7179 15.266 11.7199 15.257C11.8749 14.553 11.3509 13.205 10.4299 13.544C10.1069 13.663 9.87595 13.976 9.80995 14.315C9.68095 14.972 10.147 16.095 10.91 16.154C11.375 16.19 11.6229 15.669 11.7139 15.284Z" fill="#F7967C"/>
<path d="M15.5571 50.0664C15.5331 50.3014 15.4641 50.6484 15.2751 50.8154C15.2651 50.8244 15.2541 50.8324 15.2431 50.8414C15.1621 50.9004 15.0611 50.9414 14.9521 50.9694C14.7931 51.0104 14.6211 51.0244 14.4841 51.0354C13.9341 51.0824 13.3881 51.0064 12.8411 50.9634C11.3311 50.8444 9.81409 50.8894 8.30209 50.9484C6.97609 51.0004 5.6491 51.0644 4.3211 51.0414C3.6621 51.0294 3.00307 50.9974 2.34707 50.9294C2.01907 50.8954 1.69309 50.8534 1.36709 50.8004C1.15109 50.7654 0.820093 50.7484 0.626093 50.6434C0.589093 50.6234 0.556073 50.5964 0.524073 50.5694C0.491073 50.5414 0.457079 50.5144 0.430079 50.4824C0.360079 50.3994 0.327081 50.2914 0.301081 50.1874C0.150081 49.5744 0.163086 48.8934 0.125086 48.2644C0.0970863 47.7994 0.0770738 47.2544 0.231074 46.8094C0.250074 46.7534 0.272071 46.6974 0.278071 46.6394C0.279071 46.6284 0.279078 46.6174 0.279078 46.6064C0.278078 46.5604 0.266079 46.5174 0.249079 46.4744C0.233079 46.4364 0.215084 46.3984 0.198084 46.3614C-0.0559157 45.8074 0.00809116 45.1614 0.00509116 44.5684C0.00209116 43.8834 0.0100943 43.1974 0.0270943 42.5114C0.0390943 42.0084 0.0541007 41.5064 0.0711007 41.0034C0.0831007 40.6724 0.0530767 40.1784 0.309077 39.9294C0.323077 39.9154 0.338092 39.9014 0.350092 39.8864C0.364092 39.8704 0.373093 39.8524 0.376093 39.8324C0.380093 39.8024 0.365076 39.7734 0.352076 39.7444C0.348076 39.7364 0.345097 39.7284 0.342097 39.7214C0.196097 39.3884 0.217097 39.0084 0.230097 38.6444C0.296097 36.8704 0.102071 35.0724 0.459071 33.3334C0.508071 33.0924 0.568094 32.8534 0.639094 32.6174C0.672094 32.5094 0.695096 32.3704 0.747096 32.2714C0.754096 32.2584 0.765094 32.2454 0.777094 32.2314C0.811094 32.1934 0.857076 32.1534 0.865076 32.1144C0.868077 32.1004 0.866086 32.0864 0.862086 32.0724C0.859086 32.0644 0.85709 32.0564 0.85409 32.0484C0.66509 31.5404 0.760096 30.9024 0.816096 30.3754C0.881096 29.7564 0.950097 29.1384 1.0231 28.5204C1.1271 27.6364 1.23909 26.7544 1.39709 25.8784C1.53509 25.1144 1.64107 24.2294 2.12307 23.5914C2.13507 23.5754 2.14608 23.5604 2.15908 23.5454C2.15108 23.5054 2.14608 23.4644 2.14208 23.4244C2.08608 22.8754 2.34409 22.3324 2.59609 21.8344C2.81809 21.3934 3.0641 20.9434 3.3981 20.5774C3.6821 20.2644 3.99409 19.9774 4.32809 19.7174C4.72409 19.4074 5.33407 19.3164 5.59707 18.8674C5.71207 18.6704 5.77109 18.4454 5.82809 18.2244C5.88509 18.0054 5.94107 17.7854 5.99807 17.5664C6.06007 17.3264 6.13008 17.0734 6.31008 16.9044C6.51808 16.7084 6.8351 16.6684 7.1141 16.7294C7.3921 16.7904 7.64208 16.9404 7.88708 17.0874C9.45208 18.0284 11.0171 18.9714 12.5161 20.0134C12.5311 20.0244 12.5461 20.0344 12.5611 20.0454C12.5661 20.0484 12.5701 20.0514 12.5751 20.0544C12.7041 20.1444 12.8431 20.2534 12.8601 20.4094C12.8831 20.6184 12.6841 20.8104 12.6121 20.9944C12.5171 21.2364 12.4501 21.5144 12.4221 21.7734C12.3701 22.2684 12.4481 22.7624 12.5471 23.2464C12.6251 23.6324 12.7141 24.0424 12.6871 24.4394C12.6851 24.4614 12.6831 24.4844 12.6841 24.5064C12.6841 24.5164 12.6851 24.5274 12.6881 24.5384C12.6951 24.5744 12.7141 24.6064 12.7321 24.6394C12.7391 24.6514 12.7461 24.6644 12.7521 24.6764C12.9861 25.1054 13.1251 25.6024 13.2061 26.0804C13.2831 26.5354 13.4121 26.9774 13.4991 27.4354C13.6011 27.9734 13.7031 28.5114 13.8051 29.0494C13.8931 29.5174 13.9591 29.9924 14.0381 30.4584C14.1221 30.9544 14.2831 31.3794 14.2551 31.8964C14.2511 31.9624 14.2411 32.0354 14.2141 32.0964C14.1911 32.1514 14.1551 32.1964 14.0991 32.2184C14.1151 32.2324 14.1301 32.2454 14.1451 32.2594C14.3761 32.4834 14.4691 32.8074 14.5241 33.1164C14.5951 33.5184 14.6621 33.9204 14.7241 34.3254C14.8621 35.2274 14.9881 36.1314 15.0961 37.0364C15.1521 37.4994 15.2161 37.9644 15.2831 38.4214C15.3471 38.8614 15.2261 39.3904 15.1211 39.8164L15.1201 39.8184C15.1071 39.8734 15.1081 39.9284 15.1181 39.9824C15.1551 40.1824 15.3171 40.3794 15.3691 40.5824C15.4391 40.8584 15.4491 41.1454 15.4611 41.4284C15.4831 41.9934 15.5161 42.5594 15.5321 43.1254C15.5641 44.2794 15.7231 45.5644 15.3541 46.6824C15.3441 46.7124 15.3341 46.7434 15.3231 46.7734C15.3171 46.7924 15.3091 46.8114 15.3021 46.8304C15.3001 46.8354 15.2991 46.8404 15.2981 46.8454C15.2841 46.8994 15.3011 46.9634 15.3281 47.0294C15.3731 47.1364 15.4461 47.2484 15.4641 47.3274C15.5291 47.5984 15.5211 47.9174 15.5451 48.1964C15.5961 48.8154 15.6211 49.4434 15.5571 50.0664Z" fill="#F9C06E"/>
<path d="M11.091 46.5809C8.50403 46.5319 5.91702 46.4989 3.33002 46.4829C2.30402 46.4769 1.27602 46.4739 0.249023 46.4729C0.266023 46.5159 0.278022 46.5589 0.279022 46.6049C0.279022 46.6159 0.279015 46.6269 0.278015 46.6379C2.43702 46.6399 4.59503 46.6529 6.75403 46.6779C9.34103 46.7089 11.928 46.7559 14.514 46.8199C14.775 46.8269 15.037 46.8339 15.298 46.8409C15.299 46.8359 15.3 46.8309 15.302 46.8259C15.321 46.7769 15.337 46.7279 15.354 46.6779C13.932 46.6409 12.512 46.6079 11.091 46.5809ZM0.377045 39.8309C0.374045 39.8519 0.365044 39.8689 0.351044 39.8849C2.13904 40.0129 3.93103 40.0909 5.72403 40.0899C7.06803 40.0899 8.40702 40.0279 9.74902 39.9579C11.077 39.8879 12.404 39.8809 13.733 39.9219C14.194 39.9359 14.655 39.9559 15.116 39.9779C15.106 39.9239 15.105 39.8689 15.118 39.8139C13.492 39.7339 11.865 39.6959 10.237 39.7689C8.90803 39.8279 7.58304 39.9109 6.25204 39.9229C4.92304 39.9349 3.59403 39.9029 2.26703 39.8379C1.62503 39.8059 0.983041 39.7669 0.342041 39.7199C0.345041 39.7279 0.34902 39.7359 0.35202 39.7429C0.36602 39.7709 0.381045 39.7999 0.377045 39.8309ZM0.778015 32.2289C2.40501 32.3539 4.03704 32.4129 5.66904 32.4069C6.95404 32.4019 8.23803 32.3479 9.52103 32.3119C10.823 32.2749 12.125 32.2559 13.428 32.2539C13.666 32.2539 13.905 32.2539 14.144 32.2549C14.129 32.2409 14.114 32.2269 14.098 32.2139C14.154 32.1909 14.189 32.1469 14.213 32.0919C12.82 32.0849 11.427 32.0989 10.035 32.1339C8.75003 32.1659 7.46502 32.2229 6.18002 32.2389C4.90002 32.2549 3.61903 32.2299 2.34003 32.1649C1.84803 32.1399 1.35604 32.1089 0.864044 32.0709C0.868044 32.0849 0.870035 32.0989 0.867035 32.1129C0.858035 32.1509 0.812015 32.1909 0.778015 32.2289ZM5.38202 23.9609C7.63202 24.2179 9.88304 24.4709 12.143 24.6319C12.346 24.6459 12.549 24.6599 12.751 24.6729C12.745 24.6609 12.738 24.6479 12.731 24.6359C12.713 24.6039 12.694 24.5709 12.687 24.5349C12.684 24.5239 12.683 24.5129 12.683 24.5029C11.522 24.4269 10.363 24.3269 9.20602 24.2099C6.96002 23.9849 4.71804 23.7159 2.47604 23.4599C2.36504 23.4469 2.25404 23.4349 2.14304 23.4219C2.14704 23.4619 2.15203 23.5029 2.16003 23.5429C2.14803 23.5579 2.13602 23.5729 2.12402 23.5889C3.21002 23.7129 4.29602 23.8369 5.38202 23.9609Z" fill="#B2754B"/>
<path d="M11.7491 22.0277C10.2591 21.5977 8.93706 20.7527 7.62106 19.9577C7.22206 19.7167 6.82307 19.4757 6.42407 19.2337C6.37007 19.2007 6.19305 19.2467 6.28705 19.3037C6.99005 19.7287 7.69206 20.1567 8.39706 20.5777C9.05806 20.9727 9.72906 21.3547 10.4351 21.6657C10.8301 21.8407 11.2361 21.9927 11.6511 22.1127C11.6871 22.1227 11.7561 22.1277 11.7841 22.0947C11.8121 22.0637 11.7831 22.0377 11.7491 22.0277Z" fill="#B2754B"/>
<path d="M15.5569 50.0677C15.5329 50.3027 15.4639 50.6497 15.2749 50.8167C15.2649 50.8257 15.2539 50.8337 15.2429 50.8427C15.1619 50.9017 15.0609 50.9427 14.9519 50.9707C15.0329 48.8387 15.0769 46.7037 15.0479 44.5697C14.9889 40.2897 14.6199 36.0217 13.7339 31.8297C13.2939 29.7477 12.7709 27.6827 12.3919 25.5877C12.0609 23.7657 11.7179 21.7617 12.5169 20.0137C12.5319 20.0247 12.5469 20.0347 12.5619 20.0457C12.5669 20.0487 12.5709 20.0517 12.5759 20.0547C12.7049 20.1447 12.8439 20.2537 12.8609 20.4097C12.8839 20.6187 12.6849 20.8107 12.6129 20.9947C12.5179 21.2367 12.4509 21.5147 12.4229 21.7737C12.3709 22.2687 12.4489 22.7627 12.5479 23.2467C12.6259 23.6327 12.7149 24.0427 12.6879 24.4397C12.6859 24.4617 12.6839 24.4847 12.6849 24.5067C12.6849 24.5167 12.6859 24.5277 12.6889 24.5387C12.6959 24.5747 12.7149 24.6067 12.7329 24.6397C12.7399 24.6517 12.7469 24.6647 12.7529 24.6767C12.9869 25.1057 13.1259 25.6027 13.2069 26.0807C13.2839 26.5357 13.4129 26.9777 13.4999 27.4357C13.6019 27.9737 13.7039 28.5117 13.8059 29.0497C13.8939 29.5177 13.9599 29.9927 14.0389 30.4587C14.1229 30.9547 14.2839 31.3797 14.2559 31.8967C14.2519 31.9627 14.2419 32.0357 14.2149 32.0967C14.1919 32.1517 14.1559 32.1967 14.0999 32.2187C14.1159 32.2327 14.1309 32.2457 14.1459 32.2597C14.3769 32.4837 14.4699 32.8077 14.5249 33.1167C14.5959 33.5187 14.6629 33.9207 14.7249 34.3257C14.8629 35.2277 14.9889 36.1317 15.0969 37.0367C15.1529 37.4997 15.2169 37.9647 15.2839 38.4217C15.3479 38.8617 15.2269 39.3907 15.1219 39.8167L15.1209 39.8187C15.1079 39.8737 15.1089 39.9287 15.1189 39.9827C15.1559 40.1827 15.3179 40.3797 15.3699 40.5827C15.4399 40.8587 15.4499 41.1457 15.4619 41.4287C15.4839 41.9937 15.5169 42.5597 15.5329 43.1257C15.5649 44.2797 15.7239 45.5647 15.3549 46.6827C15.3449 46.7127 15.3349 46.7437 15.3239 46.7737C15.3179 46.7927 15.3099 46.8117 15.3029 46.8307C15.3009 46.8357 15.2999 46.8407 15.2989 46.8457C15.2849 46.8997 15.3019 46.9637 15.3289 47.0297C15.3739 47.1367 15.4469 47.2487 15.4649 47.3277C15.5299 47.5987 15.5219 47.9177 15.5459 48.1967C15.5959 48.8167 15.6209 49.4447 15.5569 50.0677Z" fill="#B2754B"/>
<path d="M25.6003 35.8967C26.1333 35.9937 26.6572 36.1337 27.1542 36.3497C27.3882 36.4517 27.6202 36.5747 27.7872 36.7687C27.9692 36.9797 28.1142 37.2957 27.7662 37.4217C27.6512 37.4637 27.5252 37.4607 27.4032 37.4497C27.2372 37.4347 27.0732 37.4057 26.9122 37.3637C26.9632 37.3777 27.0872 37.7027 27.0942 37.7607C27.1082 37.8807 27.0273 38.0367 26.9463 38.1217C26.7923 38.2797 26.5073 38.2827 26.3513 38.1267C26.4323 38.3337 26.3823 38.5887 26.2203 38.7397C26.0583 38.8907 25.7892 38.9187 25.6062 38.7937C25.7112 38.9477 25.6512 39.1867 25.4862 39.2727C25.2292 39.4067 24.8993 39.2357 24.6683 39.1207C24.4003 38.9887 24.1552 38.8157 23.9212 38.6317C23.6382 38.4097 23.3712 38.1667 23.0802 37.9557C22.8712 37.8047 22.5503 37.7917 22.2983 37.7847C22.1103 37.7797 21.8763 37.7777 21.7953 37.6077C21.7593 37.5317 21.7682 37.4437 21.7792 37.3607C21.8322 36.9777 21.9262 36.6007 22.0592 36.2367C22.1102 36.0987 22.1743 35.9527 22.2993 35.8747C22.3843 35.8217 22.4873 35.8067 22.5863 35.7927C23.0523 35.7277 23.5223 35.6627 23.9913 35.7007C24.5253 35.7447 25.0673 35.7987 25.6003 35.8967Z" fill="#F7967C"/>
<path d="M13.0352 35.7727C12.3982 36.2957 11.8102 36.9166 11.0562 37.2676C10.7172 37.4256 10.5192 37.8297 10.1002 37.7597C10.0482 37.7517 9.99819 37.7377 9.94919 37.7197C9.25919 37.4617 8.7802 36.5866 8.3772 36.0196C7.8732 35.3096 7.4072 34.5736 6.9672 33.8236C6.7102 33.3856 6.43819 32.9457 6.21619 32.4887C6.04719 32.1417 5.86318 31.7137 5.42618 31.6417C5.31518 31.6237 5.2012 31.6376 5.0882 31.6296C4.5022 31.5886 4.13219 30.9886 3.92319 30.4396C3.20619 28.5576 3.2092 26.4867 3.5062 24.5187C3.6862 23.3277 4.23419 22.1027 5.25119 21.4007C6.33919 20.6497 7.61718 20.7667 8.55118 21.7367C9.25518 22.4687 9.61218 23.4577 9.95618 24.4127C10.9462 27.1627 11.9912 29.8927 13.0902 32.6007C13.4112 33.3917 13.9092 34.3307 13.5912 35.1957C13.5032 35.4387 13.2262 35.6157 13.0352 35.7727Z" fill="#3F3768"/>
<path d="M23.5023 35.647C23.5073 35.91 23.4203 36.1661 23.3323 36.4141C23.1393 36.9561 22.9373 37.4941 22.7243 38.0281C22.5603 38.4391 22.4903 38.927 22.0123 39.074C21.7903 39.142 21.5523 39.135 21.3193 39.128C21.2853 39.127 21.2523 39.1261 21.2193 39.1251C17.9903 39.0171 14.7483 38.9051 11.5733 38.3141C10.8693 38.1841 9.96325 37.9321 9.52825 37.3161C9.06925 36.6661 9.19425 35.784 9.59325 35.141C9.98225 34.512 10.6363 34.072 11.3453 33.863C12.1013 33.64 13.0363 33.6581 13.7933 33.8861C14.5933 34.1281 15.4053 34.2591 16.2393 34.3921C17.1863 34.5441 18.1323 34.6961 19.0793 34.8471C19.5803 34.9281 20.0823 35.008 20.5873 35.068C21.2043 35.143 21.8163 35.1911 22.4263 35.2691C22.5493 35.2841 22.6733 35.301 22.7973 35.32C22.9523 35.343 23.1063 35.369 23.2613 35.399C23.3373 35.414 23.4193 35.433 23.4643 35.496C23.4953 35.539 23.5013 35.594 23.5023 35.647Z" fill="#3F3768"/>
<path d="M5.6881 31.4633C5.2301 30.3723 4.80813 29.2663 4.42413 28.1473C4.40313 28.0873 4.21211 28.1003 4.23711 28.1733C4.62111 29.2933 5.04212 30.3993 5.50112 31.4893C5.52712 31.5493 5.7181 31.5333 5.6881 31.4633Z" fill="#1E1B35"/>
<path d="M13.499 33.9728C13.462 33.9528 13.399 33.9508 13.362 33.9728C13.045 34.1578 12.803 34.4588 12.703 34.8128C12.692 34.8528 12.739 34.8688 12.771 34.8738C12.798 34.8778 12.8801 34.8768 12.8901 34.8388C12.9841 34.5088 13.202 34.2158 13.499 34.0428C13.532 34.0228 13.535 33.9918 13.499 33.9728Z" fill="#1E1B35"/>
<path d="M23.5023 35.6475C23.5073 35.9105 23.4202 36.1665 23.3322 36.4145C23.1392 36.9565 22.9372 37.4945 22.7242 38.0285C22.5602 38.4395 22.4902 38.9275 22.0122 39.0745C21.7902 39.1425 21.5522 39.1355 21.3192 39.1285C21.2852 39.1275 21.2522 39.1265 21.2192 39.1255C21.4002 38.3015 21.6412 37.4915 21.9052 36.6905C22.0342 36.2965 22.1553 35.8955 22.3083 35.5095C22.3413 35.4255 22.3802 35.3445 22.4272 35.2695C22.5502 35.2845 22.6742 35.3015 22.7982 35.3205C22.9532 35.3435 23.1072 35.3695 23.2622 35.3995C23.3382 35.4145 23.4202 35.4335 23.4652 35.4965C23.4952 35.5395 23.5013 35.5945 23.5023 35.6475Z" fill="#F9C06E"/>
<path d="M10.9511 40.461C9.66109 42.085 7.75511 43.166 5.69611 43.42C5.59211 43.433 5.4291 43.492 5.4701 43.623C5.5101 43.75 5.7731 43.75 5.8671 43.738C8.1071 43.461 10.1691 42.316 11.5741 40.549C11.7071 40.381 11.0911 40.285 10.9511 40.461Z" fill="#B2754B"/>
</svg>
