<svg width="146" height="133" viewBox="0 0 146 133" fill="none" xmlns="http://www.w3.org/2000/svg">
<path d="M64.3298 98.8709C64.6552 96.781 64.6353 94.6695 64.2322 92.529C63.7459 89.9547 62.3973 87.5195 59.6493 86.941C58.9678 86.7982 58.2699 86.8163 57.5793 86.8416C52.5065 87.0151 47.4464 87.1869 42.4097 87.6479C40.2457 87.8467 38.0836 88.0528 35.9214 88.2571C31.6657 88.6621 27.4101 89.0652 23.149 89.4051C19.6671 89.6817 16.0333 90.2855 12.9238 92.0644C11.8662 92.67 10.203 93.5649 9.47442 94.6369C8.45118 96.1429 8.54159 99.0282 8.67356 100.811C8.74406 101.753 8.89591 102.709 9.29545 103.555C10.0638 105.184 11.6619 106.196 13.2926 106.592C14.9233 106.988 16.6082 106.854 18.266 106.731C30.7997 105.797 43.3877 105.563 55.9649 106.028C56.8508 106.061 57.7257 105.99 58.6025 105.869C59.8355 105.699 60.9672 105.817 61.9814 104.929C62.8781 104.143 63.2903 102.955 63.6428 101.816C63.9465 100.84 64.1762 99.8579 64.3298 98.8709Z" fill="#668384"/>
<path d="M52.8085 132.659C51.9697 132.979 51.1235 133.019 50.2322 132.994L47.1191 132.911C46.2767 132.661 45.427 132.3 44.5339 132.307C43.9319 132.31 43.424 132.598 42.8943 132.799L39.8752 132.717C39.4829 132.607 39.105 132.461 38.7652 132.265C38.6458 132.198 38.5283 132.119 38.4668 132.003C38.4126 131.9 38.4089 131.784 38.4107 131.672C38.4162 131.336 38.4704 131.007 38.55 130.682C38.7561 129.848 39.1231 129.042 39.2262 128.185C39.2406 128.069 39.2533 127.954 39.2605 127.838C39.3165 127.1 39.2876 126.339 39.3762 125.598C39.3907 125.493 39.4087 125.381 39.4865 125.307C39.5389 125.258 39.6112 125.231 39.6817 125.207C41.0737 124.725 42.455 124.465 43.9012 124.443C44.3225 124.436 44.7455 124.448 45.1793 124.483C45.2535 124.119 45.3601 123.765 45.4957 123.418C45.5355 123.322 45.5789 123.219 45.6711 123.163C45.7507 123.114 45.8537 123.107 45.9495 123.118C46.6546 123.203 46.81 123.862 46.8878 124.39C46.998 125.132 47.1861 125.856 47.4609 126.558C47.7917 127.408 48.7661 127.988 49.5182 128.512C50.3498 129.089 51.2609 129.586 52.2787 129.805C52.6186 129.877 52.973 129.922 53.2785 130.081C53.604 130.251 53.8082 130.466 53.9167 130.7C54.2601 131.425 53.6582 132.336 52.8085 132.659Z" fill="#184249"/>
<path d="M52.8085 132.657C51.9697 132.977 51.1235 133.017 50.2322 132.992L47.1191 132.909C46.2767 132.659 45.427 132.298 44.5339 132.305C43.9319 132.309 43.424 132.596 42.8943 132.797L39.8752 132.715C39.4829 132.605 39.105 132.459 38.7652 132.263C38.6458 132.196 38.5283 132.117 38.4668 132.001C38.4126 131.898 38.4089 131.782 38.4107 131.67C38.4162 131.334 38.4704 131.005 38.55 130.68C38.6964 130.765 38.8501 130.866 39.0056 130.945C40.2042 131.566 41.636 131.788 42.9792 131.531C43.386 131.453 43.7855 131.334 44.1977 131.3C44.8648 131.246 45.5247 131.412 46.1846 131.538C47.4989 131.79 48.8474 131.873 50.1852 131.79C50.9319 131.743 51.6876 131.64 52.3656 131.349C52.8844 131.128 53.3635 130.797 53.9203 130.698C54.2602 131.423 53.6582 132.334 52.8085 132.657Z" fill="#1E1B35"/>
<path d="M47.3213 125.709C47.0989 125.658 46.8784 125.608 46.656 125.557C46.8585 125.467 47.0501 125.36 47.2417 125.252C47.2923 125.223 47.2996 125.181 47.2436 125.15C47.1894 125.121 47.0862 125.114 47.0302 125.145C46.8096 125.268 46.5891 125.391 46.3541 125.488L45.4863 125.291C45.4754 125.29 45.4628 125.288 45.4483 125.288C45.4176 125.284 45.387 125.284 45.3598 125.29C45.3201 125.297 45.2749 125.311 45.2658 125.353C45.2152 125.557 45.3345 125.769 45.5225 125.875C45.5514 125.892 45.5948 125.899 45.6292 125.899C45.6635 125.899 45.705 125.895 45.7358 125.881L45.7376 125.879C45.8371 125.868 45.9328 125.834 46.0269 125.79C46.1498 125.734 46.28 125.698 46.4065 125.655C46.6831 125.718 46.9597 125.781 47.2363 125.843C47.2869 125.855 47.3954 125.85 47.4226 125.798C47.4533 125.743 47.361 125.718 47.3213 125.709ZM45.9744 125.622C45.9166 125.642 45.8606 125.666 45.8045 125.691C45.7937 125.696 45.7828 125.702 45.772 125.705C45.7756 125.635 45.7557 125.562 45.7195 125.499C45.8425 125.528 45.9654 125.555 46.0902 125.584C46.0504 125.597 46.0124 125.608 45.9744 125.622Z" fill="#1E1B35"/>
<path d="M48.4242 127.604C48.1223 127.606 47.8186 127.611 47.5167 127.579C47.4462 127.572 47.3756 127.561 47.307 127.548C47.3323 127.526 47.3558 127.503 47.3811 127.481C47.4661 127.405 47.5492 127.328 47.6323 127.252C47.7029 127.187 47.7734 127.118 47.8458 127.055C47.8801 127.049 47.9108 127.035 47.9271 127.009C47.9885 126.921 47.7861 126.894 47.7373 126.899C47.6523 126.908 47.6071 126.955 47.5493 127.008C47.4426 127.105 47.3377 127.203 47.231 127.299C47.1641 127.36 47.0972 127.422 47.0303 127.483C46.8947 127.445 46.7628 127.4 46.629 127.346C46.6236 127.344 46.6163 127.342 46.6109 127.34C46.6055 127.338 46.6019 127.337 46.5965 127.335C46.5874 127.331 46.5766 127.329 46.5658 127.328C46.4899 127.308 46.4067 127.308 46.3362 127.338C46.3181 127.346 46.3 127.357 46.2855 127.371C46.2819 127.375 46.2801 127.378 46.2765 127.382C46.2692 127.384 46.262 127.385 46.2566 127.387C46.2385 127.396 46.2059 127.414 46.2114 127.438C46.2132 127.449 46.2186 127.458 46.2204 127.469C46.2114 127.481 46.206 127.496 46.2024 127.512C46.1952 127.55 46.215 127.588 46.2422 127.615C46.2566 127.629 46.2728 127.64 46.2909 127.648C46.3632 127.776 46.4717 127.886 46.6109 127.958C46.6163 127.96 46.6218 127.962 46.6272 127.964C46.6345 127.968 46.6435 127.973 46.6525 127.975C46.7086 127.993 46.8116 127.998 46.8604 127.955C46.9634 127.861 47.0665 127.767 47.1696 127.673C47.2437 127.687 47.3196 127.702 47.3973 127.711C47.7372 127.751 48.0771 127.751 48.4188 127.747C48.464 127.747 48.5707 127.74 48.5725 127.68C48.5743 127.622 48.4657 127.602 48.4242 127.604Z" fill="#1E1B35"/>
<path d="M49.8851 128.631C49.6103 128.613 49.3337 128.615 49.0571 128.633C49.1367 128.492 49.2144 128.351 49.2867 128.206C49.3355 128.109 49.0408 128.074 48.9974 128.161C48.9124 128.331 48.8203 128.499 48.7263 128.665C48.6721 128.673 48.6196 128.674 48.5653 128.683C48.4333 128.703 48.2996 128.723 48.1821 128.785C48.1767 128.788 48.1749 128.79 48.1713 128.794C48.1478 128.801 48.126 128.812 48.117 128.83L48.1152 128.837C48.108 128.841 48.099 128.843 48.0917 128.848C48.0755 128.862 48.0646 128.881 48.0754 128.902C48.1097 128.971 48.1604 129.036 48.2201 129.087C48.2761 129.135 48.343 129.172 48.4135 129.202C48.4352 129.266 48.6612 129.287 48.7082 129.215C48.8004 129.074 48.8872 128.929 48.9721 128.785C49.0155 128.781 49.0607 128.774 49.1041 128.772C49.3626 128.754 49.6229 128.756 49.8832 128.774C49.9284 128.776 50.0334 128.763 50.0352 128.707C50.037 128.647 49.9267 128.635 49.8851 128.631Z" fill="#1E1B35"/>
<path d="M51.2809 129.267C51.2158 129.233 51.1345 129.238 51.0676 129.262C50.9863 129.289 50.9049 129.32 50.8272 129.354V129.352C50.8109 129.276 50.7766 129.202 50.7856 129.123C50.791 129.065 50.6789 129.047 50.6373 129.047C50.5903 129.047 50.4909 129.054 50.4855 129.114C50.4782 129.188 50.5072 129.257 50.5234 129.327C50.5361 129.38 50.5415 129.432 50.5469 129.486C50.4023 129.562 50.2631 129.643 50.1312 129.736H50.1258H50.1185C50.1112 129.736 50.1022 129.736 50.095 129.736C50.0642 129.739 50.0263 129.746 50.0046 129.766L49.9884 129.783C49.9811 129.795 49.9811 129.808 49.9865 129.821C49.9883 129.824 49.9901 129.83 49.9901 129.83V129.833C49.9901 129.86 50.001 129.889 50.0191 129.911C50.0281 129.922 50.0408 129.927 50.0498 129.936C50.086 129.978 50.1293 130.014 50.1799 130.039C50.3047 130.106 50.4602 130.123 50.5976 130.09C50.612 130.086 50.6265 130.081 50.6392 130.074C50.6898 130.072 50.7476 130.063 50.7621 130.027C50.8218 129.88 50.8543 129.727 50.8525 129.571C50.8525 129.562 50.8506 129.553 50.8488 129.544C50.988 129.475 51.1309 129.416 51.2792 129.367C51.337 129.349 51.3279 129.293 51.2809 129.267Z" fill="#1E1B35"/>
<path d="M54.6432 96.2507C54.1731 96.5996 53.7285 97.0009 53.3127 97.4402C51.9622 98.8666 50.9986 100.608 50.0748 102.339C46.2584 109.495 42.8525 116.871 39.8822 124.417C39.065 126.494 39.8949 126.416 41.7353 126.729C43.4889 127.027 45.2442 127.325 46.9978 127.624C47.4317 127.698 47.8349 127.72 48.2724 127.7C48.5182 127.689 48.5165 127.87 48.7551 127.768C48.8907 127.711 49.0895 127.335 49.1853 127.212C49.7783 126.441 50.364 125.666 50.9335 124.878C52.1014 123.263 53.2169 121.611 54.3052 119.94C56.4818 116.6 58.5446 113.186 60.6905 109.826C61.7824 108.117 62.8815 106.391 63.5595 104.48C64.194 102.694 64.5828 100.326 63.8018 98.5123C63.151 97.0009 61.4317 95.7788 59.9276 95.2437C57.995 94.5531 56.1817 95.1117 54.6432 96.2507Z" fill="#668384"/>
<path d="M58.1452 98.6851C58.2211 98.3163 58.288 97.9439 58.3531 97.5751C58.7743 95.196 59.0979 92.6813 58.2519 90.4197C57.5757 88.6137 55.748 87.2831 53.8841 86.8927C53.2025 86.7498 52.5047 86.7679 51.8141 86.7914C46.7413 86.965 41.6811 87.1367 36.6445 87.5977C34.4805 87.7966 32.3183 88.0027 30.1562 88.2088C25.9005 88.6137 21.6448 89.0169 17.3837 89.3567C13.9018 89.6351 10.2681 90.2371 7.15863 92.0179C6.3451 92.4843 5.46825 92.9254 4.75234 93.5364C3.97136 94.2017 3.89906 94.8435 3.75805 95.883C3.46337 98.0651 3.62607 100.309 4.24797 102.422C4.67824 103.881 5.48815 105.678 6.91273 106.424C8.42047 107.214 10.8502 106.808 12.5026 106.685C25.0364 105.75 37.6244 105.515 50.2015 105.982C53.2224 106.094 55.8366 104.696 57.1563 101.892C57.6336 100.876 57.9228 99.7879 58.1452 98.6851Z" fill="#668384"/>
<path d="M46.5025 132.659C45.6636 132.979 44.8176 133.019 43.9263 132.994L40.8132 132.911C39.9708 132.661 39.1211 132.3 38.228 132.307C37.626 132.31 37.1179 132.598 36.5882 132.799L33.5692 132.717C33.1769 132.607 32.7973 132.461 32.4592 132.265C32.3399 132.198 32.2224 132.119 32.1609 132.003C32.1067 131.9 32.103 131.784 32.1048 131.672C32.1103 131.336 32.1645 131.007 32.244 130.682C32.4501 129.848 32.8172 129.042 32.9202 128.185C32.9347 128.069 32.9455 127.954 32.9563 127.838C33.0124 127.1 32.9816 126.339 33.072 125.598C33.0865 125.493 33.1046 125.381 33.1823 125.307C33.2347 125.258 33.3071 125.231 33.3776 125.207C34.7696 124.725 36.1508 124.465 37.5971 124.443C38.0183 124.436 38.4413 124.448 38.8752 124.483C38.9493 124.119 39.056 123.765 39.1915 123.418C39.2313 123.322 39.2748 123.219 39.367 123.163C39.4465 123.114 39.5496 123.107 39.6454 123.118C40.3504 123.203 40.5058 123.862 40.5854 124.39C40.6957 125.132 40.8837 125.856 41.1585 126.558C41.4893 127.408 42.4638 127.988 43.2158 128.512C44.0474 129.089 44.9587 129.586 45.9765 129.805C46.3163 129.877 46.6706 129.922 46.9762 130.081C47.3016 130.251 47.5058 130.466 47.6143 130.7C47.9523 131.425 47.3522 132.336 46.5025 132.659Z" fill="#184249"/>
<path d="M46.5025 132.657C45.6636 132.977 44.8176 133.017 43.9263 132.992L40.8132 132.909C39.9708 132.659 39.1211 132.298 38.228 132.305C37.626 132.309 37.1179 132.596 36.5882 132.797L33.5692 132.715C33.1769 132.605 32.7973 132.459 32.4592 132.263C32.3399 132.196 32.2224 132.117 32.1609 132.001C32.1067 131.898 32.103 131.782 32.1048 131.67C32.1103 131.334 32.1645 131.005 32.244 130.68C32.3905 130.765 32.5442 130.866 32.6996 130.945C33.8982 131.566 35.3318 131.788 36.6732 131.531C37.08 131.453 37.4777 131.334 37.8917 131.3C38.5588 131.246 39.2187 131.412 39.8785 131.538C41.1928 131.79 42.5415 131.873 43.8793 131.79C44.626 131.743 45.3816 131.64 46.0596 131.349C46.5784 131.128 47.0575 130.797 47.6143 130.698C47.9523 131.423 47.3522 132.334 46.5025 132.657Z" fill="#1E1B35"/>
<path d="M41.0139 125.709C40.7933 125.658 40.571 125.608 40.3486 125.557C40.5511 125.467 40.7428 125.36 40.9345 125.252C40.9851 125.223 40.9923 125.181 40.9362 125.15C40.882 125.121 40.779 125.114 40.7229 125.145C40.5024 125.268 40.2818 125.391 40.0468 125.488L39.179 125.291C39.1682 125.29 39.1555 125.288 39.1411 125.288C39.1103 125.284 39.0796 125.284 39.0525 125.29C39.0127 125.297 38.9675 125.311 38.9584 125.353C38.9078 125.557 39.0271 125.769 39.2151 125.875C39.244 125.892 39.2875 125.899 39.3218 125.899C39.3543 125.899 39.3978 125.895 39.4285 125.881L39.4303 125.879C39.5297 125.868 39.6256 125.834 39.7196 125.79C39.8425 125.734 39.9727 125.698 40.101 125.655C40.3776 125.718 40.6542 125.781 40.9308 125.843C40.9814 125.855 41.0898 125.85 41.117 125.798C41.1477 125.743 41.0537 125.718 41.0139 125.709ZM39.6689 125.622C39.6111 125.642 39.5551 125.666 39.499 125.691C39.4882 125.696 39.4773 125.702 39.4665 125.705C39.4701 125.635 39.4502 125.562 39.4158 125.499C39.5387 125.528 39.6617 125.555 39.7865 125.584C39.7449 125.597 39.7069 125.608 39.6689 125.622Z" fill="#1E1B35"/>
<path d="M42.1186 127.604C41.8167 127.606 41.5129 127.611 41.211 127.579C41.1405 127.572 41.0701 127.561 41.0014 127.548C41.0267 127.526 41.0502 127.503 41.0755 127.481C41.1605 127.405 41.2436 127.328 41.3268 127.252C41.3973 127.187 41.4677 127.118 41.54 127.055C41.5744 127.049 41.6051 127.035 41.6214 127.009C41.6828 126.921 41.4805 126.894 41.4335 126.899C41.3485 126.908 41.3033 126.955 41.2454 127.008C41.1388 127.105 41.0339 127.203 40.9272 127.299C40.8603 127.36 40.7934 127.422 40.7265 127.483C40.5909 127.445 40.459 127.4 40.3252 127.346C40.3198 127.344 40.3125 127.342 40.3071 127.34C40.3017 127.338 40.2981 127.337 40.2926 127.335C40.2836 127.331 40.2728 127.329 40.2637 127.328C40.1878 127.308 40.1046 127.308 40.0341 127.338C40.016 127.346 39.998 127.357 39.9836 127.371C39.9799 127.375 39.9781 127.378 39.9745 127.382C39.9673 127.384 39.96 127.385 39.9545 127.387C39.9365 127.396 39.904 127.414 39.9094 127.438C39.9112 127.449 39.9166 127.458 39.9202 127.469C39.9112 127.481 39.9057 127.496 39.9021 127.512C39.8949 127.55 39.9148 127.588 39.942 127.615C39.9564 127.629 39.9727 127.64 39.9907 127.648C40.063 127.776 40.1715 127.886 40.3107 127.958C40.3161 127.96 40.3216 127.962 40.3271 127.964C40.3343 127.968 40.3433 127.973 40.3523 127.975C40.4084 127.993 40.5114 127.998 40.5602 127.955C40.6633 127.861 40.7663 127.767 40.8694 127.673C40.9435 127.687 41.0194 127.702 41.0971 127.711C41.437 127.751 41.7787 127.751 42.1186 127.747C42.1638 127.747 42.2705 127.74 42.2723 127.68C42.2687 127.622 42.1601 127.602 42.1186 127.604Z" fill="#1E1B35"/>
<path d="M43.5792 128.631C43.3044 128.613 43.0278 128.615 42.7512 128.633C42.8307 128.492 42.9085 128.351 42.9808 128.206C43.0296 128.109 42.735 128.074 42.6916 128.161C42.6066 128.331 42.5144 128.499 42.4186 128.665C42.3662 128.673 42.312 128.674 42.2577 128.683C42.1257 128.703 41.9919 128.723 41.8744 128.785C41.869 128.788 41.8672 128.79 41.8636 128.794C41.8401 128.801 41.8183 128.812 41.8093 128.83L41.8075 128.837C41.8003 128.841 41.7913 128.843 41.784 128.848C41.7678 128.862 41.757 128.881 41.7678 128.902C41.8022 128.971 41.8527 129.036 41.9124 129.087C41.9684 129.135 42.0353 129.172 42.1058 129.202C42.1293 129.266 42.3535 129.287 42.4005 129.215C42.4927 129.074 42.5795 128.929 42.6644 128.785C42.7078 128.781 42.753 128.774 42.7964 128.772C43.0549 128.754 43.3153 128.756 43.5756 128.774C43.6208 128.776 43.7257 128.763 43.7275 128.707C43.7311 128.647 43.619 128.635 43.5792 128.631Z" fill="#1E1B35"/>
<path d="M44.9733 129.267C44.9082 129.233 44.8269 129.238 44.76 129.262C44.6787 129.289 44.5973 129.32 44.5196 129.354V129.352C44.5033 129.276 44.4689 129.202 44.478 129.123C44.4834 129.065 44.3714 129.047 44.3298 129.047C44.2828 129.047 44.1833 129.054 44.1779 129.114C44.1706 129.188 44.1996 129.257 44.2159 129.327C44.2286 129.38 44.2358 129.432 44.2394 129.486C44.0948 129.562 43.9555 129.643 43.8235 129.736H43.8181H43.811C43.8037 129.736 43.7947 129.736 43.7875 129.736C43.7567 129.739 43.7187 129.746 43.697 129.766L43.6808 129.783C43.6735 129.795 43.6735 129.808 43.6789 129.821C43.6807 129.824 43.6825 129.83 43.6825 129.83V129.833C43.6825 129.86 43.6934 129.889 43.7114 129.911C43.7205 129.922 43.7332 129.927 43.7422 129.936C43.7784 129.978 43.8218 130.014 43.8724 130.039C43.9972 130.106 44.1526 130.123 44.29 130.09C44.3044 130.086 44.3189 130.081 44.3298 130.074C44.3804 130.072 44.4383 130.063 44.4527 130.027C44.5124 129.88 44.5449 129.727 44.5431 129.571C44.5431 129.562 44.5412 129.553 44.5394 129.544C44.6768 129.475 44.8215 129.416 44.9698 129.367C45.0312 129.349 45.0221 129.293 44.9733 129.267Z" fill="#1E1B35"/>
<path d="M48.3376 96.2507C47.8675 96.5996 47.4228 97.0009 47.007 97.4402C45.6565 98.8666 44.693 100.608 43.7692 102.339C39.9528 109.495 36.5486 116.871 33.5765 124.417C32.7594 126.494 33.5892 126.416 35.4296 126.729C37.185 127.027 38.9386 127.325 40.6922 127.624C41.1894 127.709 41.7118 127.792 42.1909 127.633C42.9899 127.367 43.2847 126.21 43.677 125.568C44.326 124.509 44.975 123.449 45.6023 122.368C47.0612 119.859 48.616 117.404 50.2612 115.012C52.9512 111.1 55.9178 107.287 57.581 102.84C58.1559 101.302 58.3404 99.8663 57.4654 98.4183C56.5904 96.9702 55.22 95.8132 53.6219 95.2437C51.6893 94.5531 49.8761 95.1117 48.3376 96.2507Z" fill="#668384"/>
<path d="M58.8846 93.4527C58.8015 92.2866 58.6081 91.1007 58.1398 90.0232C57.7385 89.103 57.113 88.2226 56.1928 87.767C55.9741 87.6586 55.7408 87.5772 55.5022 87.523C55.4371 87.5085 55.3106 87.4922 55.2618 87.5555C55.2184 87.6134 55.2563 87.6622 55.325 87.6785C56.3392 87.9135 57.075 88.6854 57.5595 89.5749C58.1073 90.5836 58.3513 91.7171 58.4797 92.8489C58.7816 95.5299 58.3423 98.2506 57.489 100.796C56.6285 103.361 55.3377 105.759 53.9167 108.053C52.456 110.41 50.8651 112.684 49.3393 114.998C47.7393 117.426 46.1682 119.876 44.6298 122.344C44.4381 122.651 44.2466 122.958 44.0568 123.266C43.9899 123.372 44.3298 123.416 44.3949 123.313C45.9514 120.802 47.5405 118.309 49.1603 115.835C50.7132 113.464 52.3349 111.133 53.8552 108.74C55.3323 106.413 56.6971 103.992 57.6372 101.394C58.5484 98.8617 59.0781 96.1499 58.8846 93.4527Z" fill="#184249"/>
<path d="M51.3768 70.0599C51.3406 70.0599 51.3046 70.0491 51.2738 70.0274C51.1961 69.9713 51.178 69.861 51.234 69.7833C51.3425 69.6314 62.3523 54.4565 79.3044 38.5386C89.262 29.1867 99.2937 21.413 109.118 15.4291C121.405 7.94468 133.406 3.25698 144.783 1.49615C144.879 1.48169 144.967 1.54676 144.983 1.64257C144.998 1.73839 144.933 1.82699 144.837 1.84326C119.167 5.81506 95.1646 24.1284 79.5484 38.7917C62.6198 54.6879 51.6263 69.8394 51.5178 69.9912C51.4835 70.0346 51.431 70.0599 51.3768 70.0599Z" fill="#4295A3"/>
<path d="M106.772 19.6862C106.378 19.6862 105.885 19.5325 105.4 19.2505C104.576 18.7696 103.878 17.9688 104.14 17.3668C104.216 17.1932 104.361 17.0667 104.561 17.0016C104.981 16.8642 105.641 17.0124 106.286 17.3867C107.111 17.8675 107.808 18.6684 107.546 19.2704C107.47 19.444 107.326 19.5705 107.125 19.6356C107.02 19.6682 106.901 19.6862 106.772 19.6862ZM104.916 17.5313C104.847 17.5313 104.787 17.5385 104.742 17.5548C104.717 17.5638 104.684 17.5783 104.675 17.5982C104.618 17.7302 104.896 18.2797 105.695 18.7443C106.257 19.0715 106.736 19.1475 106.942 19.0788C106.968 19.0698 107.002 19.0553 107.011 19.0354C107.069 18.9034 106.791 18.3538 105.991 17.8874C105.55 17.6343 105.162 17.5313 104.916 17.5313Z" fill="#B2754B"/>
<path d="M125.524 9.30105C125.15 9.30105 124.681 9.15643 124.222 8.88887C123.439 8.4333 122.778 7.67037 123.029 7.09368C123.101 6.92555 123.242 6.80262 123.436 6.73934C123.835 6.60918 124.463 6.7484 125.072 7.10455C125.855 7.56012 126.516 8.32302 126.265 8.89971C126.193 9.06784 126.052 9.19077 125.858 9.25405C125.761 9.28659 125.647 9.30105 125.524 9.30105ZM123.777 7.27447C123.714 7.27447 123.66 7.2817 123.618 7.29436C123.597 7.30159 123.57 7.31426 123.564 7.32691C123.514 7.44442 123.785 7.95964 124.515 8.38448C125.039 8.69 125.484 8.7605 125.676 8.69903C125.697 8.6918 125.725 8.67916 125.73 8.66651C125.781 8.55081 125.509 8.03375 124.777 7.60891C124.369 7.37028 124.005 7.27447 123.777 7.27447Z" fill="#B2754B"/>
<path d="M145.156 2.34571C144.853 2.34571 144.484 2.23002 144.111 2.01308C143.475 1.64248 142.94 1.01335 143.151 0.528855C143.217 0.380613 143.34 0.272135 143.508 0.216092C143.842 0.105815 144.339 0.214276 144.84 0.507145C145.476 0.87775 146.01 1.50687 145.8 1.99137C145.735 2.13961 145.612 2.24809 145.444 2.30413C145.357 2.33125 145.261 2.34571 145.156 2.34571ZM143.687 0.771109C143.692 0.866924 143.896 1.2122 144.404 1.50868C144.847 1.7672 145.176 1.78347 145.265 1.74912C145.259 1.6533 145.055 1.30803 144.547 1.01154C144.104 0.753022 143.775 0.734952 143.687 0.771109Z" fill="#B2754B"/>
<path d="M89.9274 32.7599C89.4791 32.7599 88.9114 32.5828 88.3546 32.2592C87.4127 31.7114 86.6118 30.8021 86.9065 30.1241C86.9896 29.9343 87.1487 29.7969 87.3675 29.7246C87.843 29.5691 88.5968 29.739 89.3362 30.1693C90.2781 30.7171 91.079 31.6264 90.7843 32.3026C90.7012 32.4924 90.5421 32.6298 90.3233 32.7021C90.2058 32.7419 90.0739 32.7599 89.9274 32.7599ZM87.7634 30.2507C87.6784 30.2507 87.6061 30.2597 87.5501 30.2796C87.4633 30.3085 87.4471 30.3447 87.4416 30.3573C87.3458 30.5779 87.7779 31.2486 88.6475 31.7548C89.3145 32.1435 89.8894 32.232 90.1407 32.1489C90.2275 32.12 90.2438 32.0838 90.2492 32.0711C90.345 31.8506 89.9129 31.1799 89.0434 30.6737C88.5245 30.3718 88.0617 30.2507 87.7634 30.2507Z" fill="#B2754B"/>
<path d="M73.4652 48.8724C73.0024 48.8724 72.4185 48.6898 71.8436 48.3553C70.8963 47.8039 70.0502 46.8476 70.3503 46.1606C70.4335 45.9672 70.598 45.8262 70.8222 45.7521C71.3121 45.5912 72.0895 45.7665 72.8506 46.2112C73.7979 46.7626 74.6439 47.719 74.3438 48.406C74.2607 48.5994 74.0962 48.7404 73.872 48.8145C73.7509 48.8543 73.6152 48.8724 73.4652 48.8724ZM71.2252 46.2781C71.1348 46.2781 71.0608 46.289 71.0011 46.3071C70.9071 46.3378 70.889 46.3794 70.8836 46.392C70.7824 46.6234 71.2307 47.3231 72.1364 47.851C72.8288 48.2541 73.4273 48.3463 73.6894 48.2595C73.7834 48.2288 73.8015 48.1872 73.8069 48.1727C73.9081 47.9413 73.4598 47.2417 72.5541 46.7138C72.0172 46.4029 71.5362 46.2781 71.2252 46.2781Z" fill="#B2754B"/>
<path d="M41.6417 82.7678C41.394 82.7678 41.1879 82.5726 41.1753 82.3231C41.168 82.1658 41.1661 82.1243 41.7573 81.1788C42.0357 80.7359 42.5239 79.9711 43.2759 78.8485C44.4456 77.1021 46.4126 74.2566 49.1316 70.612C53.7343 64.4401 61.2404 55.0014 70.8564 45.0836C81.5552 34.0468 92.5504 24.7727 103.535 17.5233C117.251 8.46966 130.971 2.57612 144.311 0.00900408C144.564 -0.0416152 144.81 0.126516 144.859 0.379613C144.907 0.632709 144.741 0.878577 144.488 0.925581C114.711 6.6564 88.6546 28.1696 72.0369 45.2084C53.9856 63.7187 42.6576 81.2764 42.0863 82.446C42.0267 82.625 41.864 82.757 41.6652 82.766C41.6579 82.7678 41.6489 82.7678 41.6417 82.7678Z" fill="#B2754B"/>
<path d="M51.6786 76.6859L51.2772 76.2954C50.8433 75.8723 50.7873 75.1203 51.1525 74.6159L52.5102 72.743C52.8753 72.2386 53.5244 72.1717 53.96 72.5947L54.3614 72.9852C54.7952 73.4083 54.8513 74.1603 54.4862 74.6647L53.1285 76.5376C52.7615 77.042 52.1125 77.1089 51.6786 76.6859Z" fill="#404882"/>
<path d="M54.3491 73.3653L53.814 72.8447C53.4162 72.4578 53.3656 71.769 53.7001 71.308C54.0345 70.847 54.6275 70.7855 55.0252 71.1724L55.5603 71.6931C55.9581 72.0799 56.0087 72.7669 55.6742 73.2297C55.3398 73.6907 54.7468 73.7522 54.3491 73.3653Z" fill="#404882"/>
<path d="M51.4236 75.8665C50.2124 74.1708 49.5326 71.9815 49.5254 69.7796C49.5236 69.4705 49.746 69.2228 50.0136 69.239C50.2594 69.2553 50.4474 69.4904 50.4474 69.776C50.4547 71.7321 51.0584 73.6773 52.1341 75.1832L51.4236 75.8665Z" fill="#404882"/>
<path d="M53.8805 79.4539C53.7739 79.4611 53.6654 79.4267 53.575 79.3454C53.067 78.897 52.7435 78.145 52.6386 77.1742C52.6025 76.8397 52.5916 76.5071 52.5826 76.1871C52.5699 75.8183 52.5591 75.4676 52.5121 75.1295C52.4705 74.8385 52.6422 74.5637 52.8935 74.5167C53.1448 74.4697 53.3816 74.6667 53.4214 74.9578C53.4774 75.3609 53.4901 75.7605 53.5027 76.1455C53.5118 76.4583 53.5226 76.7512 53.5534 77.0404C53.604 77.5159 53.7468 78.1522 54.1337 78.4957C54.3361 78.6747 54.3742 79.0091 54.2205 79.2442C54.1355 79.3725 54.0107 79.4448 53.8805 79.4539Z" fill="#1E1B35"/>
<path d="M41.231 82.8761L40.649 82.3103C40.2133 81.8873 40.1572 81.1334 40.5242 80.6272L49.3374 68.4623C49.7044 67.9561 50.3535 67.8911 50.7892 68.3141L51.3695 68.8799C51.8051 69.3029 51.8612 70.0568 51.496 70.563L42.6828 82.7279C42.3176 83.2323 41.6667 83.2992 41.231 82.8761Z" fill="#B2754B"/>
<path d="M14.4756 49.0442C14.6003 49.5378 14.9528 49.9988 15.2638 50.3604C16.0665 51.2914 17.0156 52.0922 18.0641 52.7304C18.9156 53.2493 20.4722 54.2472 21.5117 53.9308C22.808 53.5385 22.7971 51.6041 23.3105 50.608C23.5166 50.2067 23.748 49.8162 24.0174 49.4474C24.2271 49.1563 24.4621 48.8761 24.6755 48.5851C24.9846 48.1656 25.2521 47.73 25.3516 47.2274C25.4835 46.5495 25.2756 45.8643 25.0207 45.2315C24.7965 44.6765 24.6284 44.0908 24.3627 43.5502C23.8113 42.4366 22.8839 41.511 21.8625 40.7789C20.6187 39.8804 18.9572 39.8008 18.4149 41.3664C17.6917 43.4526 16.6215 45.4232 15.2566 47.1804C14.9293 47.6034 14.4394 48.1006 14.4286 48.6556C14.4268 48.7875 14.4431 48.9177 14.4756 49.0442Z" fill="#F7967C"/>
<path d="M22.0629 49.1571C22.372 49.6904 22.8746 50.155 23.3103 50.6124C23.5164 50.211 23.7478 49.8205 24.0172 49.4517C24.2269 49.1607 24.4619 48.8805 24.6752 48.5894C24.7132 48.4791 24.753 48.3707 24.7909 48.2604C24.9771 47.7253 25.1543 47.1757 25.2483 46.6171C25.1615 46.5664 25.0766 46.514 24.9916 46.4616C24.1292 45.9265 23.0138 45.0117 21.958 45.6535C20.7992 46.3622 21.5422 48.2568 22.0629 49.1571Z" fill="#DB6357"/>
<path d="M28.6112 35.2982C28.622 35.3254 28.6328 35.3543 28.6437 35.3814C28.7287 35.6001 28.7052 35.9183 28.754 36.1624C28.8154 36.4625 28.8552 36.7662 28.8552 37.0735C28.8552 37.6321 28.4719 38.1347 28.4719 38.6915C28.4719 38.9446 28.6112 39.1616 28.7106 39.3894C28.8299 39.6569 28.9601 39.9227 29.1011 40.1812C29.3868 40.7091 29.7122 41.2171 30.0755 41.698C30.3286 42.0324 30.6125 42.394 30.5871 42.8098C30.5456 43.4841 29.8279 43.6631 29.3036 43.8565C28.7414 44.0644 28.604 44.8074 28.5316 45.3154C28.4304 46.0096 28.4485 46.7002 28.3183 47.3962C28.1574 48.2567 27.7723 48.9835 26.8196 49.0667C25.4727 49.1824 24.106 48.8751 22.902 48.2767C21.9601 47.8084 21.1141 47.1666 20.3801 46.4236C19.7473 45.7836 18.8 45.2666 18.4041 44.435C17.9919 43.5691 17.1657 43.6902 16.3883 43.24C16.0774 43.061 15.8659 42.7935 15.5911 42.5766C15.3434 42.3831 15.2241 42.1843 15.112 41.8842C14.8445 41.1592 14.5443 40.3493 14.4612 39.581C14.3744 38.7693 14.3346 37.9648 14.4015 37.1494C14.4991 35.9744 15.206 34.8083 15.7755 33.7887C16.119 33.1758 16.4896 32.5558 17.0482 32.1291C18.5577 30.9811 20.5844 30.2725 22.5151 30.4171C23.4227 30.4858 24.2525 30.7226 25.1238 30.9504C25.9301 31.1619 26.5719 31.7585 27.0908 32.3967C27.7814 33.2536 28.2117 34.2768 28.6112 35.2982Z" fill="#F7967C"/>
<path d="M17.4856 44.8865C17.8272 44.8503 18.6028 44.5538 18.6769 44.5032C19.1705 44.1651 19.259 43.7566 19.5176 43.2721C19.6911 42.9467 19.9009 42.6972 20.0762 42.3121C20.3076 41.8077 20.4287 41.1895 20.8988 40.8424C21.1609 40.6489 21.4755 40.5368 21.7539 40.3669C22.3722 39.9891 22.3143 39.4142 22.4065 38.7706C22.5023 38.1143 22.6343 37.449 22.9886 36.8778C23.7027 35.7244 24.9628 35.2507 26.2319 35.0121C27.4233 34.7879 28.0217 34.7427 27.8734 33.3616C27.6963 31.7345 26.485 30.6118 25.0478 29.9972C24.2144 29.641 23.3394 29.7025 22.4427 29.764C21.3724 29.8345 20.3148 30.0587 19.288 30.3624C18.5685 30.5757 17.8562 30.8324 17.2144 31.2211C16.3846 31.7218 15.6958 32.4377 15.1787 33.2549C14.4014 34.486 14.0308 35.4821 14.1682 36.9718C14.2061 37.3912 14.2821 37.8251 14.1447 38.2228C14.029 38.5554 13.7795 38.8212 13.5698 39.105C12.9244 39.9854 12.6622 41.1388 12.8629 42.2109C12.9081 42.4459 12.9714 42.7008 12.8647 42.9159C12.7942 43.0588 12.6604 43.1582 12.5447 43.2667C12.0928 43.6879 11.8596 44.3441 11.9933 44.9461C12.1271 45.5481 12.6496 46.058 13.2624 46.1266C13.8753 46.1953 14.5225 45.7849 14.6726 45.1884C14.8805 45.7723 15.5259 46.1664 16.1424 46.085C16.757 46.0037 17.2759 45.4541 17.3247 44.8358C17.3229 44.8847 17.3843 44.8973 17.4856 44.8865Z" fill="#1E1B35"/>
<path d="M28.2707 37.7979C28.2599 37.7436 28.24 37.693 28.2129 37.6478C27.9942 37.2808 27.3922 37.3875 27.0432 37.4327C26.5877 37.4923 26.1646 37.7111 25.7831 37.9569C25.4125 38.1938 25.0347 38.5047 24.9606 38.9368C24.957 38.9621 24.9534 38.9892 24.9696 39.0091C25.051 39.1284 25.6078 38.7469 25.6982 38.6999C25.8283 38.6312 25.9676 38.5824 26.1068 38.5372C26.622 38.3691 27.1607 38.248 27.7031 38.2824C27.8206 38.2896 27.9436 38.3041 28.0556 38.2625C28.2455 38.1883 28.3087 37.9822 28.2707 37.7979Z" fill="#1E1B35"/>
<path d="M26.5785 39.8705C26.602 39.7132 26.649 39.5704 26.743 39.4963C26.8099 39.4438 26.9003 39.4203 26.9889 39.4167C27.2456 39.4041 27.4029 39.565 27.4372 39.7783C27.4589 39.9121 27.4391 40.0549 27.4101 40.1887C27.3794 40.3279 27.3306 40.4725 27.2583 40.599C27.2185 40.6659 27.166 40.7165 27.0865 40.7491C26.7557 40.8829 26.5876 40.6641 26.5677 40.3966C26.5586 40.2754 26.5496 40.0639 26.5785 39.8705Z" fill="#1E1B35"/>
<path d="M27.4864 45.0655C27.481 45.0004 27.4593 44.9407 27.4177 44.8937C27.3436 44.8106 27.2333 44.7726 27.1357 44.7147C26.9169 44.5864 26.7741 44.364 26.6024 44.1778C26.521 44.0892 26.4306 44.0061 26.3221 43.9572C26.1396 43.8741 25.91 43.9012 25.863 44.1254C25.7961 44.4436 25.8539 44.7852 26.0184 45.0655C26.1829 45.3457 26.4559 45.5608 26.7651 45.6566C26.8898 45.6946 27.029 45.7145 27.152 45.6657C27.3291 45.5933 27.5045 45.2932 27.4864 45.0655Z" fill="white"/>
<path d="M23.1206 41.7617C23.1224 41.7454 23.1242 41.7292 23.126 41.7129C23.2507 40.4149 22.016 38.1117 20.4377 38.9198C19.8827 39.2036 19.5375 39.8165 19.4941 40.4384C19.4055 41.646 20.4884 43.5587 21.8696 43.4972C22.712 43.4611 23.0428 42.4722 23.1206 41.7617Z" fill="#F7967C"/>
<path d="M30.5921 33.3015C32.4018 32.7085 34.141 31.9005 35.7626 30.9025C36.1603 30.6567 36.8256 30.465 37.1782 30.9007C37.4945 31.2912 37.2505 31.8715 36.9576 32.2801C35.3504 34.5164 32.6079 35.6463 29.916 36.2248C27.2241 36.8051 24.4365 36.9479 21.806 37.7632C17.8722 38.9817 14.2782 41.4856 10.8831 43.7399C10.3407 44.0997 9.78751 44.4649 9.16019 44.6366C8.58168 44.7939 6.9546 44.7704 7.15346 43.7779C7.33967 42.8505 8.37012 42.4365 9.11495 42.0351C9.91402 41.6049 10.7131 41.1746 11.5122 40.7444C12.0093 40.4768 12.5155 40.1966 12.9314 39.8079C13.3851 39.3812 13.5406 39.0016 13.499 38.3869C13.4285 37.3239 13.3833 36.2591 13.367 35.1943C13.3526 34.3157 13.3598 33.4172 13.6581 32.5928C13.8334 32.1083 14.1227 31.6564 14.5114 31.3183C14.92 30.964 15.3972 30.8664 15.8871 30.6802C17.0857 30.2282 18.3151 29.8558 19.5625 29.5665C20.3073 29.393 21.0666 29.2484 21.7699 28.9446C22.5147 28.6228 23.2053 28.0534 24.0351 27.9991C24.9372 27.9395 25.7543 28.7657 26.2822 29.4165C27.103 30.4253 27.5785 31.7251 28.1534 32.8821C28.2889 33.1551 28.4408 33.4461 28.712 33.5872C29.0284 33.7517 29.4134 33.6649 29.7569 33.5654C30.0353 33.4787 30.3155 33.3919 30.5921 33.3015Z" fill="#B2754B"/>
<path d="M36.1772 31.1935C35.5174 31.9347 34.8322 32.6615 34.0531 33.2779C33.2558 33.9071 32.3609 34.3753 31.4082 34.7188C29.4412 35.4293 27.3495 35.7348 25.3012 36.1108C23.2909 36.4796 21.3059 36.928 19.424 37.7433C17.6866 38.4953 16.0541 39.4662 14.4072 40.3918C12.7656 41.3138 11.0898 42.2068 9.28917 42.7781C9.06319 42.8504 8.8372 42.9155 8.60941 42.977C8.54794 42.9932 8.49737 43.042 8.54618 43.0999C8.5968 43.1577 8.72153 43.1487 8.78662 43.1324C10.6198 42.6407 12.3318 41.8019 13.9896 40.8889C15.6546 39.9724 17.2817 38.9817 19.0027 38.1717C19.8994 37.7505 20.8196 37.3872 21.7705 37.1051C22.7847 36.8032 23.8206 36.5809 24.8583 36.3838C26.9174 35.9915 29.0091 35.7004 31.0122 35.0677C31.9758 34.764 32.9123 34.3681 33.7566 33.8058C34.5827 33.2545 35.3058 32.5639 35.9802 31.8389C36.1501 31.6563 36.3164 31.4719 36.4809 31.2857C36.5876 31.1628 36.2532 31.1085 36.1772 31.1935Z" fill="#F9C06E"/>
<path d="M20.7904 29.4162C20.7199 29.3927 20.6096 29.3963 20.55 29.4487C19.4562 30.396 18.2305 31.1752 16.909 31.7628C16.8403 31.7935 16.8529 31.855 16.909 31.8893C16.9795 31.9309 17.0843 31.9218 17.1566 31.8893C18.4962 31.2927 19.7437 30.4991 20.8519 29.5391C20.9151 29.4849 20.841 29.4325 20.7904 29.4162Z" fill="#F9C06E"/>
<path d="M26.9837 89.5043C25.8773 90.2202 24.6372 90.7264 23.3464 90.9904C20.414 91.5869 17.5323 93.1796 14.9308 94.6657C12.2064 96.2222 9.60495 97.9867 6.99985 99.733C5.36195 100.832 3.64265 101.951 1.68837 102.224C0.647057 102.369 0.22764 102.025 0.17702 101.111C0.122785 100.12 0.128242 99.0117 0.064968 97.9722C-0.0742359 95.6437 0.0323928 93.3098 0.17702 90.9831C0.690448 82.7159 1.70104 74.4812 3.20155 66.3352C3.65532 63.8693 4.1019 61.313 5.00763 58.9682C6.14295 56.0305 7.39035 53.2826 9.47841 50.8764C10.2232 50.0177 11.0512 49.1987 11.5267 48.1665C11.7075 47.7742 11.8358 47.3547 12.0762 46.9968C12.7831 45.9464 14.4536 46.4346 15.4714 46.6913C19.1124 47.6096 22.7407 49.3488 24.0315 53.1995C24.3624 54.1865 24.4564 55.2333 24.6245 56.2601C25.7092 62.8442 26.8879 69.4229 27.5695 76.0649C27.9093 79.3823 28.1263 82.7141 28.1462 86.0495C28.1498 86.7745 28.5059 87.8483 28.1173 88.5136C27.9527 88.7938 27.6924 89.0035 27.4285 89.1952C27.2838 89.3036 27.1356 89.4067 26.9837 89.5043Z" fill="#404882"/>
<path d="M45.9913 71.2188C46.9566 71.0561 47.9329 70.9712 48.9109 71.0308C49.3719 71.0597 49.8419 71.1266 50.2433 71.3526C50.6826 71.5985 51.1237 72.0468 50.6103 72.4753C50.4403 72.6163 50.2233 72.6904 50.01 72.7464C49.719 72.8224 49.4225 72.8748 49.1224 72.9019C49.2182 72.8929 49.6286 73.3701 49.6756 73.4641C49.7732 73.6594 49.7317 73.9758 49.6449 74.1692C49.4804 74.5326 48.9976 74.7134 48.636 74.5452C48.9018 74.8471 48.9741 75.3099 48.7915 75.6679C48.6089 76.024 48.1697 76.2392 47.781 76.1379C48.054 76.335 48.0991 76.7779 47.8731 77.0274C47.5206 77.4143 46.8535 77.3257 46.3907 77.2732C45.8538 77.2136 45.3314 77.0708 44.8198 76.9026C44.2033 76.7002 43.5995 76.4507 42.974 76.2717C42.5256 76.1433 41.9724 76.3205 41.5385 76.4633C41.2167 76.57 40.8171 76.711 40.5749 76.4724C40.4664 76.3657 40.4285 76.2102 40.3959 76.062C40.2495 75.3786 40.1772 74.679 40.179 73.9794C40.1808 73.7118 40.1989 73.4262 40.3634 73.2165C40.4755 73.0737 40.64 72.9851 40.8009 72.9001C41.5529 72.5024 42.3122 72.101 43.133 71.8769C44.0694 71.6256 45.0241 71.3815 45.9913 71.2188Z" fill="#F7967C"/>
<path d="M25.1108 80.0237C23.9592 80.9692 22.8962 82.0919 21.5331 82.7264C20.9202 83.0121 20.5623 83.7406 19.8048 83.6159C19.7108 83.6014 19.6204 83.5761 19.5318 83.5436C18.2844 83.0771 17.4166 81.4953 16.6899 80.4702C15.7787 79.1867 14.9363 77.8561 14.1408 76.5003C13.6762 75.7084 13.1845 74.913 12.7832 74.0868C12.4776 73.4595 12.145 72.6857 11.3568 72.5574C11.1561 72.5248 10.95 72.5501 10.7457 72.5357C9.68629 72.4615 9.01738 71.3768 8.63954 70.3843C7.34331 66.982 7.34875 63.238 7.88568 59.6802C8.21109 57.5271 9.20178 55.3125 11.0404 54.0434C13.0073 52.6857 15.3177 52.8972 17.0063 54.6508C18.279 55.9741 18.9244 57.7621 19.5463 59.4886C21.3361 64.4601 23.2253 69.3955 25.2121 74.2911C25.7924 75.7211 26.6927 77.4186 26.1178 78.9824C25.9569 79.4199 25.4579 79.7399 25.1108 80.0237Z" fill="#404882"/>
<path d="M42.3032 72.0721C42.475 72.468 42.4515 73.2816 42.4533 73.4949C42.4587 74.1891 42.7461 75.8089 42.2996 76.3675C42.1025 76.6152 41.6091 76.7345 41.3505 76.9225C40.9474 77.2136 40.6111 77.5951 40.2604 77.944C38.1994 80.0013 35.6414 81.001 32.9007 81.7964C29.8544 82.6805 26.7703 83.4506 23.6391 83.9695C22.3628 84.181 20.667 84.3129 19.548 83.5338C18.3674 82.7112 18.0366 81.1366 18.3168 79.797C18.5898 78.4881 19.4304 77.3365 20.5079 76.5447C21.6559 75.7004 23.254 75.1545 24.684 75.0749C28.8836 74.8453 32.9639 73.3665 37.008 72.2674C37.6191 72.1011 38.2682 71.9365 38.8738 72.1191C39.0926 72.1842 39.295 72.2945 39.5173 72.3451C40.367 72.5422 41.1824 71.8606 42.0538 71.8516C42.164 71.8534 42.2454 71.9384 42.3032 72.0721Z" fill="#404882"/>
<path d="M28.0032 82.966C27.911 82.8467 27.7121 82.8684 27.5837 82.8955C27.3614 82.9407 27.1391 82.9913 26.9185 83.0401C26.0453 83.23 25.1703 83.4162 24.2826 83.5246C22.7044 83.7199 21.0303 83.6494 19.5895 82.91C18.1233 82.1579 17.2357 80.7334 16.3643 79.3938C15.4134 77.933 14.5076 76.4452 13.6453 74.9302C12.6763 73.2236 11.7633 71.4863 10.91 69.7182C10.8594 69.6116 10.5141 69.6459 10.5719 69.7652C12.0236 72.7717 13.6453 75.6931 15.4296 78.5151C15.8653 79.2039 16.3046 79.8909 16.7692 80.5598C17.1959 81.1781 17.6605 81.7819 18.2264 82.279C19.34 83.2571 20.8026 83.6892 22.2597 83.7795C23.1727 83.8356 24.0892 83.7524 24.9913 83.6078C25.4577 83.5337 25.9224 83.4415 26.3852 83.3439C26.622 83.295 26.8588 83.2426 27.0938 83.192C27.2041 83.1685 27.3162 83.1432 27.4265 83.1197C27.4825 83.107 27.5368 83.0962 27.5928 83.0835L27.5982 83.0817C27.6542 83.2444 28.146 83.154 28.0032 82.966Z" fill="#1E1B35"/>
<path d="M26.9168 74.9861C26.5552 75.0078 26.1973 75.062 25.8465 75.1416C24.3008 71.8983 23.0408 68.5412 22.0067 65.1027C21.5077 63.4449 21.0341 61.7799 20.4592 60.1456C19.8897 58.5312 19.2281 56.9169 18.3241 55.4597C17.8523 54.6987 17.2575 54.0496 16.4693 53.6121C15.7118 53.1927 14.8404 52.983 13.9745 53.0101C13.922 53.012 13.7991 53.0246 13.7991 53.0987C13.7991 53.171 13.9256 53.1891 13.9745 53.1873C14.7446 53.162 15.5039 53.3482 16.18 53.7152C16.8851 54.0985 17.4383 54.6643 17.8739 55.3314C18.3331 56.0328 18.7128 56.7903 19.0617 57.5514C19.4143 58.3179 19.727 59.1007 20.0126 59.8944C20.5894 61.4889 21.0612 63.1177 21.5457 64.7429C22.0501 66.4333 22.5888 68.1109 23.2053 69.7633C23.8977 71.6163 24.6715 73.4386 25.523 75.223C24.4563 75.5249 23.4729 76.0925 22.6919 76.8916C22.5798 77.0073 22.916 77.0633 22.9938 76.982C24.0242 75.9262 25.438 75.2537 26.915 75.1633C26.9674 75.1597 27.0904 75.1488 27.0904 75.0747C27.0904 75.0042 26.9656 74.9825 26.9168 74.9861Z" fill="#1E1B35"/>
<path d="M23.7457 54.3754C23.583 54.2289 23.4167 54.0861 23.2486 53.9487C22.9177 53.6775 22.5742 53.4208 22.2199 53.1786C21.5022 52.685 20.7483 52.2494 19.9691 51.8625C18.3167 51.0417 16.5649 50.4434 14.795 49.9354C13.7447 49.6334 12.6871 49.3641 11.6277 49.0929C11.5608 49.0766 11.4397 49.0658 11.3873 49.1254C11.3385 49.1815 11.3873 49.2321 11.4506 49.2484C13.2584 49.7094 15.0699 50.1722 16.8325 50.7886C18.4686 51.3599 20.0631 52.0686 21.5239 53.0087C21.9252 53.2672 22.3139 53.542 22.6881 53.8348C22.8743 53.9795 23.0551 54.1295 23.2341 54.2832C23.3227 54.3609 23.4113 54.4386 23.498 54.5182C23.5884 54.5995 23.6951 54.6827 23.677 54.8165C23.6626 54.9322 24.0115 54.9448 24.0277 54.8165C24.0531 54.623 23.8723 54.4911 23.7457 54.3754Z" fill="#1E1B35"/>
</svg>
