<svg width="81" height="74" viewBox="0 0 81 74" fill="none" xmlns="http://www.w3.org/2000/svg">
<path d="M35.5838 54.6909C35.7638 53.5349 35.7528 52.3669 35.5298 51.1829C35.2608 49.7589 34.5148 48.4119 32.9948 48.0919C32.6178 48.0129 32.2318 48.0229 31.8498 48.0369C29.0438 48.1329 26.2448 48.2279 23.4588 48.4829C22.2618 48.5929 21.0658 48.707 19.8698 48.8199C17.5158 49.0439 15.1618 49.2669 12.8048 49.4549C10.8788 49.6079 8.86877 49.9419 7.14877 50.9259C6.56377 51.2609 5.64375 51.7559 5.24075 52.3489C4.67475 53.1819 4.72476 54.778 4.79776 55.764C4.83676 56.285 4.92075 56.8139 5.14175 57.2819C5.56675 58.1829 6.45075 58.7429 7.35275 58.9619C8.25475 59.1809 9.18676 59.1069 10.1038 59.0389C17.0368 58.5219 23.9998 58.3929 30.9568 58.6499C31.4468 58.6679 31.9307 58.6289 32.4157 58.5619C33.0977 58.4679 33.7238 58.533 34.2848 58.042C34.7808 57.6069 35.0088 56.95 35.2038 56.32C35.3718 55.78 35.4988 55.2369 35.5838 54.6909Z" fill="#5BB6BA"/>
<path d="M29.2108 73.38C28.7468 73.557 28.2788 73.579 27.7858 73.565L26.0638 73.519C25.5978 73.381 25.1278 73.181 24.6338 73.185C24.3008 73.187 24.0198 73.346 23.7268 73.457L22.0568 73.412C21.8398 73.351 21.6308 73.27 21.4428 73.162C21.3768 73.125 21.3118 73.081 21.2778 73.017C21.2478 72.96 21.2458 72.896 21.2468 72.834C21.2498 72.648 21.2798 72.466 21.3238 72.286C21.4378 71.825 21.6408 71.379 21.6978 70.905C21.7058 70.841 21.7128 70.777 21.7168 70.713C21.7478 70.305 21.7318 69.884 21.7808 69.474C21.7888 69.416 21.7988 69.354 21.8418 69.313C21.8708 69.286 21.9108 69.271 21.9498 69.258C22.7198 68.991 23.4838 68.847 24.2838 68.835C24.5168 68.831 24.7508 68.838 24.9908 68.857C25.0318 68.656 25.0908 68.46 25.1658 68.268C25.1878 68.215 25.2118 68.158 25.2628 68.127C25.3068 68.1 25.3638 68.096 25.4168 68.102C25.8068 68.149 25.8928 68.514 25.9358 68.806C25.9968 69.216 26.1008 69.617 26.2528 70.005C26.4358 70.475 26.9748 70.796 27.3908 71.086C27.8508 71.405 28.3548 71.68 28.9178 71.801C29.1058 71.841 29.3018 71.866 29.4708 71.954C29.6508 72.048 29.7638 72.167 29.8238 72.296C30.0138 72.697 29.6808 73.201 29.2108 73.38Z" fill="#4295A3"/>
<path d="M29.2108 73.3792C28.7468 73.5562 28.2788 73.5781 27.7858 73.5641L26.0638 73.5182C25.5978 73.3802 25.1278 73.1801 24.6338 73.1841C24.3008 73.1861 24.0198 73.3451 23.7268 73.4561L22.0568 73.4112C21.8398 73.3502 21.6308 73.2692 21.4428 73.1612C21.3768 73.1242 21.3118 73.0801 21.2778 73.0161C21.2478 72.9591 21.2458 72.8952 21.2468 72.8332C21.2498 72.6472 21.2798 72.4652 21.3238 72.2852C21.4048 72.3322 21.4898 72.3882 21.5758 72.4322C22.2388 72.7752 23.0308 72.8982 23.7738 72.7562C23.9988 72.7132 24.2198 72.6471 24.4478 72.6281C24.8168 72.5981 25.1818 72.6902 25.5468 72.7602C26.2738 72.8992 27.0198 72.9451 27.7598 72.8991C28.1728 72.8731 28.5908 72.8162 28.9658 72.6552C29.2528 72.5332 29.5178 72.3502 29.8258 72.2952C30.0138 72.6962 29.6808 73.2002 29.2108 73.3792Z" fill="#1E1B35"/>
<path d="M26.1756 69.5359C26.0526 69.5079 25.9307 69.4799 25.8077 69.4519C25.9197 69.4019 26.0256 69.3429 26.1316 69.2829C26.1596 69.2669 26.1637 69.2439 26.1327 69.2269C26.1027 69.2109 26.0456 69.2069 26.0146 69.2239C25.8926 69.2919 25.7707 69.3599 25.6407 69.4139L25.1606 69.3049C25.1546 69.3039 25.1476 69.3029 25.1396 69.3029C25.1226 69.3009 25.1057 69.3009 25.0907 69.3039C25.0687 69.3079 25.0437 69.3159 25.0387 69.3389C25.0107 69.4519 25.0767 69.5689 25.1807 69.6279C25.1967 69.6369 25.2207 69.6409 25.2397 69.6409C25.2587 69.6409 25.2816 69.6389 25.2986 69.6309L25.2997 69.6299C25.3547 69.6239 25.4076 69.6049 25.4596 69.5809C25.5276 69.5499 25.5997 69.5299 25.6697 69.5059C25.8227 69.5409 25.9756 69.5759 26.1286 69.6099C26.1566 69.6169 26.2167 69.6139 26.2317 69.5849C26.2487 69.5549 26.1976 69.5409 26.1756 69.5359ZM25.4307 69.4879C25.3987 69.4989 25.3677 69.5119 25.3367 69.5259C25.3307 69.5289 25.3247 69.5319 25.3187 69.5339C25.3207 69.4949 25.3097 69.4549 25.2897 69.4199C25.3577 69.4359 25.4257 69.4509 25.4947 69.4669C25.4727 69.4739 25.4517 69.4799 25.4307 69.4879Z" fill="#1E1B35"/>
<path d="M26.7857 70.5837C26.6187 70.5847 26.4507 70.5877 26.2837 70.5697C26.2447 70.5657 26.2057 70.5597 26.1677 70.5527C26.1817 70.5407 26.1947 70.5277 26.2087 70.5157C26.2557 70.4737 26.3017 70.4307 26.3477 70.3887C26.3867 70.3527 26.4257 70.3147 26.4657 70.2797C26.4847 70.2767 26.5017 70.2687 26.5107 70.2547C26.5447 70.2057 26.4327 70.1907 26.4057 70.1937C26.3587 70.1987 26.3337 70.2247 26.3017 70.2537C26.2427 70.3077 26.1847 70.3617 26.1257 70.4147C26.0887 70.4487 26.0517 70.4827 26.0147 70.5167C25.9397 70.4957 25.8667 70.4707 25.7927 70.4407C25.7897 70.4397 25.7857 70.4387 25.7827 70.4377C25.7797 70.4367 25.7777 70.4357 25.7747 70.4347C25.7697 70.4327 25.7637 70.4317 25.7577 70.4307C25.7157 70.4197 25.6697 70.4197 25.6307 70.4367C25.6207 70.4407 25.6107 70.4467 25.6027 70.4547C25.6007 70.4567 25.5997 70.4587 25.5977 70.4607C25.5937 70.4617 25.5897 70.4627 25.5867 70.4637C25.5767 70.4687 25.5587 70.4787 25.5617 70.4917C25.5627 70.4977 25.5657 70.5027 25.5667 70.5087C25.5617 70.5157 25.5587 70.5237 25.5567 70.5327C25.5527 70.5537 25.5637 70.5747 25.5787 70.5897C25.5867 70.5977 25.5957 70.6037 25.6057 70.6077C25.6457 70.6787 25.7057 70.7397 25.7827 70.7797C25.7857 70.7807 25.7887 70.7817 25.7917 70.7827C25.7957 70.7847 25.8007 70.7877 25.8057 70.7887C25.8367 70.7987 25.8937 70.8017 25.9207 70.7777C25.9777 70.7257 26.0347 70.6737 26.0917 70.6217C26.1327 70.6297 26.1747 70.6377 26.2177 70.6427C26.4057 70.6647 26.5937 70.6647 26.7827 70.6627C26.8077 70.6627 26.8667 70.6587 26.8677 70.6257C26.8687 70.5937 26.8087 70.5827 26.7857 70.5837Z" fill="#1E1B35"/>
<path d="M27.5938 71.1527C27.4418 71.1427 27.2888 71.1437 27.1358 71.1537C27.1798 71.0757 27.2228 70.9977 27.2628 70.9177C27.2898 70.8637 27.1268 70.8447 27.1028 70.8927C27.0558 70.9867 27.0048 71.0797 26.9528 71.1717C26.9228 71.1757 26.8937 71.1767 26.8637 71.1817C26.7907 71.1927 26.7168 71.2037 26.6518 71.2377C26.6488 71.2397 26.6478 71.2407 26.6458 71.2427C26.6328 71.2467 26.6208 71.2527 26.6158 71.2627L26.6148 71.2667C26.6108 71.2687 26.6058 71.2697 26.6018 71.2727C26.5928 71.2807 26.5867 71.2907 26.5927 71.3027C26.6117 71.3407 26.6398 71.3767 26.6728 71.4047C26.7038 71.4317 26.7408 71.4517 26.7798 71.4687C26.7918 71.5037 26.9168 71.5157 26.9428 71.4757C26.9938 71.3977 27.0418 71.3177 27.0888 71.2377C27.1128 71.2357 27.1378 71.2317 27.1618 71.2307C27.3048 71.2207 27.4487 71.2217 27.5927 71.2317C27.6177 71.2327 27.6758 71.2257 27.6768 71.1947C27.6778 71.1617 27.6168 71.1547 27.5938 71.1527Z" fill="#1E1B35"/>
<path d="M28.3658 71.5048C28.3298 71.4858 28.2848 71.4888 28.2478 71.5018C28.2028 71.5168 28.1579 71.5338 28.1149 71.5528V71.5518C28.1059 71.5098 28.0868 71.4688 28.0918 71.4248C28.0948 71.3928 28.0328 71.3828 28.0098 71.3828C27.9838 71.3828 27.9288 71.3868 27.9258 71.4198C27.9218 71.4608 27.9378 71.4988 27.9468 71.5378C27.9538 71.5668 27.9568 71.5958 27.9598 71.6258C27.8798 71.6678 27.8028 71.7128 27.7298 71.7638H27.7269H27.7228C27.7188 71.7638 27.7138 71.7638 27.7098 71.7638C27.6928 71.7658 27.6718 71.7698 27.6598 71.7808L27.6509 71.7898C27.6469 71.7968 27.6468 71.8038 27.6498 71.8108C27.6508 71.8128 27.6518 71.8158 27.6518 71.8158V71.8178C27.6518 71.8328 27.6578 71.8488 27.6678 71.8608C27.6728 71.8668 27.6799 71.8698 27.6849 71.8748C27.7049 71.8978 27.7288 71.9178 27.7568 71.9318C27.8258 71.9688 27.9118 71.9778 27.9878 71.9598C27.9958 71.9578 28.0038 71.9548 28.0108 71.9508C28.0388 71.9498 28.0708 71.9448 28.0788 71.9248C28.1118 71.8438 28.1298 71.7588 28.1288 71.6728C28.1288 71.6678 28.1278 71.6628 28.1268 71.6578C28.2038 71.6198 28.2829 71.5868 28.3649 71.5598C28.3969 71.5498 28.3918 71.5188 28.3658 71.5048Z" fill="#1E1B35"/>
<path d="M30.2257 53.2418C29.9657 53.4348 29.7197 53.6568 29.4897 53.8998C28.7427 54.6888 28.2097 55.6518 27.6987 56.6098C25.5877 60.5678 23.7037 64.6478 22.0607 68.8218C21.6087 69.9708 22.0677 69.9278 23.0857 70.1008C24.0557 70.2658 25.0267 70.4308 25.9967 70.5958C26.2367 70.6368 26.4597 70.6488 26.7017 70.6378C26.8377 70.6318 26.8367 70.7318 26.9687 70.6758C27.0437 70.6438 27.1537 70.4358 27.2067 70.3678C27.5347 69.9418 27.8587 69.5128 28.1737 69.0768C28.8197 68.1838 29.4367 67.2698 30.0387 66.3458C31.2427 64.4978 32.3837 62.6098 33.5707 60.7508C34.1747 59.8058 34.7827 58.8508 35.1577 57.7938C35.5087 56.8058 35.7237 55.4958 35.2917 54.4928C34.9317 53.6568 33.9807 52.9808 33.1487 52.6848C32.0797 52.3028 31.0767 52.6118 30.2257 53.2418Z" fill="#5BB6BA"/>
<path d="M32.1627 54.5879C32.2047 54.3839 32.2417 54.1779 32.2777 53.9739C32.5107 52.6579 32.6897 51.2669 32.2217 50.0159C31.8477 49.0169 30.8367 48.2809 29.8057 48.0649C29.4287 47.9859 29.0427 47.9959 28.6607 48.0089C25.8547 48.1049 23.0557 48.1999 20.2697 48.4549C19.0727 48.5649 17.8767 48.6789 16.6807 48.7929C14.3267 49.0169 11.9727 49.2399 9.61572 49.4279C7.68972 49.5819 5.67974 49.9149 3.95974 50.8999C3.50974 51.1579 3.02472 51.4019 2.62872 51.7399C2.19672 52.1079 2.15673 52.4629 2.07873 53.0379C1.91573 54.2449 2.00573 55.4859 2.34973 56.6549C2.58773 57.4619 3.03572 58.4559 3.82372 58.8689C4.65772 59.3059 6.00174 59.0809 6.91574 59.0129C13.8487 58.4959 20.8117 58.3659 27.7687 58.6239C29.4397 58.6859 30.8857 57.9129 31.6157 56.3619C31.8797 55.7999 32.0397 55.1979 32.1627 54.5879Z" fill="#5BB6BA"/>
<path d="M25.7227 73.38C25.2587 73.557 24.7907 73.579 24.2977 73.565L22.5757 73.519C22.1097 73.381 21.6398 73.181 21.1458 73.185C20.8128 73.187 20.5317 73.346 20.2387 73.457L18.5687 73.412C18.3517 73.351 18.1417 73.27 17.9547 73.162C17.8887 73.125 17.8237 73.081 17.7897 73.017C17.7597 72.96 17.7577 72.896 17.7587 72.834C17.7617 72.648 17.7917 72.466 17.8357 72.286C17.9497 71.825 18.1528 71.379 18.2098 70.905C18.2178 70.841 18.2237 70.777 18.2297 70.713C18.2607 70.305 18.2437 69.884 18.2937 69.474C18.3017 69.416 18.3117 69.354 18.3547 69.313C18.3837 69.286 18.4237 69.271 18.4627 69.258C19.2327 68.991 19.9968 68.847 20.7968 68.835C21.0298 68.831 21.2637 68.838 21.5037 68.857C21.5447 68.656 21.6037 68.46 21.6787 68.268C21.7007 68.215 21.7248 68.158 21.7758 68.127C21.8198 68.1 21.8768 68.096 21.9298 68.102C22.3198 68.149 22.4057 68.514 22.4497 68.806C22.5107 69.216 22.6147 69.617 22.7667 70.005C22.9497 70.475 23.4887 70.796 23.9047 71.086C24.3647 71.405 24.8688 71.68 25.4318 71.801C25.6198 71.841 25.8157 71.866 25.9847 71.954C26.1647 72.048 26.2777 72.167 26.3377 72.296C26.5247 72.697 26.1927 73.201 25.7227 73.38Z" fill="#4295A3"/>
<path d="M25.7227 73.3792C25.2587 73.5562 24.7907 73.5781 24.2977 73.5641L22.5757 73.5182C22.1097 73.3802 21.6398 73.1801 21.1458 73.1841C20.8128 73.1861 20.5317 73.3451 20.2387 73.4561L18.5687 73.4112C18.3517 73.3502 18.1417 73.2692 17.9547 73.1612C17.8887 73.1242 17.8237 73.0801 17.7897 73.0161C17.7597 72.9591 17.7577 72.8952 17.7587 72.8332C17.7617 72.6472 17.7917 72.4652 17.8357 72.2852C17.9167 72.3322 18.0017 72.3882 18.0877 72.4322C18.7507 72.7752 19.5437 72.8982 20.2857 72.7562C20.5107 72.7132 20.7307 72.6471 20.9597 72.6281C21.3287 72.5981 21.6937 72.6902 22.0587 72.7602C22.7857 72.8992 23.5317 72.9451 24.2717 72.8991C24.6847 72.8731 25.1027 72.8162 25.4777 72.6552C25.7647 72.5332 26.0297 72.3502 26.3377 72.2952C26.5247 72.6962 26.1927 73.2002 25.7227 73.3792Z" fill="#1E1B35"/>
<path d="M22.6866 69.5359C22.5646 69.5079 22.4417 69.4799 22.3187 69.4519C22.4307 69.4019 22.5367 69.3429 22.6427 69.2829C22.6707 69.2669 22.6747 69.2439 22.6437 69.2269C22.6137 69.2109 22.5567 69.2069 22.5257 69.2239C22.4037 69.2919 22.2817 69.3599 22.1517 69.4139L21.6717 69.3049C21.6657 69.3039 21.6587 69.3029 21.6507 69.3029C21.6337 69.3009 21.6167 69.3009 21.6017 69.3039C21.5797 69.3079 21.5547 69.3159 21.5497 69.3389C21.5217 69.4519 21.5876 69.5689 21.6916 69.6279C21.7076 69.6369 21.7317 69.6409 21.7507 69.6409C21.7687 69.6409 21.7927 69.6389 21.8097 69.6309L21.8107 69.6299C21.8657 69.6239 21.9187 69.6049 21.9707 69.5809C22.0387 69.5499 22.1107 69.5299 22.1817 69.5059C22.3347 69.5409 22.4877 69.5759 22.6407 69.6099C22.6687 69.6169 22.7286 69.6139 22.7436 69.5849C22.7606 69.5549 22.7086 69.5409 22.6866 69.5359ZM21.9427 69.4879C21.9107 69.4989 21.8797 69.5119 21.8487 69.5259C21.8427 69.5289 21.8367 69.5319 21.8307 69.5339C21.8327 69.4949 21.8217 69.4549 21.8027 69.4199C21.8707 69.4359 21.9387 69.4509 22.0077 69.4669C21.9847 69.4739 21.9637 69.4799 21.9427 69.4879Z" fill="#1E1B35"/>
<path d="M23.2976 70.5837C23.1306 70.5847 22.9626 70.5877 22.7956 70.5697C22.7566 70.5657 22.7177 70.5597 22.6797 70.5527C22.6937 70.5407 22.7067 70.5277 22.7207 70.5157C22.7677 70.4737 22.8137 70.4307 22.8597 70.3887C22.8987 70.3527 22.9376 70.3147 22.9776 70.2797C22.9966 70.2767 23.0136 70.2687 23.0226 70.2547C23.0566 70.2057 22.9447 70.1907 22.9187 70.1937C22.8717 70.1987 22.8467 70.2247 22.8147 70.2537C22.7557 70.3077 22.6976 70.3617 22.6386 70.4147C22.6016 70.4487 22.5646 70.4827 22.5276 70.5167C22.4526 70.4957 22.3796 70.4707 22.3056 70.4407C22.3026 70.4397 22.2986 70.4387 22.2956 70.4377C22.2926 70.4367 22.2906 70.4357 22.2876 70.4347C22.2826 70.4327 22.2766 70.4317 22.2716 70.4307C22.2296 70.4197 22.1836 70.4197 22.1446 70.4367C22.1346 70.4407 22.1247 70.4467 22.1167 70.4547C22.1147 70.4567 22.1137 70.4587 22.1117 70.4607C22.1077 70.4617 22.1036 70.4627 22.1006 70.4637C22.0906 70.4687 22.0727 70.4787 22.0757 70.4917C22.0767 70.4977 22.0796 70.5027 22.0816 70.5087C22.0766 70.5157 22.0736 70.5237 22.0716 70.5327C22.0676 70.5537 22.0787 70.5747 22.0937 70.5897C22.1017 70.5977 22.1106 70.6037 22.1206 70.6077C22.1606 70.6787 22.2206 70.7397 22.2976 70.7797C22.3006 70.7807 22.3037 70.7817 22.3067 70.7827C22.3107 70.7847 22.3157 70.7877 22.3207 70.7887C22.3517 70.7987 22.4086 70.8017 22.4356 70.7777C22.4926 70.7257 22.5497 70.6737 22.6067 70.6217C22.6477 70.6297 22.6896 70.6377 22.7326 70.6427C22.9206 70.6647 23.1096 70.6647 23.2976 70.6627C23.3226 70.6627 23.3817 70.6587 23.3827 70.6257C23.3807 70.5937 23.3206 70.5827 23.2976 70.5837Z" fill="#1E1B35"/>
<path d="M24.1057 71.1527C23.9537 71.1427 23.8007 71.1437 23.6477 71.1537C23.6917 71.0757 23.7347 70.9977 23.7747 70.9177C23.8017 70.8637 23.6387 70.8447 23.6147 70.8927C23.5677 70.9867 23.5167 71.0797 23.4637 71.1717C23.4347 71.1757 23.4047 71.1767 23.3747 71.1817C23.3017 71.1927 23.2277 71.2037 23.1627 71.2377C23.1597 71.2397 23.1587 71.2407 23.1567 71.2427C23.1437 71.2467 23.1317 71.2527 23.1267 71.2627L23.1257 71.2667C23.1217 71.2687 23.1167 71.2697 23.1127 71.2727C23.1037 71.2807 23.0977 71.2907 23.1037 71.3027C23.1227 71.3407 23.1507 71.3767 23.1837 71.4047C23.2147 71.4317 23.2517 71.4517 23.2907 71.4687C23.3037 71.5037 23.4277 71.5157 23.4537 71.4757C23.5047 71.3977 23.5527 71.3177 23.5997 71.2377C23.6237 71.2357 23.6487 71.2317 23.6727 71.2307C23.8157 71.2207 23.9597 71.2217 24.1037 71.2317C24.1287 71.2327 24.1867 71.2257 24.1877 71.1947C24.1897 71.1617 24.1277 71.1547 24.1057 71.1527Z" fill="#1E1B35"/>
<path d="M24.8768 71.5048C24.8408 71.4858 24.7958 71.4888 24.7588 71.5018C24.7138 71.5168 24.6688 71.5338 24.6258 71.5528V71.5518C24.6168 71.5098 24.5978 71.4688 24.6028 71.4248C24.6058 71.3928 24.5439 71.3828 24.5209 71.3828C24.4949 71.3828 24.4398 71.3868 24.4368 71.4198C24.4328 71.4608 24.4489 71.4988 24.4579 71.5378C24.4649 71.5668 24.4689 71.5958 24.4709 71.6258C24.3909 71.6678 24.3138 71.7128 24.2408 71.7638H24.2378H24.2339C24.2299 71.7638 24.2249 71.7638 24.2209 71.7638C24.2039 71.7658 24.1828 71.7698 24.1708 71.7808L24.1619 71.7898C24.1579 71.7968 24.1578 71.8038 24.1608 71.8108C24.1618 71.8128 24.1628 71.8158 24.1628 71.8158V71.8178C24.1628 71.8328 24.1688 71.8488 24.1788 71.8608C24.1838 71.8668 24.1908 71.8698 24.1958 71.8748C24.2158 71.8978 24.2399 71.9178 24.2679 71.9318C24.3369 71.9688 24.4228 71.9778 24.4988 71.9598C24.5068 71.9578 24.5149 71.9548 24.5209 71.9508C24.5489 71.9498 24.5809 71.9448 24.5889 71.9248C24.6219 71.8438 24.6398 71.7588 24.6388 71.6728C24.6388 71.6678 24.6378 71.6628 24.6368 71.6578C24.7128 71.6198 24.7929 71.5868 24.8749 71.5598C24.9089 71.5498 24.9038 71.5188 24.8768 71.5048Z" fill="#1E1B35"/>
<path d="M26.7377 53.2418C26.4777 53.4348 26.2317 53.6568 26.0017 53.8998C25.2547 54.6888 24.7217 55.6518 24.2107 56.6098C22.0997 60.5678 20.2167 64.6478 18.5727 68.8218C18.1207 69.9708 18.5797 69.9278 19.5977 70.1008C20.5687 70.2658 21.5387 70.4308 22.5087 70.5958C22.7837 70.6428 23.0727 70.6888 23.3377 70.6008C23.7797 70.4538 23.9427 69.8138 24.1597 69.4588C24.5187 68.8728 24.8777 68.2868 25.2247 67.6888C26.0317 66.3008 26.8917 64.9428 27.8017 63.6198C29.2897 61.4558 30.9307 59.3468 31.8507 56.8868C32.1687 56.0358 32.2707 55.2418 31.7867 54.4408C31.3027 53.6398 30.5447 52.9998 29.6607 52.6848C28.5917 52.3028 27.5887 52.6118 26.7377 53.2418Z" fill="#5BB6BA"/>
<path d="M32.5718 51.6936C32.5258 51.0486 32.4188 50.3926 32.1598 49.7966C31.9378 49.2876 31.5918 48.8006 31.0828 48.5486C30.9618 48.4886 30.8328 48.4436 30.7008 48.4136C30.6648 48.4056 30.5948 48.3966 30.5678 48.4316C30.5438 48.4636 30.5648 48.4906 30.6028 48.4996C31.1638 48.6296 31.5708 49.0566 31.8388 49.5486C32.1418 50.1066 32.2768 50.7336 32.3478 51.3596C32.5148 52.8426 32.2718 54.3476 31.7998 55.7556C31.3238 57.1746 30.6098 58.5006 29.8238 59.7696C29.0158 61.0736 28.1358 62.3315 27.2918 63.6115C26.4068 64.9545 25.5377 66.3096 24.6867 67.6746C24.5807 67.8446 24.4748 68.0146 24.3698 68.1846C24.3328 68.2436 24.5208 68.2676 24.5568 68.2106C25.4178 66.8216 26.2968 65.4426 27.1928 64.0746C28.0518 62.7626 28.9488 61.4736 29.7898 60.1496C30.6068 58.8626 31.3618 57.5236 31.8818 56.0866C32.3858 54.6856 32.6788 53.1856 32.5718 51.6936Z" fill="#4295A3"/>
<path d="M28.4188 38.7533C28.3988 38.7533 28.3788 38.7473 28.3618 38.7353C28.3188 38.7043 28.3088 38.6433 28.3398 38.6003C28.3998 38.5163 34.4898 30.1223 43.8668 21.3173C49.3748 16.1443 54.9238 11.8443 60.3578 8.53429C67.1548 4.39429 73.7928 1.80128 80.0858 0.827284C80.1388 0.819284 80.1878 0.855278 80.1968 0.908278C80.2048 0.961278 80.1688 1.01029 80.1158 1.01929C65.9168 3.21629 52.6398 13.3463 44.0018 21.4573C34.6378 30.2503 28.5568 38.6313 28.4968 38.7153C28.4778 38.7393 28.4488 38.7533 28.4188 38.7533Z" fill="#4295A3"/>
<path d="M59.0607 10.8898C58.8427 10.8898 58.5697 10.8048 58.3017 10.6488C57.8457 10.3828 57.4597 9.93984 57.6047 9.60684C57.6467 9.51084 57.7267 9.44085 57.8377 9.40485C58.0697 9.32885 58.4347 9.41085 58.7917 9.61785C59.2477 9.88385 59.6337 10.3268 59.4887 10.6598C59.4467 10.7558 59.3667 10.8258 59.2557 10.8618C59.1977 10.8798 59.1317 10.8898 59.0607 10.8898ZM58.0337 9.69785C57.9957 9.69785 57.9627 9.70185 57.9377 9.71085C57.9237 9.71585 57.9057 9.72385 57.9007 9.73485C57.8687 9.80785 58.0227 10.1118 58.4647 10.3688C58.7757 10.5498 59.0407 10.5919 59.1547 10.5539C59.1687 10.5489 59.1877 10.5408 59.1927 10.5298C59.2247 10.4568 59.0707 10.1528 58.6287 9.89484C58.3847 9.75484 58.1697 9.69785 58.0337 9.69785Z" fill="#B2754B"/>
<path d="M69.4329 5.1447C69.2259 5.1447 68.9669 5.0647 68.7129 4.9167C68.2799 4.6647 67.9139 4.24269 68.0529 3.92369C68.0929 3.83069 68.1709 3.76269 68.2779 3.72769C68.4989 3.65569 68.8459 3.7327 69.1829 3.9297C69.6159 4.1817 69.9819 4.6037 69.8429 4.9227C69.8029 5.0157 69.7249 5.08369 69.6179 5.11869C69.5639 5.13669 69.5009 5.1447 69.4329 5.1447ZM68.4669 4.02369C68.4319 4.02369 68.4019 4.0277 68.3789 4.0347C68.3669 4.0387 68.3519 4.0457 68.3489 4.0527C68.3209 4.1177 68.4709 4.40269 68.8749 4.63769C69.1649 4.80669 69.4109 4.84569 69.5169 4.81169C69.5289 4.80769 69.5439 4.8007 69.5469 4.7937C69.5749 4.7297 69.4249 4.44369 69.0199 4.20869C68.7939 4.07669 68.5929 4.02369 68.4669 4.02369Z" fill="#B2754B"/>
<path d="M80.2927 1.29708C80.1247 1.29708 79.9207 1.23308 79.7147 1.11308C79.3627 0.908085 79.0667 0.560086 79.1837 0.292086C79.2197 0.210086 79.2877 0.150082 79.3807 0.119082C79.5657 0.0580816 79.8407 0.118077 80.1177 0.280077C80.4697 0.485077 80.7647 0.833076 80.6487 1.10108C80.6127 1.18308 80.5447 1.24308 80.4517 1.27408C80.4037 1.28908 80.3507 1.29708 80.2927 1.29708ZM79.4797 0.426088C79.4827 0.479088 79.5957 0.670078 79.8767 0.834078C80.1217 0.977078 80.3037 0.986074 80.3527 0.967074C80.3497 0.914074 80.2367 0.723084 79.9557 0.559084C79.7107 0.416084 79.5287 0.406088 79.4797 0.426088Z" fill="#B2754B"/>
<path d="M49.7429 18.1205C49.4949 18.1205 49.1809 18.0225 48.8729 17.8435C48.3519 17.5405 47.9089 17.0375 48.0719 16.6625C48.1179 16.5575 48.2059 16.4815 48.3269 16.4415C48.5899 16.3555 49.0069 16.4495 49.4159 16.6875C49.9369 16.9905 50.3799 17.4935 50.2169 17.8675C50.1709 17.9725 50.0829 18.0485 49.9619 18.0885C49.8969 18.1105 49.8239 18.1205 49.7429 18.1205ZM48.5459 16.7325C48.4989 16.7325 48.4589 16.7375 48.4279 16.7485C48.3799 16.7645 48.3709 16.7845 48.3679 16.7915C48.3149 16.9135 48.5539 17.2845 49.0349 17.5645C49.4039 17.7795 49.7219 17.8285 49.8609 17.7825C49.9089 17.7665 49.9179 17.7465 49.9209 17.7395C49.9739 17.6175 49.7349 17.2465 49.2539 16.9665C48.9669 16.7995 48.7109 16.7325 48.5459 16.7325Z" fill="#B2754B"/>
<path d="M40.6369 27.0339C40.3809 27.0339 40.0579 26.9329 39.7399 26.7479C39.2159 26.4429 38.7479 25.9139 38.9139 25.5339C38.9599 25.4269 39.0509 25.3489 39.1749 25.3079C39.4459 25.2189 39.8759 25.3159 40.2969 25.5619C40.8209 25.8669 41.2889 26.3959 41.1229 26.7759C41.0769 26.8829 40.9859 26.9609 40.8619 27.0019C40.7949 27.0239 40.7199 27.0339 40.6369 27.0339ZM39.3979 25.5989C39.3479 25.5989 39.3069 25.6049 39.2739 25.6149C39.2219 25.6319 39.2119 25.6549 39.2089 25.6619C39.1529 25.7899 39.4009 26.1769 39.9019 26.4689C40.2849 26.6919 40.6159 26.7429 40.7609 26.6949C40.8129 26.6779 40.8229 26.6549 40.8259 26.6469C40.8819 26.5189 40.6339 26.1319 40.1329 25.8399C39.8359 25.6679 39.5699 25.5989 39.3979 25.5989Z" fill="#B2754B"/>
<path d="M23.0339 45.783C22.8969 45.783 22.7829 45.675 22.7759 45.537C22.7719 45.45 22.7709 45.427 23.0979 44.904C23.2519 44.659 23.5219 44.236 23.9379 43.615C24.5849 42.649 25.6729 41.075 27.1769 39.059C29.7229 35.645 33.8749 30.424 39.1939 24.938C45.1119 18.833 51.1939 13.703 57.2699 9.69298C64.8569 4.68498 72.4459 1.42498 79.8249 0.0049806C79.9649 -0.0230194 80.1009 0.0699824 80.1279 0.209982C80.1549 0.349982 80.0629 0.485984 79.9229 0.511984C63.4519 3.68198 49.0389 15.582 39.8469 25.007C29.8619 35.246 23.5959 44.958 23.2799 45.605C23.2469 45.704 23.1569 45.777 23.0469 45.782C23.0429 45.783 23.0379 45.783 23.0339 45.783Z" fill="#B2754B"/>
<path d="M28.5858 42.4189L28.3637 42.2029C28.1237 41.9689 28.0928 41.5529 28.2948 41.2739L29.0457 40.2379C29.2477 39.9589 29.6067 39.9219 29.8477 40.1559L30.0697 40.3719C30.3097 40.6059 30.3408 41.0219 30.1388 41.3009L29.3878 42.3369C29.1848 42.6159 28.8258 42.6529 28.5858 42.4189Z" fill="#404882"/>
<path d="M30.0628 40.5823L29.7668 40.2943C29.5468 40.0803 29.5188 39.6993 29.7038 39.4443C29.8888 39.1893 30.2168 39.1553 30.4368 39.3693L30.7328 39.6573C30.9528 39.8713 30.9808 40.2513 30.7958 40.5073C30.6108 40.7623 30.2828 40.7963 30.0628 40.5823Z" fill="#404882"/>
<path d="M28.4448 41.9652C27.7748 41.0272 27.3988 39.8163 27.3948 38.5983C27.3938 38.4273 27.5168 38.2902 27.6648 38.2992C27.8008 38.3082 27.9048 38.4383 27.9048 38.5963C27.9088 39.6783 28.2428 40.7543 28.8378 41.5873L28.4448 41.9652Z" fill="#404882"/>
<path d="M29.8038 43.9497C29.7448 43.9537 29.6848 43.9347 29.6348 43.8897C29.3538 43.6417 29.1749 43.2257 29.1169 42.6887C29.0969 42.5037 29.0909 42.3197 29.0859 42.1427C29.0789 41.9387 29.0729 41.7447 29.0469 41.5577C29.0239 41.3967 29.1189 41.2447 29.2579 41.2187C29.3969 41.1927 29.5279 41.3017 29.5499 41.4627C29.5809 41.6857 29.5879 41.9067 29.5949 42.1197C29.5999 42.2927 29.6059 42.4547 29.6229 42.6147C29.6509 42.8777 29.7299 43.2297 29.9439 43.4197C30.0559 43.5187 30.0769 43.7037 29.9919 43.8337C29.9449 43.9047 29.8758 43.9447 29.8038 43.9497Z" fill="#1E1B35"/>
<path d="M22.8068 45.8421L22.4849 45.5291C22.2439 45.2951 22.2128 44.8781 22.4158 44.5981L27.2908 37.8691C27.4938 37.5891 27.8529 37.5531 28.0939 37.7871L28.4149 38.1001C28.6559 38.3341 28.6869 38.7511 28.4849 39.0311L23.6099 45.7601C23.4079 46.0391 23.0478 46.0761 22.8068 45.8421Z" fill="#B2754B"/>
<path d="M8.00703 27.1292C8.07603 27.4022 8.27101 27.6572 8.44301 27.8572C8.88701 28.3722 9.41202 28.8152 9.99202 29.1682C10.463 29.4552 11.324 30.0072 11.899 29.8322C12.616 29.6152 12.61 28.5452 12.894 27.9942C13.008 27.7722 13.136 27.5562 13.285 27.3522C13.401 27.1912 13.531 27.0362 13.649 26.8752C13.82 26.6432 13.968 26.4022 14.023 26.1242C14.096 25.7492 13.981 25.3702 13.84 25.0202C13.716 24.7132 13.623 24.3892 13.476 24.0902C13.171 23.4742 12.658 22.9622 12.093 22.5572C11.405 22.0602 10.486 22.0162 10.186 22.8822C9.78602 24.0362 9.19401 25.1262 8.43901 26.0982C8.25801 26.3322 7.98703 26.6072 7.98103 26.9142C7.98003 26.9872 7.98903 27.0592 8.00703 27.1292Z" fill="#F7967C"/>
<path d="M12.204 27.1905C12.375 27.4855 12.6531 27.7425 12.8941 27.9955C13.0081 27.7735 13.136 27.5575 13.285 27.3535C13.401 27.1925 13.5311 27.0375 13.6491 26.8765C13.6701 26.8155 13.6921 26.7555 13.7131 26.6945C13.8161 26.3985 13.914 26.0945 13.966 25.7855C13.918 25.7575 13.871 25.7285 13.824 25.6995C13.347 25.4035 12.73 24.8975 12.146 25.2525C11.505 25.6445 11.916 26.6925 12.204 27.1905Z" fill="#DB6357"/>
<path d="M15.8261 19.5248C15.8321 19.5398 15.8381 19.5558 15.8441 19.5708C15.8911 19.6918 15.8781 19.8678 15.9051 20.0028C15.9391 20.1688 15.9611 20.3368 15.9611 20.5068C15.9611 20.8158 15.7491 21.0938 15.7491 21.4018C15.7491 21.5418 15.8261 21.6618 15.8811 21.7878C15.9471 21.9358 16.0191 22.0828 16.0971 22.2258C16.2551 22.5178 16.4351 22.7988 16.6361 23.0648C16.7761 23.2498 16.9331 23.4498 16.9191 23.6798C16.8961 24.0528 16.4991 24.1518 16.2091 24.2588C15.8981 24.3738 15.8221 24.7848 15.7821 25.0658C15.7261 25.4498 15.7361 25.8318 15.6641 26.2168C15.5751 26.6928 15.3621 27.0948 14.8351 27.1408C14.0901 27.2048 13.3341 27.0348 12.6681 26.7038C12.1471 26.4448 11.6791 26.0898 11.2731 25.6788C10.9231 25.3248 10.3991 25.0388 10.1801 24.5788C9.95209 24.0998 9.4951 24.1668 9.0651 23.9178C8.8931 23.8188 8.77609 23.6708 8.62409 23.5508C8.48709 23.4438 8.4211 23.3338 8.3591 23.1678C8.2111 22.7668 8.04509 22.3188 7.99909 21.8938C7.95109 21.4448 7.9291 20.9998 7.9661 20.5488C8.0201 19.8988 8.41111 19.2538 8.72611 18.6898C8.91611 18.3508 9.12109 18.0078 9.43009 17.7718C10.2651 17.1368 11.3861 16.7448 12.4541 16.8248C12.9561 16.8628 13.4151 16.9938 13.8971 17.1198C14.3431 17.2368 14.6981 17.5668 14.9851 17.9198C15.3671 18.3938 15.6051 18.9598 15.8261 19.5248Z" fill="#F7967C"/>
<path d="M9.67203 24.8286C9.86103 24.8086 10.29 24.6446 10.331 24.6166C10.604 24.4296 10.653 24.2036 10.796 23.9356C10.892 23.7556 11.008 23.6176 11.105 23.4046C11.233 23.1256 11.3 22.7836 11.56 22.5916C11.705 22.4846 11.8791 22.4226 12.0331 22.3286C12.3751 22.1196 12.343 21.8016 12.394 21.4456C12.447 21.0826 12.52 20.7146 12.716 20.3986C13.111 19.7606 13.808 19.4986 14.51 19.3666C15.169 19.2426 15.5 19.2176 15.418 18.4536C15.32 17.5536 14.65 16.9326 13.855 16.5926C13.394 16.3956 12.91 16.4296 12.414 16.4636C11.822 16.5026 11.237 16.6266 10.669 16.7946C10.271 16.9126 9.87704 17.0546 9.52204 17.2696C9.06304 17.5466 8.68203 17.9426 8.39603 18.3946C7.96603 19.0756 7.76104 19.6266 7.83704 20.4506C7.85804 20.6826 7.90004 20.9226 7.82404 21.1426C7.76004 21.3266 7.62205 21.4736 7.50605 21.6306C7.14905 22.1176 7.00403 22.7556 7.11503 23.3486C7.14003 23.4786 7.17503 23.6196 7.11603 23.7386C7.07703 23.8176 7.00303 23.8726 6.93903 23.9326C6.68903 24.1656 6.56004 24.5286 6.63404 24.8616C6.70804 25.1946 6.99704 25.4766 7.33604 25.5146C7.67504 25.5526 8.03303 25.3256 8.11603 24.9956C8.23103 25.3186 8.58805 25.5366 8.92905 25.4916C9.26905 25.4466 9.55604 25.1426 9.58304 24.8006C9.58204 24.8276 9.61603 24.8346 9.67203 24.8286Z" fill="#1E1B35"/>
<path d="M15.6379 20.9073C15.6319 20.8773 15.6209 20.8493 15.6059 20.8243C15.4849 20.6213 15.1519 20.6803 14.9589 20.7053C14.7069 20.7383 14.4729 20.8593 14.2619 20.9953C14.0569 21.1263 13.8479 21.2983 13.8069 21.5373C13.8049 21.5513 13.8029 21.5663 13.8119 21.5773C13.8569 21.6433 14.1649 21.4323 14.2149 21.4063C14.2869 21.3683 14.3639 21.3413 14.4409 21.3163C14.7259 21.2233 15.0239 21.1563 15.3239 21.1753C15.3889 21.1793 15.4569 21.1873 15.5189 21.1643C15.6239 21.1233 15.6589 21.0093 15.6379 20.9073Z" fill="#1E1B35"/>
<path d="M14.7018 22.0541C14.7148 21.9671 14.7408 21.8881 14.7928 21.8471C14.8298 21.8181 14.8798 21.8051 14.9288 21.8031C15.0708 21.7961 15.1578 21.8851 15.1768 22.0031C15.1888 22.0771 15.1778 22.1561 15.1618 22.2301C15.1448 22.3071 15.1178 22.3871 15.0778 22.4571C15.0558 22.4941 15.0268 22.5221 14.9828 22.5401C14.7998 22.6141 14.7068 22.4931 14.6958 22.3451C14.6908 22.2781 14.6858 22.1611 14.7018 22.0541Z" fill="#1E1B35"/>
<path d="M15.2039 24.9279C15.2009 24.8919 15.1889 24.8589 15.1659 24.8329C15.1249 24.7869 15.0639 24.7659 15.0099 24.7339C14.8889 24.6629 14.8098 24.5399 14.7148 24.4369C14.6698 24.3879 14.6198 24.3419 14.5598 24.3149C14.4588 24.2689 14.3319 24.2839 14.3059 24.4079C14.2689 24.5839 14.3008 24.7729 14.3918 24.9279C14.4828 25.0829 14.6338 25.2019 14.8048 25.2549C14.8738 25.2759 14.9509 25.2869 15.0189 25.2599C15.1169 25.2199 15.2139 25.0539 15.2039 24.9279Z" fill="white"/>
<path d="M12.7891 23.1004C12.7901 23.0914 12.7911 23.0824 12.7921 23.0734C12.8611 22.3554 12.1781 21.0814 11.3051 21.5284C10.9981 21.6854 10.8071 22.0244 10.7831 22.3684C10.7341 23.0364 11.3331 24.0944 12.0971 24.0604C12.5631 24.0404 12.7461 23.4934 12.7891 23.1004Z" fill="#F7967C"/>
<path d="M16.922 18.421C17.923 18.093 18.885 17.646 19.782 17.094C20.002 16.958 20.37 16.852 20.565 17.093C20.74 17.309 20.605 17.63 20.443 17.856C19.554 19.093 18.037 19.718 16.548 20.038C15.059 20.359 13.517 20.438 12.062 20.889C9.88602 21.563 7.89803 22.948 6.02003 24.195C5.72003 24.394 5.41403 24.596 5.06703 24.691C4.74703 24.778 3.84701 24.765 3.95701 24.216C4.06001 23.703 4.63001 23.474 5.04201 23.252C5.48401 23.014 5.92602 22.776 6.36802 22.538C6.64302 22.39 6.92303 22.235 7.15303 22.02C7.40403 21.784 7.49002 21.574 7.46702 21.234C7.42802 20.646 7.40303 20.057 7.39403 19.468C7.38603 18.982 7.39001 18.485 7.55501 18.029C7.65201 17.761 7.81202 17.511 8.02702 17.324C8.25302 17.128 8.51701 17.074 8.78801 16.971C9.45101 16.721 10.131 16.515 10.821 16.355C11.233 16.259 11.653 16.179 12.042 16.011C12.454 15.833 12.836 15.518 13.295 15.488C13.794 15.455 14.246 15.912 14.538 16.272C14.992 16.83 15.255 17.549 15.573 18.189C15.648 18.34 15.732 18.501 15.882 18.579C16.057 18.67 16.27 18.622 16.46 18.567C16.614 18.519 16.769 18.471 16.922 18.421Z" fill="#B2754B"/>
<path d="M20.0111 17.2552C19.6461 17.6652 19.2671 18.0672 18.8361 18.4082C18.3951 18.7562 17.9001 19.0152 17.3731 19.2052C16.2851 19.5982 15.1281 19.7672 13.9951 19.9752C12.8831 20.1792 11.7851 20.4272 10.7441 20.8782C9.78313 21.2942 8.88011 21.8312 7.96911 22.3432C7.06111 22.8532 6.13411 23.3472 5.13811 23.6632C5.01311 23.7032 4.88811 23.7392 4.76211 23.7732C4.72811 23.7822 4.70013 23.8092 4.72713 23.8412C4.75513 23.8732 4.82413 23.8682 4.86013 23.8592C5.87413 23.5872 6.82112 23.1232 7.73812 22.6182C8.65912 22.1112 9.55913 21.5632 10.5111 21.1152C11.0071 20.8822 11.5161 20.6812 12.0421 20.5252C12.6031 20.3582 13.1761 20.2352 13.7501 20.1262C14.8891 19.9092 16.0461 19.7482 17.1541 19.3982C17.6871 19.2302 18.2051 19.0112 18.6721 18.7002C19.1291 18.3952 19.5291 18.0132 19.9021 17.6122C19.9961 17.5112 20.0881 17.4092 20.1791 17.3062C20.2381 17.2382 20.0531 17.2082 20.0111 17.2552Z" fill="#F9C06E"/>
<path d="M11.5001 16.2713C11.4611 16.2583 11.4001 16.2603 11.3671 16.2893C10.7621 16.8133 10.0841 17.2443 9.35309 17.5693C9.31509 17.5863 9.32209 17.6203 9.35309 17.6393C9.39209 17.6623 9.45008 17.6573 9.49008 17.6393C10.2311 17.3093 10.9211 16.8703 11.5341 16.3393C11.5691 16.3093 11.5281 16.2803 11.5001 16.2713Z" fill="#F9C06E"/>
<path d="M14.9259 49.5086C14.3139 49.9046 13.6279 50.1846 12.9139 50.3306C11.2919 50.6606 9.69793 51.5416 8.25893 52.3636C6.75193 53.2246 5.31294 54.2006 3.87194 55.1666C2.96594 55.7746 2.01492 56.3936 0.933916 56.5446C0.357916 56.6246 0.125918 56.4346 0.0979179 55.9286C0.0679179 55.3806 0.0709367 54.7676 0.0359367 54.1926C-0.0410633 52.9046 0.0179179 51.6136 0.0979179 50.3266C0.381918 45.7536 0.940922 41.1986 1.77092 36.6926C2.02192 35.3286 2.26895 33.9146 2.76995 32.6176C3.39795 30.9926 4.08794 29.4726 5.24294 28.1416C5.65494 27.6666 6.11293 27.2136 6.37593 26.6426C6.47593 26.4256 6.54692 26.1936 6.67992 25.9956C7.07092 25.4146 7.99494 25.6846 8.55794 25.8266C10.5719 26.3346 12.5789 27.2966 13.2929 29.4266C13.4759 29.9726 13.5279 30.5516 13.6209 31.1196C14.2209 34.7616 14.8729 38.4006 15.2499 42.0746C15.4379 43.9096 15.5579 45.7526 15.5689 47.5976C15.5709 47.9986 15.7679 48.5926 15.5529 48.9606C15.4619 49.1156 15.3179 49.2316 15.1719 49.3376C15.0919 49.3976 15.0099 49.4546 14.9259 49.5086Z" fill="#404882"/>
<path d="M25.4399 39.3938C25.9739 39.3038 26.5139 39.2569 27.0549 39.2899C27.3099 39.3059 27.5699 39.3429 27.7919 39.4679C28.0349 39.6039 28.2789 39.8519 27.9949 40.0889C27.9009 40.1669 27.7809 40.2078 27.6629 40.2388C27.5019 40.2808 27.3379 40.3098 27.1719 40.3248C27.2249 40.3198 27.4519 40.5839 27.4779 40.6359C27.5319 40.7439 27.5089 40.9189 27.4609 41.0259C27.3699 41.2269 27.1028 41.3269 26.9029 41.2339C27.0498 41.4009 27.0898 41.6568 26.9888 41.8548C26.8878 42.0518 26.6449 42.1709 26.4299 42.1149C26.5809 42.2239 26.6059 42.4689 26.4809 42.6069C26.2859 42.8209 25.9168 42.7718 25.6608 42.7428C25.3638 42.7098 25.0749 42.6309 24.7919 42.5379C24.4509 42.4259 24.1169 42.2878 23.7709 42.1888C23.5229 42.1178 23.2169 42.2158 22.9769 42.2948C22.7989 42.3538 22.5779 42.4319 22.4439 42.2999C22.3839 42.2409 22.3629 42.1548 22.3449 42.0728C22.2639 41.6948 22.2239 41.3079 22.2249 40.9209C22.2259 40.7729 22.2359 40.6149 22.3269 40.4989C22.3889 40.4199 22.4799 40.3709 22.5689 40.3239C22.9849 40.1039 23.4048 39.8818 23.8588 39.7578C24.3768 39.6188 24.9049 39.4838 25.4399 39.3938Z" fill="#F7967C"/>
<path d="M13.8899 44.2658C13.2529 44.7888 12.6649 45.4098 11.9109 45.7608C11.5719 45.9188 11.3739 46.3218 10.9549 46.2528C10.9029 46.2448 10.8529 46.2308 10.8039 46.2128C10.1139 45.9548 9.63391 45.0798 9.23191 44.5128C8.72791 43.8028 8.2619 43.0668 7.8219 42.3168C7.5649 41.8788 7.29293 41.4388 7.07093 40.9818C6.90193 40.6348 6.71793 40.2068 6.28193 40.1358C6.17093 40.1178 6.05691 40.1318 5.94391 40.1238C5.35791 40.0828 4.9879 39.4828 4.7789 38.9338C4.0619 37.0518 4.06491 34.9808 4.36191 33.0128C4.54191 31.8218 5.08991 30.5968 6.10691 29.8948C7.19491 29.1438 8.47293 29.2608 9.40693 30.2308C10.1109 30.9628 10.4679 31.9518 10.8119 32.9068C11.8019 35.6568 12.8469 38.3868 13.9459 41.0948C14.2669 41.8858 14.7649 42.8248 14.4469 43.6898C14.3579 43.9318 14.0819 44.1088 13.8899 44.2658Z" fill="#404882"/>
<path d="M23.3999 39.8661C23.4949 40.0851 23.4819 40.5352 23.4829 40.6532C23.4859 41.0372 23.6449 41.9331 23.3979 42.2421C23.2889 42.3791 23.0159 42.4451 22.8729 42.5491C22.6499 42.7101 22.4639 42.9212 22.2699 43.1142C21.1299 44.2522 19.7149 44.8051 18.1989 45.2451C16.5139 45.7341 14.8079 46.1601 13.0759 46.4471C12.3699 46.5641 11.4319 46.6371 10.8129 46.2061C10.1599 45.7511 9.9769 44.8801 10.1319 44.1391C10.2829 43.4151 10.7479 42.7781 11.3439 42.3401C11.9789 41.8731 12.8629 41.5711 13.6539 41.5271C15.9769 41.4001 18.2339 40.5822 20.4709 39.9742C20.8089 39.8822 21.1679 39.7912 21.5029 39.8922C21.6239 39.9282 21.7359 39.9892 21.8589 40.0172C22.3289 40.1262 22.7799 39.7491 23.2619 39.7441C23.3229 39.7451 23.3679 39.7921 23.3999 39.8661Z" fill="#404882"/>
<path d="M15.4898 45.8927C15.4388 45.8267 15.3288 45.8387 15.2578 45.8537C15.1348 45.8787 15.0119 45.9067 14.8899 45.9337C14.4069 46.0387 13.9229 46.1417 13.4319 46.2017C12.5589 46.3097 11.6328 46.2707 10.8358 45.8617C10.0248 45.4457 9.53385 44.6577 9.05185 43.9167C8.52585 43.1087 8.02485 42.2857 7.54785 41.4477C7.01185 40.5037 6.50685 39.5427 6.03485 38.5647C6.00685 38.5057 5.81584 38.5247 5.84784 38.5907C6.65084 40.2537 7.54785 41.8697 8.53485 43.4307C8.77585 43.8117 9.01885 44.1917 9.27585 44.5617C9.51185 44.9037 9.76885 45.2377 10.0818 45.5127C10.6978 46.0537 11.5069 46.2927 12.3129 46.3427C12.8179 46.3737 13.3249 46.3277 13.8239 46.2477C14.0819 46.2067 14.3388 46.1557 14.5948 46.1017C14.7258 46.0747 14.8568 46.0457 14.9868 46.0177C15.0478 46.0047 15.1098 45.9907 15.1708 45.9777C15.2018 45.9707 15.2318 45.9647 15.2628 45.9577L15.2658 45.9567C15.2968 46.0467 15.5688 45.9967 15.4898 45.8927Z" fill="#1E1B35"/>
<path d="M14.8888 41.4776C14.6888 41.4896 14.4908 41.5196 14.2968 41.5636C13.4418 39.7696 12.7448 37.9126 12.1728 36.0106C11.8968 35.0936 11.6348 34.1726 11.3168 33.2686C11.0018 32.3756 10.6358 31.4826 10.1358 30.6766C9.87483 30.2556 9.54583 29.8966 9.10983 29.6546C8.69083 29.4226 8.20883 29.3066 7.72983 29.3216C7.70083 29.3226 7.63281 29.3296 7.63281 29.3706C7.63281 29.4106 7.70283 29.4206 7.72983 29.4196C8.15583 29.4056 8.57583 29.5086 8.94983 29.7116C9.33983 29.9236 9.64581 30.2366 9.88681 30.6056C10.1408 30.9936 10.3508 31.4126 10.5438 31.8336C10.7388 32.2576 10.9118 32.6906 11.0698 33.1296C11.3888 34.0116 11.6498 34.9126 11.9178 35.8116C12.1968 36.7466 12.4948 37.6746 12.8358 38.5886C13.2188 39.6136 13.6468 40.6216 14.1178 41.6086C13.5278 41.7756 12.9838 42.0896 12.5518 42.5316C12.4898 42.5956 12.6758 42.6266 12.7188 42.5816C13.2888 41.9976 14.0708 41.6256 14.8878 41.5756C14.9168 41.5736 14.9848 41.5676 14.9848 41.5266C14.9848 41.4876 14.9158 41.4756 14.8888 41.4776Z" fill="#1E1B35"/>
<path d="M13.1348 30.0775C13.0448 29.9965 12.9528 29.9175 12.8598 29.8415C12.6768 29.6915 12.4868 29.5495 12.2908 29.4155C11.8938 29.1425 11.4768 28.9015 11.0458 28.6875C10.1318 28.2335 9.16281 27.9025 8.18381 27.6215C7.60281 27.4545 7.01783 27.3055 6.43183 27.1555C6.39483 27.1465 6.32783 27.1405 6.29883 27.1735C6.27183 27.2045 6.29884 27.2325 6.33384 27.2415C7.33384 27.4965 8.33583 27.7525 9.31083 28.0935C10.2158 28.4095 11.0978 28.8015 11.9058 29.3215C12.1278 29.4645 12.3428 29.6165 12.5498 29.7785C12.6528 29.8585 12.7528 29.9415 12.8518 30.0265C12.9008 30.0695 12.9498 30.1125 12.9978 30.1565C13.0478 30.2015 13.1068 30.2475 13.0968 30.3215C13.0888 30.3855 13.2818 30.3925 13.2908 30.3215C13.3048 30.2145 13.2048 30.1415 13.1348 30.0775Z" fill="#1E1B35"/>
</svg>
