<svg width="1349" height="296" viewBox="0 0 1349 296" fill="none" xmlns="http://www.w3.org/2000/svg">
<path d="M1325.61 144.073C1323.42 142.689 1320.94 141.594 1318.17 140.786C1315.52 139.979 1312.75 139.229 1309.87 138.537C1307.1 137.845 1304.39 137.096 1301.74 136.288C1299.09 135.366 1296.66 134.097 1294.47 132.482C1289.74 128.907 1286.98 124.524 1286.17 119.334C1285.48 114.029 1286.63 108.724 1289.63 103.418C1291.24 100.65 1293.38 98.4015 1296.03 96.6715C1298.68 94.8261 1301.57 93.4421 1304.68 92.5195C1307.91 91.4815 1311.2 90.9048 1314.54 90.7895C1317.89 90.6742 1321.06 90.8471 1324.06 91.3085C1326.02 91.6545 1328.09 92.1735 1330.28 92.8655C1332.47 93.4421 1334.49 94.2495 1336.34 95.2875C1338.3 96.3255 1340.03 97.6518 1341.53 99.2665C1343.14 100.766 1344.3 102.669 1344.99 104.975C1345.45 106.475 1345.51 107.916 1345.16 109.3C1344.93 110.684 1344.35 111.838 1343.43 112.76C1342.62 113.683 1341.53 114.375 1340.14 114.836C1338.88 115.298 1337.49 115.413 1335.99 115.182C1334.26 114.836 1332.65 114.317 1331.15 113.625C1329.65 112.933 1328.15 112.184 1326.65 111.376C1325.15 110.569 1323.59 109.877 1321.98 109.3C1320.48 108.724 1318.87 108.435 1317.14 108.435C1314.48 108.32 1312.29 108.781 1310.56 109.819C1308.83 110.857 1307.62 112.126 1306.93 113.625C1306.35 115.125 1306.41 116.739 1307.1 118.469C1307.91 120.199 1309.52 121.699 1311.95 122.967C1314.14 124.121 1316.56 125.043 1319.21 125.735C1321.86 126.427 1324.46 127.119 1327 127.811C1329.65 128.503 1332.19 129.311 1334.61 130.233C1337.15 131.156 1339.39 132.425 1341.36 134.039C1345.16 137.153 1347.47 140.786 1348.28 144.938C1349.2 149.09 1348.97 153.185 1347.58 157.221C1346.2 161.258 1343.78 164.833 1340.32 167.947C1336.97 171.061 1332.99 173.137 1328.38 174.175C1325.04 174.867 1321.4 175.213 1317.48 175.213C1313.68 175.213 1309.87 174.81 1306.06 174.002C1302.37 173.195 1298.8 171.926 1295.34 170.196C1291.99 168.466 1289.17 166.275 1286.86 163.622C1285.25 161.777 1284.38 159.701 1284.27 157.394C1284.27 154.972 1284.73 152.896 1285.65 151.166C1286.69 149.321 1288.13 148.052 1289.97 147.36C1291.82 146.668 1293.9 147.072 1296.2 148.571C1298.05 149.84 1300.24 151.109 1302.78 152.377C1305.31 153.531 1307.85 154.453 1310.39 155.145C1312.93 155.837 1315.35 156.183 1317.65 156.183C1320.08 156.183 1322.15 155.664 1323.88 154.626C1326.42 153.012 1327.75 151.166 1327.86 149.09C1327.98 146.899 1327.23 145.227 1325.61 144.073Z" fill="#7FB6EB"/>
<path d="M1270.08 134.212C1270.31 137.903 1270.42 141.42 1270.42 144.765C1270.42 147.994 1270.31 151.454 1270.08 155.145C1270.08 156.529 1270.08 158.086 1270.08 159.816C1270.08 161.546 1269.96 163.218 1269.73 164.833C1269.5 166.448 1269.1 167.947 1268.52 169.331C1267.94 170.715 1267.08 171.811 1265.92 172.618C1264.54 173.541 1262.98 174.175 1261.25 174.521C1259.52 174.752 1257.91 174.636 1256.41 174.175C1254.91 173.714 1253.58 172.849 1252.43 171.58C1251.39 170.311 1250.81 168.524 1250.7 166.217C1250.35 160.912 1250.18 155.606 1250.18 150.301C1250.18 147.648 1250.12 145.111 1250.01 142.689C1250.01 140.267 1250.07 136.865 1250.18 132.482C1250.18 130.291 1250.01 127.811 1249.66 125.043C1249.32 122.16 1248.45 120.141 1247.07 118.988C1246.03 118.065 1244.88 117.546 1243.61 117.431C1242.34 117.2 1241.07 117.316 1239.8 117.777C1238.65 118.238 1237.61 119.103 1236.69 120.372C1235.76 121.525 1235.13 123.025 1234.78 124.87C1234.78 126.369 1234.73 127.926 1234.61 129.541C1234.61 131.04 1234.67 132.482 1234.78 133.866C1234.9 137.557 1234.96 141.074 1234.96 144.419C1234.96 147.648 1234.9 151.108 1234.78 154.799C1234.67 156.298 1234.61 157.913 1234.61 159.643C1234.73 161.373 1234.73 163.103 1234.61 164.833C1234.5 166.448 1234.15 167.947 1233.57 169.331C1233.11 170.715 1232.25 171.811 1230.98 172.618C1229.59 173.541 1228.09 174.117 1226.48 174.348C1224.98 174.463 1223.54 174.233 1222.15 173.656C1220.89 172.964 1219.73 171.926 1218.69 170.542C1217.77 169.158 1217.25 167.313 1217.14 165.006C1216.91 162.353 1216.73 159.931 1216.62 157.74C1216.62 155.433 1216.62 153.011 1216.62 150.474C1216.62 147.821 1216.68 145.111 1216.79 142.343C1216.91 139.46 1216.85 136.692 1216.62 134.039C1216.62 133.232 1216.56 132.309 1216.45 131.271C1216.45 130.118 1216.39 128.964 1216.27 127.811C1216.27 126.658 1216.16 125.562 1215.93 124.524C1215.81 123.371 1215.58 122.448 1215.23 121.756C1214.31 120.141 1212.64 119.103 1210.22 118.642C1207.91 118.181 1205.95 118.354 1204.34 119.161C1202.72 119.968 1201.51 121.006 1200.7 122.275C1199.9 123.544 1199.32 124.928 1198.97 126.427C1198.63 127.926 1198.45 129.541 1198.45 131.271C1198.45 132.886 1198.45 134.443 1198.45 135.942C1198.45 143.439 1198.45 149.955 1198.45 155.491C1198.57 160.912 1197.99 165.294 1196.72 168.639C1196.15 170.369 1194.94 171.695 1193.09 172.618C1191.36 173.541 1189.46 174.002 1187.38 174.002C1185.42 174.002 1183.58 173.541 1181.85 172.618C1180.12 171.695 1178.96 170.254 1178.39 168.293C1178.04 167.024 1177.69 165.237 1177.35 162.93C1177.12 160.508 1176.94 157.855 1176.83 154.972C1176.71 152.089 1176.66 149.205 1176.66 146.322C1176.66 143.323 1176.66 140.613 1176.66 138.191V113.279C1176.54 110.626 1176.48 107.743 1176.48 104.629C1176.48 101.515 1176.94 98.6894 1177.87 96.1521C1178.67 93.9607 1179.94 92.5767 1181.67 92.0001C1183.4 91.3081 1185.19 91.0197 1187.04 91.1351C1189.11 91.1351 1190.73 91.7117 1191.88 92.8651C1193.15 93.9031 1194.07 95.2294 1194.65 96.8441C1195.22 98.3434 1195.57 100.073 1195.69 102.034C1195.8 103.879 1195.92 105.667 1196.03 107.397C1197.3 104.514 1198.8 102.149 1200.53 100.304C1202.37 98.3434 1204.97 97.0747 1208.31 96.4981C1216.85 94.8834 1223.65 97.0747 1228.73 103.072C1231.04 100.765 1233.98 98.8624 1237.55 97.3631C1240.32 96.3251 1243.15 95.8637 1246.03 95.9791C1248.91 95.9791 1251.62 96.4981 1254.16 97.5361C1256.81 98.5741 1259.18 100.073 1261.25 102.034C1263.44 103.995 1265.17 106.359 1266.44 109.127C1268.17 112.818 1269.15 116.912 1269.38 121.41C1269.61 125.908 1269.84 130.175 1270.08 134.212Z" fill="#7FB6EB"/>
<path d="M1097.04 101.689C1100.5 99.9588 1104.13 98.7478 1107.94 98.0558C1111.75 97.2485 1115.49 97.0755 1119.19 97.5368C1122.99 97.8828 1126.62 98.8631 1130.08 100.478C1133.54 101.977 1136.77 104.168 1139.77 107.052C1142.77 110.05 1145.08 113.337 1146.69 116.913C1148.31 120.488 1149.46 124.467 1150.15 128.85C1150.61 131.848 1151.36 134.616 1152.4 137.154C1153.44 139.691 1154.54 142.228 1155.69 144.766C1156.96 147.303 1158.11 149.84 1159.15 152.378C1160.3 154.915 1161.22 157.568 1161.92 160.336C1162.49 162.988 1162.26 165.583 1161.22 168.121C1160.3 170.543 1158.34 172.042 1155.34 172.619C1153.61 172.965 1151.94 172.849 1150.33 172.273C1148.83 171.581 1147.44 170.658 1146.17 169.505C1144.9 168.236 1143.75 166.91 1142.71 165.526C1141.79 164.026 1140.93 162.642 1140.12 161.374C1137.47 164.834 1134.58 167.544 1131.47 169.505C1128.35 171.35 1124.61 172.561 1120.22 173.138C1116.53 173.599 1113.02 173.714 1109.67 173.484C1106.33 173.253 1102.75 172.619 1098.94 171.581C1093.99 170.312 1089.89 168.121 1086.66 165.007C1083.55 161.777 1081.13 158.087 1079.4 153.935C1077.78 149.667 1076.92 145.112 1076.8 140.268C1076.69 135.424 1077.26 130.637 1078.53 125.909C1080.15 119.681 1082.57 114.606 1085.8 110.685C1089.03 106.763 1092.77 103.765 1097.04 101.689ZM1101.37 121.93C1099.75 123.544 1098.48 125.447 1097.56 127.639C1096.64 129.83 1096.06 132.137 1095.83 134.559C1095.72 136.981 1095.95 139.403 1096.52 141.825C1097.1 144.247 1098.02 146.38 1099.29 148.226C1100.44 149.84 1102.4 151.224 1105.17 152.378C1107.94 153.416 1110.82 154.05 1113.82 154.281C1117.28 154.511 1120.28 153.589 1122.82 151.513C1125.47 149.437 1127.43 146.842 1128.7 143.728C1130.08 140.498 1130.72 137.096 1130.6 133.521C1130.49 129.83 1129.51 126.485 1127.66 123.487C1126.28 121.295 1124.43 119.681 1122.13 118.643C1119.94 117.605 1117.57 117.086 1115.03 117.086C1112.5 116.97 1109.96 117.374 1107.42 118.297C1105 119.104 1102.98 120.315 1101.37 121.93Z" fill="#7FB6EB"/>
<path d="M1050.67 150.82C1052.05 150.474 1053.43 150.244 1054.82 150.128C1056.32 150.013 1057.64 150.186 1058.8 150.647C1060.07 151.109 1061.1 151.916 1061.91 153.069C1062.72 154.107 1063.12 155.607 1063.12 157.567C1063.12 158.951 1062.78 160.278 1062.08 161.546C1061.39 162.815 1060.53 163.968 1059.49 165.006C1058.45 166.044 1057.3 166.967 1056.03 167.774C1054.76 168.466 1053.55 169.043 1052.4 169.504C1049.05 171.004 1045.19 172.157 1040.8 172.964C1036.54 173.772 1032.1 174.06 1027.48 173.829C1021.26 173.599 1015.26 172.388 1009.49 170.196C1003.84 167.89 999.4 164.141 996.17 158.951C993.172 153.877 991.384 148.225 990.807 141.997C990.231 135.769 990.519 129.887 991.672 124.351C992.941 117.662 995.075 112.241 998.073 108.089C1001.19 103.822 1004.88 100.42 1009.15 97.8823C1014.34 94.8836 1020.16 93.3266 1026.62 93.2113C1033.08 93.096 1039.25 94.3646 1045.13 97.0173C1049.05 98.7473 1052.57 101.112 1055.68 104.11C1058.8 106.994 1061.16 110.511 1062.78 114.663C1063.24 115.701 1063.58 116.97 1063.81 118.469C1064.16 119.969 1064.39 121.583 1064.51 123.313C1064.62 124.928 1064.62 126.543 1064.51 128.157C1064.39 129.772 1064.1 131.214 1063.64 132.482C1062.95 134.558 1062.08 136.173 1061.05 137.326C1060.01 138.48 1058.68 139.345 1057.07 139.921C1055.45 140.498 1053.49 140.902 1051.18 141.132C1048.99 141.248 1046.34 141.363 1043.23 141.478C1040.46 141.594 1037.86 141.651 1035.44 141.651C1033.02 141.651 1030.54 141.651 1028 141.651C1025.47 141.536 1022.81 141.478 1020.04 141.478C1017.39 141.363 1014.39 141.248 1011.05 141.132C1010.7 143.439 1010.99 145.457 1011.91 147.187C1012.95 148.802 1014.34 150.186 1016.07 151.339C1017.8 152.377 1019.76 153.185 1021.95 153.761C1024.14 154.338 1026.27 154.684 1028.35 154.799C1032.27 155.03 1036.02 154.742 1039.59 153.934C1043.17 153.012 1046.86 151.974 1050.67 150.82ZM1043.23 117.258C1041.04 114.721 1038.73 112.876 1036.31 111.722C1034.46 110.915 1032.5 110.569 1030.42 110.684C1028.46 110.684 1026.56 110.973 1024.72 111.549C1021.37 112.357 1018.55 114.087 1016.24 116.739C1016.01 116.97 1015.6 117.547 1015.03 118.469C1014.45 119.277 1013.87 120.142 1013.3 121.064C1012.84 121.987 1012.49 122.852 1012.26 123.659C1012.03 124.467 1012.14 124.87 1012.61 124.87H1046.51C1046.4 123.256 1046.11 121.929 1045.65 120.891C1045.19 119.738 1044.38 118.527 1043.23 117.258Z" fill="#7FB6EB"/>
<path d="M991.694 57.4007C992.963 58.9 993.597 60.457 993.597 62.0717C993.597 62.7637 993.539 63.5133 993.424 64.3207C993.424 65.0127 993.366 65.647 993.251 66.2237C992.905 67.4923 992.155 68.7033 991.002 69.8567C990.079 70.5487 988.811 71.0677 987.196 71.4137C986.389 71.6443 985.581 71.8173 984.774 71.9327C983.967 72.048 983.102 72.221 982.179 72.4517C981.372 72.567 980.564 72.6247 979.757 72.6247C978.95 72.6247 978.085 72.6247 977.162 72.6247H968.339C966.263 72.74 964.187 72.7977 962.111 72.7977C960.15 72.7977 958.19 72.7977 956.229 72.7977C956.344 76.373 956.402 80.2367 956.402 84.3887C956.402 88.4253 956.344 93.154 956.229 98.5747C956.229 103.995 956.171 110.281 956.056 117.432C956.056 124.582 956.056 132.886 956.056 142.344V155.492C956.056 156.645 956.114 157.51 956.229 158.087C956.229 158.548 956.229 159.009 956.229 159.471C956.229 159.817 956.171 160.278 956.056 160.855C955.825 161.893 955.652 163.104 955.537 164.488C955.537 165.064 955.479 165.641 955.364 166.218C955.249 166.679 955.076 167.198 954.845 167.775C954.384 168.236 954.153 168.582 954.153 168.813L953.634 169.851C953.057 171.004 951.962 172.1 950.347 173.138C947.81 174.406 944.984 174.695 941.87 174.003C939.909 173.772 938.41 173.253 937.372 172.446C936.334 171.408 935.584 170.37 935.123 169.332C934.431 168.063 934.027 166.852 933.912 165.699C933.566 164.661 933.393 163.565 933.393 162.412V73.4897C932.701 73.4897 931.259 73.4897 929.068 73.4897C926.877 73.4897 924.512 73.4897 921.975 73.4897C919.553 73.3743 917.246 73.259 915.055 73.1437C912.864 73.0283 911.364 72.913 910.557 72.7977C909.865 72.6823 908.769 72.5093 907.27 72.2787C905.886 72.048 904.733 71.8173 903.81 71.5867C901.388 70.8947 899.485 69.799 898.101 68.2997C896.832 66.8003 896.198 65.128 896.198 63.2827C896.198 62.5907 896.198 61.8987 896.198 61.2067C896.198 60.5147 896.313 59.8803 896.544 59.3037C896.89 57.9197 897.813 56.7663 899.312 55.8437C899.773 55.4977 900.465 55.094 901.388 54.6327C902.426 54.056 903.406 53.6523 904.329 53.4217C905.713 52.9603 907.443 52.6143 909.519 52.3837C910.442 52.2683 911.364 52.2107 912.287 52.2107C913.21 52.2107 914.19 52.2107 915.228 52.2107C919.265 52.2107 923.071 52.2107 926.646 52.2107C930.337 52.2107 934.2 52.153 938.237 52.0377C944.926 51.9223 951.558 51.9223 958.132 52.0377C964.821 52.0377 971.453 52.153 978.027 52.3837C979.526 52.499 980.968 52.672 982.352 52.9027C983.736 53.1333 985.12 53.537 986.504 54.1137C987.542 54.4597 988.522 54.921 989.445 55.4977C990.368 55.959 991.117 56.5933 991.694 57.4007Z" fill="#7FB6EB"/>
<path d="M750.977 178.846C749.708 178.616 748.439 178.385 747.171 178.154C745.902 178.039 744.633 177.808 743.365 177.462C738.751 176.54 734.311 174.867 730.044 172.445C725.892 170.023 722.778 166.563 720.702 162.065C718.856 158.375 717.588 154.396 716.896 150.128C716.319 145.861 716.204 141.709 716.55 137.672C716.78 133.636 717.588 129.541 718.972 125.389C720.471 121.237 722.662 117.72 725.546 114.836C725.776 114.606 726.238 114.202 726.93 113.625C727.622 112.933 728.371 112.241 729.179 111.549C729.986 110.857 730.736 110.281 731.428 109.819C732.12 109.243 732.523 109.012 732.639 109.127C730.332 106.244 728.487 103.072 727.103 99.6124C725.834 96.1524 725.027 92.6347 724.681 89.0594C724.335 85.3687 724.335 81.7357 724.681 78.1604C725.142 74.4697 725.949 71.0097 727.103 67.7803C728.948 62.3597 731.831 58.0347 735.753 54.8054C739.674 51.576 744.114 49.3847 749.074 48.2314C754.033 46.9627 759.165 46.6744 764.471 47.3664C769.776 47.943 774.678 49.4424 779.176 51.8644C784.366 54.4017 788.114 58.2077 790.421 63.2824C792.843 68.2417 794.284 73.4894 794.746 79.0253C794.976 81.9087 795.034 84.8497 794.919 87.8483C794.919 90.847 794.573 93.788 793.881 96.6714C793.189 99.5547 792.093 102.265 790.594 104.802C789.094 107.34 787.018 109.531 784.366 111.376C785.404 112.299 786.442 113.395 787.48 114.663C788.633 115.817 789.498 116.855 790.075 117.777C791.343 119.392 792.554 121.526 793.708 124.178L797.514 132.309C797.398 132.079 797.514 131.675 797.86 131.098C798.321 130.406 798.84 129.714 799.417 129.022C799.993 128.33 800.512 127.696 800.974 127.119C801.55 126.427 801.896 126.024 802.012 125.908C802.934 124.64 804.03 123.313 805.299 121.929C806.567 120.545 807.894 119.334 809.278 118.296C810.777 117.143 812.334 116.336 813.949 115.874C815.563 115.413 817.236 115.413 818.966 115.874C820.58 116.336 821.618 117.143 822.08 118.296C822.656 119.334 822.829 120.603 822.599 122.102C822.368 123.486 821.849 124.986 821.042 126.6C820.35 128.1 819.542 129.599 818.62 131.098C817.812 132.482 817.005 133.751 816.198 134.904C815.39 136.058 814.756 136.923 814.295 137.499C813.257 139.114 812.219 140.671 811.181 142.17C810.258 143.554 809.278 144.996 808.24 146.495C808.124 146.726 807.605 147.36 806.683 148.398C805.875 149.321 805.529 149.898 805.645 150.128C806.337 151.512 807.432 153.646 808.932 156.529C810.546 159.297 811.815 162.181 812.738 165.179C813.66 168.178 813.949 171.004 813.603 173.656C813.257 176.194 811.584 177.866 808.586 178.673C806.394 179.25 804.145 178.962 801.839 177.808C799.647 176.655 797.86 175.271 796.476 173.656C796.245 173.426 795.784 172.849 795.092 171.926C794.515 171.004 793.881 170.023 793.189 168.985C792.612 167.832 792.093 166.736 791.632 165.698C791.286 164.66 791.228 163.911 791.459 163.449C789.267 166.102 786.961 168.524 784.539 170.715C782.232 172.791 779.522 174.464 776.408 175.732C772.371 177.347 768.219 178.327 763.952 178.673C759.684 179.135 755.359 179.192 750.977 178.846ZM763.26 160.335C764.99 160.105 766.835 159.643 768.796 158.951C770.756 158.144 772.659 157.164 774.505 156.01C776.35 154.857 777.965 153.588 779.349 152.204C780.848 150.705 781.944 149.09 782.636 147.36C782.866 146.553 782.809 145.63 782.463 144.592C782.117 143.439 781.655 142.286 781.079 141.132C780.502 139.979 779.925 138.883 779.349 137.845C778.772 136.807 778.311 135.942 777.965 135.25C777.042 133.059 775.831 130.868 774.332 128.676C772.948 126.485 771.275 124.813 769.315 123.659C765.047 121.122 760.549 120.142 755.821 120.718C751.323 121.18 747.344 122.91 743.884 125.908C740.539 128.907 738.694 132.886 738.348 137.845C738.117 140.498 738.175 143.324 738.521 146.322C738.867 149.206 739.789 151.685 741.289 153.761C743.48 156.529 746.709 158.49 750.977 159.643C755.244 160.681 759.338 160.912 763.26 160.335ZM762.914 101.169C766.72 100.939 769.488 99.6124 771.218 97.1904C772.948 94.7684 773.986 91.9427 774.332 88.7134C774.678 86.9834 774.908 85.311 775.024 83.6964C775.139 81.9664 775.081 80.294 774.851 78.6794C774.62 77.0647 774.101 75.5654 773.294 74.1814C772.486 72.682 771.218 71.3557 769.488 70.2024C767.066 68.4724 764.24 67.492 761.011 67.2614C757.781 67.0307 754.84 67.7804 752.188 69.5103C749.996 70.779 748.382 72.336 747.344 74.1814C746.306 75.9114 745.671 77.9297 745.441 80.2364C745.095 83.0044 745.152 85.7724 745.614 88.5404C746.19 91.193 747.171 93.5573 748.555 95.6334C749.939 97.594 751.784 99.151 754.091 100.304C756.513 101.342 759.454 101.631 762.914 101.169Z" fill="#E9B935"/>
<path d="M646.051 140.44C646.166 142.747 646.224 145.169 646.224 147.706C646.224 150.128 646.166 152.377 646.051 154.453C645.935 157.567 645.762 160.451 645.532 163.103C645.301 165.641 644.84 167.832 644.148 169.677C643.456 171.407 642.36 172.734 640.861 173.656C639.477 174.464 637.516 174.694 634.979 174.348C632.326 174.002 630.423 172.734 629.27 170.542C628.116 168.351 627.309 165.871 626.848 163.103C626.502 160.22 626.386 157.337 626.502 154.453C626.617 151.57 626.617 149.321 626.502 147.706C626.386 145.169 626.271 142.286 626.156 139.056C626.156 135.712 625.81 132.598 625.118 129.714C624.541 126.716 623.503 124.178 622.004 122.102C620.504 120.026 618.255 118.931 615.257 118.815C611.451 118.585 608.51 118.873 606.434 119.68C604.473 120.488 603.031 121.699 602.109 123.313C601.186 124.813 600.609 126.658 600.379 128.849C600.263 131.041 600.033 133.405 599.687 135.942L599.514 142.689V155.318C599.514 157.394 599.456 159.586 599.341 161.892C599.341 164.084 598.995 166.102 598.303 167.947C597.611 169.793 596.515 171.35 595.016 172.618C593.632 173.887 591.556 174.521 588.788 174.521C585.328 174.521 582.733 173.426 581.003 171.234C579.388 168.928 578.581 166.102 578.581 162.757V63.2825C578.581 62.5905 578.581 61.9561 578.581 61.3795C578.696 60.6875 578.811 59.9955 578.927 59.3035C579.157 58.6115 579.33 57.9771 579.446 57.4005C579.561 56.7085 579.734 56.0741 579.965 55.4975C580.311 54.3441 580.887 53.4791 581.695 52.9025C582.271 52.3258 582.848 51.8645 583.425 51.5185C584.001 51.1725 584.636 50.9418 585.328 50.8265C585.904 50.7111 586.539 50.6535 587.231 50.6535C587.923 50.5381 588.615 50.4805 589.307 50.4805C591.037 50.4805 592.709 50.9995 594.324 52.0375C595.016 52.4988 595.65 53.0178 596.227 53.5945C596.803 54.0558 597.265 54.7478 597.611 55.6705C598.533 57.8618 598.995 59.9378 598.995 61.8985C599.11 62.4751 599.168 63.3401 599.168 64.4935C599.283 65.5315 599.341 66.6271 599.341 67.7805C599.341 68.9338 599.341 70.0871 599.341 71.2405C599.456 72.2785 599.514 73.0858 599.514 73.6625V74.5275C599.629 78.2181 599.687 81.9665 599.687 85.7725C599.687 89.5785 599.687 93.4421 599.687 97.3635V100.304C604.531 98.6898 609.605 97.9401 614.911 98.0555C620.216 98.0555 624.945 99.0935 629.097 101.169C633.364 103.361 636.593 105.84 638.785 108.608C641.091 111.376 642.764 114.433 643.802 117.777C644.84 121.122 645.416 124.697 645.532 128.503C645.762 132.309 645.935 136.288 646.051 140.44Z" fill="#1858B7"/>
<path d="M541.368 144.073C539.177 142.689 536.697 141.594 533.929 140.786C531.277 139.979 528.509 139.229 525.625 138.537C522.857 137.845 520.147 137.096 517.494 136.288C514.842 135.366 512.42 134.097 510.228 132.482C505.5 128.907 502.732 124.524 501.924 119.334C501.232 114.029 502.386 108.724 505.384 103.418C506.999 100.65 509.133 98.4015 511.785 96.6715C514.438 94.8261 517.321 93.4421 520.435 92.5195C523.665 91.4815 526.952 90.9048 530.296 90.7895C533.641 90.6742 536.813 90.8471 539.811 91.3085C541.772 91.6545 543.848 92.1735 546.039 92.8655C548.231 93.4421 550.249 94.2495 552.094 95.2875C554.055 96.3255 555.785 97.6518 557.284 99.2665C558.899 100.766 560.052 102.669 560.744 104.975C561.206 106.475 561.263 107.916 560.917 109.3C560.687 110.684 560.11 111.838 559.187 112.76C558.38 113.683 557.284 114.375 555.9 114.836C554.632 115.298 553.248 115.413 551.748 115.182C550.018 114.836 548.404 114.317 546.904 113.625C545.405 112.933 543.906 112.184 542.406 111.376C540.907 110.569 539.35 109.877 537.735 109.3C536.236 108.724 534.621 108.435 532.891 108.435C530.239 108.32 528.047 108.781 526.317 109.819C524.587 110.857 523.376 112.126 522.684 113.625C522.108 115.125 522.165 116.739 522.857 118.469C523.665 120.199 525.279 121.699 527.701 122.967C529.893 124.121 532.315 125.043 534.967 125.735C537.62 126.427 540.215 127.119 542.752 127.811C545.405 128.503 547.942 129.311 550.364 130.233C552.902 131.156 555.151 132.425 557.111 134.039C560.917 137.153 563.224 140.786 564.031 144.938C564.954 149.09 564.723 153.185 563.339 157.221C561.955 161.258 559.533 164.833 556.073 167.947C552.729 171.061 548.75 173.137 544.136 174.175C540.792 174.867 537.159 175.213 533.237 175.213C529.431 175.213 525.625 174.81 521.819 174.002C518.129 173.195 514.553 171.926 511.093 170.196C507.749 168.466 504.923 166.275 502.616 163.622C501.002 161.777 500.137 159.701 500.021 157.394C500.021 154.972 500.483 152.896 501.405 151.166C502.443 149.321 503.885 148.052 505.73 147.36C507.576 146.668 509.652 147.072 511.958 148.571C513.804 149.84 515.995 151.109 518.532 152.377C521.07 153.531 523.607 154.453 526.144 155.145C528.682 155.837 531.104 156.183 533.41 156.183C535.832 156.183 537.908 155.664 539.638 154.626C542.176 153.012 543.502 151.166 543.617 149.09C543.733 146.899 542.983 145.227 541.368 144.073Z" fill="#1858B7"/>
<path d="M484.82 108.955C484.82 112.184 484.82 115.817 484.82 119.854C484.936 123.89 484.993 128.1 484.993 132.483C484.993 136.75 484.993 141.017 484.993 145.285C484.993 149.437 484.936 153.3 484.82 156.876C484.705 158.606 484.532 160.509 484.301 162.585C484.071 164.545 483.609 166.391 482.917 168.121C482.225 169.851 481.13 171.292 479.63 172.446C478.246 173.484 476.343 173.945 473.921 173.83C470.346 173.599 467.751 172.042 466.136 169.159C464.637 166.275 463.772 162.239 463.541 157.049C463.541 154.396 463.484 151.34 463.368 147.88C463.368 144.42 463.311 140.902 463.195 137.327C463.195 133.751 463.195 130.291 463.195 126.947C463.195 123.487 463.195 120.373 463.195 117.605C463.195 115.99 463.138 114.029 463.022 111.723C463.022 109.416 463.08 107.052 463.195 104.63C463.311 102.208 463.599 99.9009 464.06 97.7096C464.522 95.4029 465.271 93.4999 466.309 92.0006C467.117 91.0779 468.27 90.3859 469.769 89.9246C471.269 89.3479 472.826 89.0596 474.44 89.0596C476.17 89.0596 477.785 89.3479 479.284 89.9246C480.899 90.5013 482.052 91.3086 482.744 92.3466C483.206 93.0386 483.552 94.0189 483.782 95.2876C484.013 96.5563 484.186 97.9979 484.301 99.6126C484.532 101.112 484.647 102.727 484.647 104.457C484.763 106.071 484.82 107.571 484.82 108.955ZM478.246 74.0086C474.671 74.9313 471.672 74.5853 469.25 72.9706C466.944 71.2406 465.502 68.7033 464.925 65.3586C464.464 62.9366 464.637 60.8029 465.444 58.9576C466.252 57.1123 467.463 55.7283 469.077 54.8056C470.692 53.7676 472.537 53.3063 474.613 53.4216C476.689 53.5369 478.765 54.3443 480.841 55.8436C482.802 57.2276 484.186 58.8423 484.993 60.6876C485.916 62.5329 486.204 64.3206 485.858 66.0506C485.628 67.7806 484.878 69.3953 483.609 70.8946C482.341 72.2786 480.553 73.3166 478.246 74.0086Z" fill="#1858B7"/>
<path d="M449.711 57.2274C450.749 58.6114 451.383 60.226 451.614 62.0714C451.614 62.7634 451.556 63.4554 451.441 64.1474C451.441 64.724 451.383 65.3007 451.268 65.8774C451.153 67.146 450.403 68.357 449.019 69.5104C448.212 70.087 447.174 70.6637 445.905 71.2404C445.213 71.471 444.463 71.644 443.656 71.7594C442.964 71.7594 442.157 71.817 441.234 71.9324C440.542 72.163 439.792 72.2784 438.985 72.2784C438.178 72.2784 437.37 72.2784 436.563 72.2784H428.778L392.621 72.4514V72.9704L392.448 101.169C393.371 101.169 394.351 101.169 395.389 101.169C396.542 101.169 397.926 101.112 399.541 100.996C404.154 100.996 408.249 100.996 411.824 100.996C415.515 100.996 419.551 101.054 423.934 101.169H424.972C426.241 101.169 427.509 101.227 428.778 101.342C430.162 101.342 431.546 101.342 432.93 101.342C434.199 101.458 435.467 101.631 436.736 101.861C438.005 101.977 439.273 102.265 440.542 102.726C442.618 103.418 444.117 104.514 445.04 106.013C446.309 107.513 446.943 109.07 446.943 110.684C446.943 111.376 446.943 112.068 446.943 112.76C446.943 113.337 446.828 113.971 446.597 114.663C446.482 115.586 445.732 116.739 444.348 118.123C443.425 118.931 442.33 119.45 441.061 119.68C440.484 119.911 439.792 120.142 438.985 120.372C438.293 120.488 437.543 120.603 436.736 120.718C435.929 120.834 435.121 120.949 434.314 121.064C433.622 121.064 432.815 121.064 431.892 121.064H423.934L392.102 121.237L391.583 161.373V162.757C391.583 163.334 391.525 163.911 391.41 164.487C391.41 164.949 391.352 165.468 391.237 166.044C391.006 166.621 390.776 167.255 390.545 167.947C390.43 168.524 390.257 169.101 390.026 169.677C389.219 171.292 388.469 172.388 387.777 172.964C386.508 173.887 384.951 174.521 383.106 174.867C379.992 175.559 377.051 175.213 374.283 173.829C373.706 173.483 373.13 173.08 372.553 172.618C372.092 172.042 371.688 171.35 371.342 170.542C371.111 170.081 370.996 169.735 370.996 169.504L370.477 168.466C370.131 167.89 369.9 167.313 369.785 166.736C369.67 166.044 369.554 165.41 369.439 164.833C369.439 164.257 369.381 163.68 369.266 163.103C369.266 162.527 369.208 161.95 369.093 161.373C368.978 160.451 368.978 159.528 369.093 158.605V155.837L369.266 142.343L369.439 117.431C369.554 113.741 369.612 109.992 369.612 106.186C369.612 102.38 369.612 98.459 369.612 94.4224C369.497 90.2704 369.439 86.5797 369.439 83.3504C369.554 80.121 369.727 76.6034 369.958 72.7974V71.9324C370.073 70.6637 370.131 69.5104 370.131 68.4724C370.131 67.319 370.246 66.1657 370.477 65.0124C370.708 62.475 371.284 60.226 372.207 58.2654C373.014 56.3047 374.168 54.9207 375.667 54.1134C377.397 53.0754 379.242 52.5564 381.203 52.5564C382.126 52.5564 382.875 52.614 383.452 52.7294V52.5564C385.528 52.5564 387.2 52.5564 388.469 52.5564C389.738 52.5564 390.949 52.5564 392.102 52.5564C393.255 52.5564 394.524 52.5564 395.908 52.5564C397.292 52.441 399.137 52.3834 401.444 52.3834C410.671 52.268 419.782 52.268 428.778 52.3834H429.643C430.912 52.4987 432.18 52.5564 433.449 52.5564C434.833 52.5564 436.217 52.614 437.601 52.7294C438.87 52.7294 440.138 52.9024 441.407 53.2484C442.676 53.479 443.944 53.825 445.213 54.2864C447.174 54.863 448.673 55.8434 449.711 57.2274Z" fill="#1858B7"/>
<path d="M996.792 232.377C996.878 233.764 996.922 235.085 996.922 236.342C996.922 237.555 996.878 238.855 996.792 240.242C996.792 240.762 996.792 241.347 996.792 241.997C996.792 242.647 996.748 243.275 996.662 243.882C996.575 244.489 996.423 245.052 996.207 245.572C995.99 246.092 995.665 246.504 995.232 246.807C994.712 247.154 994.127 247.392 993.477 247.522C992.827 247.609 992.22 247.565 991.657 247.392C991.093 247.219 990.595 246.894 990.162 246.417C989.772 245.94 989.555 245.269 989.512 244.402C989.382 242.409 989.317 240.415 989.317 238.422C989.317 237.425 989.295 236.472 989.252 235.562C989.252 234.652 989.273 233.374 989.317 231.727C989.317 230.904 989.252 229.972 989.122 228.932C988.992 227.849 988.667 227.09 988.147 226.657C987.757 226.31 987.323 226.115 986.847 226.072C986.37 225.985 985.893 226.029 985.417 226.202C984.983 226.375 984.593 226.7 984.247 227.177C983.9 227.61 983.662 228.174 983.532 228.867C983.532 229.43 983.51 230.015 983.467 230.622C983.467 231.185 983.488 231.727 983.532 232.247C983.575 233.634 983.597 234.955 983.597 236.212C983.597 237.425 983.575 238.725 983.532 240.112C983.488 240.675 983.467 241.282 983.467 241.932C983.51 242.582 983.51 243.232 983.467 243.882C983.423 244.489 983.293 245.052 983.077 245.572C982.903 246.092 982.578 246.504 982.102 246.807C981.582 247.154 981.018 247.37 980.412 247.457C979.848 247.5 979.307 247.414 978.787 247.197C978.31 246.937 977.877 246.547 977.487 246.027C977.14 245.507 976.945 244.814 976.902 243.947C976.815 242.95 976.75 242.04 976.707 241.217C976.707 240.35 976.707 239.44 976.707 238.487C976.707 237.49 976.728 236.472 976.772 235.432C976.815 234.349 976.793 233.309 976.707 232.312C976.707 232.009 976.685 231.662 976.642 231.272C976.642 230.839 976.62 230.405 976.577 229.972C976.577 229.539 976.533 229.127 976.447 228.737C976.403 228.304 976.317 227.957 976.187 227.697C975.84 227.09 975.212 226.7 974.302 226.527C973.435 226.354 972.698 226.419 972.092 226.722C971.485 227.025 971.03 227.415 970.727 227.892C970.423 228.369 970.207 228.889 970.077 229.452C969.947 230.015 969.882 230.622 969.882 231.272C969.882 231.879 969.882 232.464 969.882 233.027C969.882 235.844 969.882 238.292 969.882 240.372C969.925 242.409 969.708 244.055 969.232 245.312C969.015 245.962 968.56 246.46 967.867 246.807C967.217 247.154 966.502 247.327 965.722 247.327C964.985 247.327 964.292 247.154 963.642 246.807C962.992 246.46 962.558 245.919 962.342 245.182C962.212 244.705 962.082 244.034 961.952 243.167C961.865 242.257 961.8 241.26 961.757 240.177C961.713 239.094 961.692 238.01 961.692 236.927C961.692 235.8 961.692 234.782 961.692 233.872V224.512C961.648 223.515 961.627 222.432 961.627 221.262C961.627 220.092 961.8 219.03 962.147 218.077C962.45 217.254 962.927 216.734 963.577 216.517C964.227 216.257 964.898 216.149 965.592 216.192C966.372 216.192 966.978 216.409 967.412 216.842C967.888 217.232 968.235 217.73 968.452 218.337C968.668 218.9 968.798 219.55 968.842 220.287C968.885 220.98 968.928 221.652 968.972 222.302C969.448 221.219 970.012 220.33 970.662 219.637C971.355 218.9 972.33 218.424 973.587 218.207C976.793 217.6 979.35 218.424 981.257 220.677C982.123 219.81 983.228 219.095 984.572 218.532C985.612 218.142 986.673 217.969 987.757 218.012C988.84 218.012 989.858 218.207 990.812 218.597C991.808 218.987 992.697 219.55 993.477 220.287C994.3 221.024 994.95 221.912 995.427 222.952C996.077 224.339 996.445 225.877 996.532 227.567C996.618 229.257 996.705 230.86 996.792 232.377Z" fill="#A2A2A2"/>
<path d="M931.779 220.156C933.079 219.506 934.444 219.051 935.874 218.791C937.304 218.488 938.712 218.423 940.099 218.596C941.529 218.726 942.894 219.095 944.194 219.701C945.494 220.265 946.707 221.088 947.834 222.171C948.961 223.298 949.827 224.533 950.434 225.876C951.041 227.22 951.474 228.715 951.734 230.361C951.907 231.488 952.189 232.528 952.579 233.481C952.969 234.435 953.381 235.388 953.814 236.341C954.291 237.295 954.724 238.248 955.114 239.201C955.547 240.155 955.894 241.151 956.154 242.191C956.371 243.188 956.284 244.163 955.894 245.117C955.547 246.027 954.811 246.59 953.684 246.806C953.034 246.936 952.406 246.893 951.799 246.676C951.236 246.416 950.716 246.07 950.239 245.637C949.762 245.16 949.329 244.661 948.939 244.141C948.592 243.578 948.267 243.058 947.964 242.582C946.967 243.882 945.884 244.9 944.714 245.637C943.544 246.33 942.136 246.785 940.489 247.001C939.102 247.175 937.781 247.218 936.524 247.132C935.267 247.045 933.924 246.807 932.494 246.417C930.631 245.94 929.092 245.116 927.879 243.946C926.709 242.733 925.799 241.346 925.149 239.786C924.542 238.183 924.217 236.471 924.174 234.651C924.131 232.831 924.347 231.033 924.824 229.257C925.431 226.917 926.341 225.01 927.554 223.536C928.767 222.063 930.176 220.936 931.779 220.156ZM933.404 227.761C932.797 228.368 932.321 229.083 931.974 229.906C931.627 230.73 931.411 231.597 931.324 232.507C931.281 233.417 931.367 234.326 931.584 235.236C931.801 236.146 932.147 236.948 932.624 237.641C933.057 238.248 933.794 238.768 934.834 239.201C935.874 239.592 936.957 239.83 938.084 239.917C939.384 240.003 940.511 239.656 941.464 238.876C942.461 238.096 943.197 237.121 943.674 235.951C944.194 234.738 944.432 233.46 944.389 232.116C944.346 230.73 943.977 229.473 943.284 228.347C942.764 227.523 942.071 226.916 941.204 226.526C940.381 226.136 939.492 225.941 938.539 225.941C937.586 225.898 936.632 226.05 935.679 226.397C934.769 226.7 934.011 227.155 933.404 227.761Z" fill="#A2A2A2"/>
<path d="M914.354 238.616C914.874 238.486 915.394 238.4 915.914 238.356C916.478 238.313 916.976 238.378 917.409 238.551C917.886 238.725 918.276 239.028 918.579 239.461C918.883 239.851 919.034 240.415 919.034 241.151C919.034 241.671 918.904 242.17 918.644 242.646C918.384 243.123 918.059 243.556 917.669 243.946C917.279 244.336 916.846 244.683 916.369 244.986C915.893 245.246 915.438 245.463 915.004 245.636C913.748 246.2 912.296 246.633 910.649 246.936C909.046 247.24 907.378 247.348 905.644 247.261C903.304 247.175 901.051 246.72 898.884 245.896C896.761 245.03 895.093 243.621 893.879 241.671C892.753 239.765 892.081 237.641 891.864 235.301C891.648 232.961 891.756 230.751 892.189 228.671C892.666 226.158 893.468 224.121 894.594 222.561C895.764 220.958 897.151 219.68 898.754 218.726C900.704 217.6 902.893 217.015 905.319 216.971C907.746 216.928 910.064 217.405 912.274 218.401C913.748 219.051 915.069 219.94 916.239 221.066C917.409 222.15 918.298 223.471 918.904 225.031C919.078 225.421 919.208 225.898 919.294 226.461C919.424 227.025 919.511 227.631 919.554 228.281C919.598 228.888 919.598 229.495 919.554 230.101C919.511 230.708 919.403 231.25 919.229 231.726C918.969 232.506 918.644 233.113 918.254 233.546C917.864 233.98 917.366 234.305 916.759 234.521C916.153 234.738 915.416 234.89 914.549 234.976C913.726 235.02 912.729 235.063 911.559 235.106C910.519 235.15 909.544 235.171 908.634 235.171C907.724 235.171 906.793 235.171 905.839 235.171C904.886 235.128 903.889 235.106 902.849 235.106C901.853 235.063 900.726 235.02 899.469 234.976C899.339 235.843 899.448 236.601 899.794 237.251C900.184 237.858 900.704 238.378 901.354 238.811C902.004 239.201 902.741 239.505 903.564 239.721C904.388 239.938 905.189 240.068 905.969 240.111C907.443 240.198 908.851 240.09 910.194 239.786C911.538 239.44 912.924 239.05 914.354 238.616ZM911.559 226.006C910.736 225.053 909.869 224.36 908.959 223.926C908.266 223.623 907.529 223.493 906.749 223.536C906.013 223.536 905.298 223.645 904.604 223.861C903.348 224.165 902.286 224.815 901.419 225.811C901.333 225.898 901.181 226.115 900.964 226.461C900.748 226.765 900.531 227.09 900.314 227.436C900.141 227.783 900.011 228.108 899.924 228.411C899.838 228.715 899.881 228.866 900.054 228.866H912.794C912.751 228.26 912.643 227.761 912.469 227.371C912.296 226.938 911.993 226.483 911.559 226.006Z" fill="#A2A2A2"/>
<path d="M892.198 203.516C892.674 204.08 892.913 204.665 892.913 205.271C892.913 205.531 892.891 205.813 892.848 206.116C892.848 206.376 892.826 206.615 892.783 206.831C892.653 207.308 892.371 207.763 891.938 208.196C891.591 208.456 891.114 208.651 890.508 208.781C890.204 208.868 889.901 208.933 889.598 208.976C889.294 209.02 888.969 209.085 888.622 209.171C888.319 209.215 888.016 209.236 887.712 209.236C887.409 209.236 887.084 209.236 886.737 209.236H883.422C882.642 209.28 881.862 209.301 881.082 209.301C880.346 209.301 879.609 209.301 878.872 209.301C878.916 210.645 878.938 212.096 878.938 213.656C878.938 215.173 878.916 216.95 878.872 218.986C878.872 221.023 878.851 223.385 878.807 226.071C878.807 228.758 878.807 231.878 878.807 235.431V240.371C878.807 240.805 878.829 241.13 878.872 241.346C878.872 241.52 878.872 241.693 878.872 241.866C878.872 241.996 878.851 242.17 878.807 242.386C878.721 242.776 878.656 243.231 878.612 243.751C878.612 243.968 878.591 244.185 878.548 244.401C878.504 244.575 878.439 244.77 878.353 244.986C878.179 245.16 878.092 245.29 878.092 245.376L877.897 245.766C877.681 246.2 877.269 246.611 876.663 247.001C875.709 247.478 874.648 247.586 873.478 247.326C872.741 247.24 872.178 247.045 871.788 246.741C871.398 246.351 871.116 245.961 870.943 245.571C870.683 245.095 870.531 244.64 870.487 244.206C870.357 243.816 870.293 243.405 870.293 242.971V209.561C870.033 209.561 869.491 209.561 868.668 209.561C867.844 209.561 866.956 209.561 866.003 209.561C865.093 209.518 864.226 209.475 863.402 209.431C862.579 209.388 862.016 209.345 861.712 209.301C861.452 209.258 861.041 209.193 860.478 209.106C859.958 209.02 859.524 208.933 859.177 208.846C858.267 208.586 857.553 208.175 857.033 207.611C856.556 207.048 856.318 206.42 856.318 205.726C856.318 205.466 856.318 205.206 856.318 204.946C856.318 204.686 856.361 204.448 856.448 204.231C856.578 203.711 856.924 203.278 857.487 202.931C857.661 202.801 857.921 202.65 858.267 202.476C858.657 202.26 859.026 202.108 859.372 202.021C859.892 201.848 860.543 201.718 861.323 201.631C861.669 201.588 862.016 201.566 862.362 201.566C862.709 201.566 863.077 201.566 863.467 201.566C864.984 201.566 866.414 201.566 867.758 201.566C869.144 201.566 870.596 201.545 872.112 201.501C874.626 201.458 877.117 201.458 879.587 201.501C882.101 201.501 884.593 201.545 887.062 201.631C887.626 201.675 888.167 201.74 888.688 201.826C889.207 201.913 889.727 202.065 890.247 202.281C890.637 202.411 891.006 202.585 891.353 202.801C891.699 202.975 891.981 203.213 892.198 203.516Z" fill="#A2A2A2"/>
<path d="M805.157 224.511C805.157 223.991 805.157 223.406 805.157 222.756C805.157 222.063 805.179 221.37 805.222 220.676C805.265 219.94 805.33 219.246 805.417 218.596C805.547 217.903 805.72 217.296 805.937 216.776C806.284 215.996 806.825 215.476 807.562 215.216C808.299 214.913 809.1 214.783 809.967 214.826C810.877 214.826 811.592 214.978 812.112 215.281C812.632 215.585 813.022 215.996 813.282 216.516C813.542 216.993 813.694 217.556 813.737 218.206C813.824 218.813 813.867 219.463 813.867 220.156C814.257 219.463 814.777 218.9 815.427 218.466C816.12 218.033 816.814 217.686 817.507 217.426C818.2 217.166 818.829 216.993 819.392 216.906C819.955 216.776 820.28 216.711 820.367 216.711C821.45 216.625 822.425 216.603 823.292 216.646C824.202 216.69 825.199 216.885 826.282 217.231C826.975 217.491 827.69 217.86 828.427 218.336C829.164 218.77 829.814 219.29 830.377 219.896C830.94 220.503 831.309 221.175 831.482 221.911C831.699 222.605 831.612 223.341 831.222 224.121C830.615 225.205 829.944 225.746 829.207 225.746C828.47 225.703 827.669 225.573 826.802 225.356C826.325 225.27 825.762 225.075 825.112 224.771C824.462 224.468 823.899 224.273 823.422 224.186C821.949 223.97 820.649 224.078 819.522 224.511C818.395 224.945 817.42 225.465 816.597 226.071C815.644 226.808 814.82 227.653 814.127 228.606V237.966C814.127 239.136 814.105 240.35 814.062 241.606C814.062 242.863 813.889 244.011 813.542 245.051C813.239 246.048 812.697 246.871 811.917 247.521C811.18 248.128 810.097 248.388 808.667 248.301C807.887 248.258 807.194 247.89 806.587 247.196C805.98 246.46 805.612 245.745 805.482 245.051C805.395 244.401 805.33 243.621 805.287 242.711C805.244 241.801 805.2 240.848 805.157 239.851C805.157 238.855 805.157 237.858 805.157 236.861C805.157 235.821 805.157 234.868 805.157 234.001V224.511Z" fill="#A2A2A2"/>
<path d="M799.751 232.051C799.665 233.481 799.578 234.933 799.491 236.406C799.405 237.836 799.166 239.223 798.776 240.566C798.43 241.91 797.866 243.123 797.086 244.206C796.35 245.29 795.288 246.156 793.901 246.806C792.688 247.413 791.388 247.825 790.001 248.041C788.615 248.301 787.228 248.41 785.841 248.366C784.455 248.323 783.111 248.106 781.811 247.716C780.511 247.37 779.341 246.871 778.301 246.221C777.261 245.571 776.416 244.726 775.766 243.686C775.116 242.646 774.596 241.52 774.206 240.306C773.86 239.093 773.621 237.836 773.491 236.536C773.361 235.236 773.275 234.023 773.231 232.896C773.058 229.906 773.058 226.96 773.231 224.056C773.231 223.493 773.231 222.865 773.231 222.171C773.231 221.435 773.275 220.72 773.361 220.026C773.491 219.333 773.686 218.705 773.946 218.141C774.206 217.535 774.64 217.08 775.246 216.776C776.546 216.083 777.738 216.04 778.821 216.646C779.948 217.253 780.62 218.51 780.836 220.416C780.966 221.413 781.01 222.518 780.966 223.731C780.966 224.945 781.01 226.05 781.096 227.046C781.14 228.52 781.183 230.123 781.226 231.856C781.27 233.546 781.508 235.063 781.941 236.406C782.418 237.75 783.176 238.768 784.216 239.461C785.3 240.111 786.903 240.133 789.026 239.526C790.023 239.223 790.673 238.465 790.976 237.251C791.323 236.038 791.496 234.24 791.496 231.856C791.496 230.816 791.475 229.668 791.431 228.411C791.388 227.155 791.366 225.92 791.366 224.706C791.366 223.45 791.388 222.301 791.431 221.261C791.518 220.178 791.648 219.355 791.821 218.791C792.038 218.011 792.493 217.426 793.186 217.036C793.88 216.646 794.616 216.451 795.396 216.451C796.176 216.408 796.913 216.56 797.606 216.906C798.3 217.253 798.776 217.816 799.036 218.596C799.296 219.29 799.47 220.178 799.556 221.261C799.686 222.301 799.773 223.45 799.816 224.706C799.86 225.92 799.86 227.176 799.816 228.476C799.816 229.733 799.795 230.925 799.751 232.051Z" fill="#A2A2A2"/>
<path d="M745.367 218.142C746.797 217.449 748.292 216.95 749.852 216.647C751.412 216.344 752.95 216.279 754.467 216.452C756.027 216.625 757.522 217.037 758.952 217.687C760.425 218.337 761.768 219.247 762.982 220.417C763.978 221.414 764.845 222.627 765.582 224.057C766.318 225.444 766.86 226.809 767.207 228.152C767.943 230.535 768.052 232.94 767.532 235.367C767.012 237.794 766.123 240.047 764.867 242.127C764.26 243.08 763.502 243.947 762.592 244.727C761.725 245.464 760.793 246.07 759.797 246.547C758.497 247.154 757.088 247.565 755.572 247.782C754.055 248.042 752.582 248.107 751.152 247.977C748.552 247.847 746.255 247.197 744.262 246.027C742.312 244.857 740.73 243.362 739.517 241.542C738.347 239.722 737.567 237.664 737.177 235.367C736.83 233.027 736.982 230.644 737.632 228.217C738.325 225.617 739.322 223.515 740.622 221.912C741.965 220.265 743.547 219.009 745.367 218.142ZM747.317 226.852C746.667 227.459 746.168 228.217 745.822 229.127C745.475 230.037 745.258 230.99 745.172 231.987C745.085 232.94 745.15 233.915 745.367 234.912C745.627 235.865 746.017 236.732 746.537 237.512C746.97 238.162 747.75 238.704 748.877 239.137C750.003 239.57 751.173 239.83 752.387 239.917C753.773 240.004 754.987 239.635 756.027 238.812C757.067 237.945 757.847 236.884 758.367 235.627C758.93 234.37 759.19 233.005 759.147 231.532C759.103 230.059 758.713 228.715 757.977 227.502C757.457 226.635 756.72 226.007 755.767 225.617C754.857 225.184 753.882 224.967 752.842 224.967C751.845 224.924 750.848 225.075 749.852 225.422C748.855 225.725 748.01 226.202 747.317 226.852Z" fill="#A2A2A2"/>
<path d="M739.325 204.296C739.368 204.513 739.368 204.73 739.325 204.946C739.325 205.163 739.26 205.401 739.13 205.661C738.956 206.268 738.761 206.81 738.545 207.286C738.285 207.893 737.96 208.413 737.57 208.846C737.396 209.106 737.223 209.366 737.05 209.626C736.92 209.843 736.79 210.06 736.66 210.276L735.815 211.381L727.495 223.406L726 225.291V242.581C725.913 242.798 725.87 243.015 725.87 243.231C725.87 243.448 725.848 243.686 725.805 243.946C725.718 244.163 725.653 244.38 725.61 244.596C725.566 244.77 725.501 244.965 725.415 245.181C725.328 245.355 725.285 245.485 725.285 245.571C725.241 245.658 725.198 245.723 725.155 245.766C725.155 245.81 725.133 245.875 725.09 245.961C724.83 246.395 724.461 246.785 723.985 247.131C723.031 247.608 721.948 247.716 720.735 247.456C720.041 247.37 719.521 247.153 719.175 246.806C718.958 246.676 718.785 246.525 718.655 246.351C718.525 246.178 718.395 245.983 718.265 245.766C718.178 245.506 718.091 245.268 718.005 245.051C717.918 244.835 717.853 244.618 717.81 244.401C717.723 244.185 717.68 243.99 717.68 243.816C717.68 243.6 717.68 243.405 717.68 243.231V225.486L716.25 223.276L707.8 211.316L707.085 210.146C706.825 209.756 706.5 209.301 706.11 208.781C705.763 208.305 705.46 207.785 705.2 207.221C705.026 206.961 704.875 206.701 704.745 206.441C704.658 206.138 704.571 205.835 704.485 205.531C704.355 205.098 704.333 204.665 704.42 204.231C704.55 203.668 704.81 203.191 705.2 202.801C705.633 202.411 706.088 202.108 706.565 201.891C707.171 201.458 707.865 201.285 708.645 201.371C709.121 201.371 709.533 201.458 709.88 201.631C710.226 201.805 710.573 202 710.92 202.216C711.31 202.52 711.678 202.845 712.025 203.191C712.415 203.538 712.761 203.906 713.065 204.296C713.411 204.73 713.736 205.141 714.04 205.531C714.343 205.878 714.646 206.29 714.95 206.766L715.145 207.026C716.185 208.413 717.16 209.756 718.07 211.056C718.98 212.313 719.933 213.678 720.93 215.151C721.016 215.238 721.146 215.411 721.32 215.671C721.493 215.931 721.688 216.235 721.905 216.581C722.078 216.278 722.23 216.018 722.36 215.801C722.533 215.541 722.663 215.368 722.75 215.281C723.746 213.808 724.7 212.421 725.61 211.121C726.52 209.821 727.495 208.478 728.535 207.091L728.665 206.831C729.011 206.441 729.315 206.051 729.575 205.661C729.878 205.228 730.203 204.795 730.55 204.361C731.113 203.581 731.871 202.91 732.825 202.346C733.518 201.87 734.233 201.566 734.97 201.436C735.793 201.35 736.508 201.523 737.115 201.956C737.375 202.13 737.613 202.281 737.83 202.411C738.09 202.541 738.306 202.693 738.48 202.866C738.826 203.256 739.108 203.733 739.325 204.296Z" fill="#A2A2A2"/>
<path d="M670.253 232.571C671.207 233.568 671.9 234.305 672.333 234.781C672.81 235.215 673.135 235.54 673.308 235.756C673.525 235.973 673.677 236.103 673.763 236.146C673.85 236.19 674.002 236.32 674.218 236.536C674.435 236.753 674.782 237.1 675.258 237.576C675.735 238.01 676.45 238.725 677.403 239.721C678.183 240.501 678.812 241.411 679.288 242.451C679.808 243.448 679.765 244.531 679.158 245.701C678.812 246.308 678.422 246.741 677.988 247.001C677.555 247.218 677.078 247.305 676.558 247.261C676.082 247.218 675.562 247.066 674.998 246.806C674.478 246.546 673.958 246.221 673.438 245.831C672.442 245.095 671.488 244.25 670.578 243.296C669.668 242.3 668.932 241.541 668.368 241.021C667.978 240.631 667.74 240.371 667.653 240.241C667.567 240.155 667.48 240.09 667.393 240.046C667.307 239.96 667.22 239.873 667.133 239.786C666.83 239.483 666.505 239.18 666.158 238.876C665.812 238.573 665.465 238.248 665.118 237.901V240.436C665.118 240.913 665.14 241.26 665.183 241.476C665.183 241.91 665.162 242.235 665.118 242.451C664.988 242.928 664.923 243.383 664.923 243.816C664.88 244.033 664.837 244.25 664.793 244.466C664.75 244.64 664.685 244.835 664.598 245.051C664.555 245.138 664.512 245.203 664.468 245.246C664.468 245.29 664.468 245.355 664.468 245.441C664.425 245.528 664.382 245.593 664.338 245.636C664.338 245.68 664.317 245.745 664.273 245.831C664.057 246.265 663.71 246.676 663.233 247.066C662.41 247.543 661.392 247.673 660.178 247.456C659.528 247.326 659.03 247.088 658.683 246.741C658.293 246.481 658.033 246.113 657.903 245.636C657.817 245.42 657.73 245.203 657.643 244.986C657.6 244.726 657.535 244.488 657.448 244.271C657.362 244.055 657.318 243.86 657.318 243.686C657.318 243.47 657.318 243.296 657.318 243.166V206.181C657.318 205.921 657.318 205.661 657.318 205.401C657.318 205.141 657.34 204.881 657.383 204.621C657.427 204.361 657.47 204.123 657.513 203.906C657.6 203.646 657.687 203.408 657.773 203.191C657.947 202.758 658.163 202.411 658.423 202.151C658.64 201.935 658.857 201.783 659.073 201.696C659.333 201.566 659.572 201.458 659.788 201.371C660.005 201.328 660.243 201.306 660.503 201.306C660.807 201.263 661.088 201.241 661.348 201.241C661.955 201.241 662.562 201.415 663.168 201.761C663.732 202.151 664.143 202.65 664.403 203.256C664.75 204.08 664.923 204.881 664.923 205.661C664.967 206.095 665.01 206.766 665.053 207.676C665.097 208.543 665.118 209.193 665.118 209.626V209.886C665.162 211.316 665.183 212.681 665.183 213.981C665.183 215.281 665.183 216.69 665.183 218.206C665.14 219.723 665.118 221.175 665.118 222.561C665.118 223.905 665.118 225.248 665.118 226.591V227.306C665.465 226.96 665.812 226.635 666.158 226.331C666.505 226.028 666.83 225.703 667.133 225.356C667.307 225.226 667.48 225.075 667.653 224.901L668.368 224.186C668.932 223.623 669.668 222.865 670.578 221.911C671.488 220.915 672.442 220.048 673.438 219.311C674.522 218.531 675.562 218.055 676.558 217.881C677.598 217.708 678.465 218.228 679.158 219.441C679.765 220.611 679.808 221.716 679.288 222.756C678.812 223.753 678.183 224.685 677.403 225.551C676.45 226.548 675.735 227.285 675.258 227.761C674.782 228.195 674.435 228.52 674.218 228.736C674.002 228.91 673.85 229.018 673.763 229.061C673.677 229.105 673.525 229.235 673.308 229.451C673.135 229.625 672.81 229.95 672.333 230.426C671.9 230.86 671.207 231.575 670.253 232.571Z" fill="#A2A2A2"/>
<path d="M629.649 218.142C631.079 217.449 632.574 216.95 634.134 216.647C635.694 216.344 637.232 216.279 638.749 216.452C640.309 216.625 641.804 217.037 643.234 217.687C644.707 218.337 646.05 219.247 647.264 220.417C648.26 221.414 649.127 222.627 649.864 224.057C650.6 225.444 651.142 226.809 651.489 228.152C652.225 230.535 652.334 232.94 651.814 235.367C651.294 237.794 650.405 240.047 649.149 242.127C648.542 243.08 647.784 243.947 646.874 244.727C646.007 245.464 645.075 246.07 644.079 246.547C642.779 247.154 641.37 247.565 639.854 247.782C638.337 248.042 636.864 248.107 635.434 247.977C632.834 247.847 630.537 247.197 628.544 246.027C626.594 244.857 625.012 243.362 623.799 241.542C622.629 239.722 621.849 237.664 621.459 235.367C621.112 233.027 621.264 230.644 621.914 228.217C622.607 225.617 623.604 223.515 624.904 221.912C626.247 220.265 627.829 219.009 629.649 218.142ZM631.599 226.852C630.949 227.459 630.45 228.217 630.104 229.127C629.757 230.037 629.54 230.99 629.454 231.987C629.367 232.94 629.432 233.915 629.649 234.912C629.909 235.865 630.299 236.732 630.819 237.512C631.252 238.162 632.032 238.704 633.159 239.137C634.285 239.57 635.455 239.83 636.669 239.917C638.055 240.004 639.269 239.635 640.309 238.812C641.349 237.945 642.129 236.884 642.649 235.627C643.212 234.37 643.472 233.005 643.429 231.532C643.385 230.059 642.995 228.715 642.259 227.502C641.739 226.635 641.002 226.007 640.049 225.617C639.139 225.184 638.164 224.967 637.124 224.967C636.127 224.924 635.13 225.075 634.134 225.422C633.137 225.725 632.292 226.202 631.599 226.852Z" fill="#A2A2A2"/>
<path d="M593.594 218.142C595.024 217.449 596.519 216.95 598.079 216.647C599.639 216.344 601.177 216.279 602.694 216.452C604.254 216.625 605.749 217.037 607.179 217.687C608.652 218.337 609.996 219.247 611.209 220.417C612.206 221.414 613.072 222.627 613.809 224.057C614.546 225.444 615.087 226.809 615.434 228.152C616.171 230.535 616.279 232.94 615.759 235.367C615.239 237.794 614.351 240.047 613.094 242.127C612.487 243.08 611.729 243.947 610.819 244.727C609.952 245.464 609.021 246.07 608.024 246.547C606.724 247.154 605.316 247.565 603.799 247.782C602.282 248.042 600.809 248.107 599.379 247.977C596.779 247.847 594.482 247.197 592.489 246.027C590.539 244.857 588.957 243.362 587.744 241.542C586.574 239.722 585.794 237.664 585.404 235.367C585.057 233.027 585.209 230.644 585.859 228.217C586.552 225.617 587.549 223.515 588.849 221.912C590.192 220.265 591.774 219.009 593.594 218.142ZM595.544 226.852C594.894 227.459 594.396 228.217 594.049 229.127C593.702 230.037 593.486 230.99 593.399 231.987C593.312 232.94 593.377 233.915 593.594 234.912C593.854 235.865 594.244 236.732 594.764 237.512C595.197 238.162 595.977 238.704 597.104 239.137C598.231 239.57 599.401 239.83 600.614 239.917C602.001 240.004 603.214 239.635 604.254 238.812C605.294 237.945 606.074 236.884 606.594 235.627C607.157 234.37 607.417 233.005 607.374 231.532C607.331 230.059 606.941 228.715 606.204 227.502C605.684 226.635 604.947 226.007 603.994 225.617C603.084 225.184 602.109 224.967 601.069 224.967C600.072 224.924 599.076 225.075 598.079 225.422C597.082 225.725 596.237 226.202 595.544 226.852Z" fill="#A2A2A2"/>
<path d="M579.92 204.686C579.963 204.99 579.985 205.271 579.985 205.531C579.985 205.791 579.985 206.051 579.985 206.311V208.976L579.595 242.711V243.361C579.595 243.621 579.53 244.011 579.4 244.531C579.356 244.748 579.291 244.986 579.205 245.246C579.118 245.463 579.031 245.701 578.945 245.961C578.728 246.481 578.425 246.871 578.035 247.131C577.688 247.478 577.125 247.716 576.345 247.846C575.131 248.106 574.026 247.998 573.03 247.521C572.466 247.175 572.076 246.741 571.86 246.221C571.773 246.135 571.686 246.005 571.6 245.831C571.6 245.745 571.556 245.615 571.47 245.441C571.383 245.225 571.318 245.008 571.275 244.791C571.231 244.531 571.188 244.271 571.145 244.011C571.145 243.795 571.123 243.578 571.08 243.361C571.08 243.145 571.058 242.928 571.015 242.711C570.928 242.495 570.885 242.321 570.885 242.191C570.885 242.018 570.885 241.823 570.885 241.606C570.971 241.433 571.015 241.108 571.015 240.631L571.08 235.496L571.145 227.306H567.635L554.44 227.371L554.31 242.711V243.361C554.31 243.621 554.245 244.011 554.115 244.531C554.071 244.748 554.006 244.986 553.92 245.246C553.833 245.463 553.746 245.701 553.66 245.961C553.443 246.481 553.14 246.871 552.75 247.131C552.403 247.478 551.84 247.716 551.06 247.846C549.846 248.106 548.741 247.998 547.745 247.521C547.311 247.261 546.9 246.828 546.51 246.221C546.423 246.048 546.38 245.918 546.38 245.831L546.185 245.441C546.098 245.225 546.033 245.008 545.99 244.791C545.946 244.531 545.903 244.271 545.86 244.011C545.86 243.795 545.838 243.578 545.795 243.361C545.751 243.145 545.708 242.928 545.665 242.711C545.621 242.365 545.621 241.996 545.665 241.606V240.631L545.73 235.496L545.86 225.941C545.903 224.555 545.925 223.125 545.925 221.651C545.925 220.178 545.925 218.661 545.925 217.101C545.881 215.541 545.86 214.155 545.86 212.941C545.903 211.728 545.968 210.363 546.055 208.846V208.586C546.098 208.153 546.12 207.72 546.12 207.286C546.12 206.81 546.141 206.333 546.185 205.856C546.228 205.423 546.293 205.011 546.38 204.621C546.51 204.188 546.683 203.755 546.9 203.321C547.03 202.975 547.203 202.693 547.42 202.476C547.636 202.216 547.896 201.978 548.2 201.761C548.893 201.415 549.586 201.241 550.28 201.241C550.626 201.241 550.93 201.263 551.19 201.306C551.45 201.306 551.71 201.328 551.97 201.371C552.49 201.415 552.988 201.675 553.465 202.151C553.811 202.455 554.05 202.801 554.18 203.191C554.396 203.755 554.526 204.253 554.57 204.686C554.613 204.99 554.635 205.271 554.635 205.531C554.635 205.791 554.635 206.051 554.635 206.311V208.976L554.505 219.701C554.851 219.701 555.241 219.701 555.675 219.701C556.151 219.701 556.693 219.68 557.3 219.636C559.553 219.636 561.785 219.658 563.995 219.701C566.248 219.745 568.61 219.766 571.08 219.766H571.145C571.145 217.816 571.145 215.953 571.145 214.176C571.188 212.4 571.253 210.536 571.34 208.586C571.34 208.153 571.34 207.72 571.34 207.286C571.383 206.81 571.426 206.333 571.47 205.856C571.513 205.423 571.578 205.011 571.665 204.621C571.795 204.188 571.968 203.755 572.185 203.321C572.271 202.975 572.423 202.693 572.64 202.476C572.9 202.216 573.203 201.978 573.55 201.761C574.156 201.415 574.828 201.241 575.565 201.241C575.911 201.241 576.215 201.263 576.475 201.306C576.778 201.306 577.038 201.328 577.255 201.371C577.861 201.458 578.36 201.718 578.75 202.151C579.096 202.368 579.335 202.715 579.465 203.191C579.551 203.451 579.616 203.711 579.66 203.971C579.746 204.188 579.833 204.426 579.92 204.686Z" fill="#A2A2A2"/>
<path fill-rule="evenodd" clip-rule="evenodd" d="M261.156 3.38461L259.582 0L257.174 2.85131C252.947 7.8559 246.508 14.6231 239.386 20.6754C232.274 26.7188 224.699 31.8598 218.089 33.9804C214.809 34.4752 210.692 34.5525 207.315 34.5064C205.613 34.4831 204.132 34.4299 203.082 34.3893C202.567 34.3694 202.131 34.3513 201.84 34.3428C201.703 34.3388 201.55 34.3354 201.424 34.3375C201.401 34.3378 201.218 34.3382 201.013 34.3714C200.954 34.381 200.822 34.4046 200.662 34.4558C200.602 34.4748 200.087 34.6238 199.641 35.1015C199.366 35.3964 199.04 35.9046 199.003 36.6049C198.967 37.2949 199.232 37.8199 199.449 38.1217C199.809 38.622 200.265 38.8358 200.322 38.8644C200.629 39.0176 201.602 39.3941 202.714 39.82C203.922 40.2823 205.524 40.8885 207.273 41.5502C210.762 42.8697 214.84 44.4104 217.626 45.4973C245.302 57.7189 254.621 85.0439 260.035 109.267L265.003 109.669C280.757 69.1233 272.316 27.3942 261.156 3.38461Z" fill="#5998D5"/>
<path d="M194.042 75.7046C195.442 74.4495 197.594 74.5668 198.849 75.9666L216.36 95.4976C217.615 96.8976 217.497 99.05 216.098 100.305L81.331 221.128C79.9311 222.383 77.7786 222.265 76.5234 220.866L59.0133 201.335C57.7581 199.935 57.8754 197.782 59.2752 196.527L194.042 75.7046Z" fill="#F79D2F"/>
<path d="M-4.57764e-05 33.6881L3.83075 35.9862C34.1973 54.2038 34.6454 78.6211 31.5154 88.01L32.0846 88.2002L37.5511 79.5173L101.049 32.4579L107.458 30.624C89.9319 19.8276 69.1155 17.8027 50.3508 19.5612C31.3241 21.3443 14.1299 27.0392 4.04221 31.7857L-4.57764e-05 33.6881Z" fill="#1F4988"/>
<path fill-rule="evenodd" clip-rule="evenodd" d="M16.5145 292.284L18.0878 295.669L20.4962 292.818C24.7229 287.813 31.1627 281.046 38.2843 274.994C45.3957 268.95 52.9714 263.809 59.5808 261.689C62.8611 261.194 66.9783 261.116 70.3556 261.163C72.0573 261.186 73.5383 261.239 74.5881 261.28C75.1037 261.3 75.5392 261.318 75.8302 261.326C75.9668 261.33 76.1203 261.334 76.2465 261.331C76.2689 261.331 76.4524 261.331 76.6567 261.298C76.7164 261.288 76.8481 261.264 77.0085 261.213C77.068 261.194 77.5834 261.045 78.0292 260.567C78.3044 260.273 78.6304 259.764 78.6669 259.064C78.7027 258.374 78.4384 257.849 78.2214 257.547C77.8614 257.047 77.4056 256.833 77.3483 256.805C77.0416 256.651 76.0681 256.275 74.9558 255.849C73.7484 255.387 72.1464 254.78 70.3969 254.119C66.9079 252.799 62.8302 251.259 60.0442 250.172C32.3679 237.95 23.0489 210.625 17.6349 186.402L12.6671 186C-3.08721 226.546 5.35378 268.275 16.5145 292.284Z" fill="#1F4988"/>
<path d="M100.478 31.4463C126.474 24.7104 151.587 26.5996 167.509 30.7168L169.244 31.165L169.296 32.9551C170.018 57.8756 158.091 76.2845 143.09 89.0713C128.232 101.737 110.241 109.007 98.0553 111.868C52.6937 131.851 28.5357 159.8 17.0533 188.33L14.4176 192L12.0856 187.929C4.87911 154.41 11.5369 120.294 19.3522 100.04L19.3834 99.959L19.4205 99.8799C21.2157 96.0788 23.1147 92.4622 25.1051 89.0225L30.5719 80.3398C48.0865 54.7475 71.147 40.4805 94.069 33.2803L100.478 31.4463Z" fill="#2A5DA7"/>
<circle cx="109" cy="57.999" r="10" fill="black"/>
<path d="M277.327 260.981L273.496 258.683C243.129 240.465 242.681 216.048 245.811 206.659L245.242 206.469L239.776 215.152L176.278 262.211L169.869 264.045C187.395 274.841 208.211 276.866 226.976 275.108C246.003 273.325 263.197 267.63 273.284 262.883L277.327 260.981Z" fill="#5998D5"/>
<path d="M176.849 263.223C150.852 269.959 125.739 268.069 109.817 263.952L108.083 263.504L108.031 261.714C107.309 236.794 119.236 218.385 134.236 205.598C149.095 192.932 167.085 185.662 179.271 182.801C224.633 162.818 248.791 134.87 260.273 106.339L262.909 102.669L265.241 106.74C272.448 140.259 265.79 174.376 257.974 194.629L257.943 194.71L257.906 194.789C256.111 198.59 254.212 202.207 252.222 205.647L246.755 214.329C229.24 239.922 206.18 254.189 183.258 261.389L176.849 263.223Z" fill="#60AEF8"/>
<circle cx="168.327" cy="236.669" r="10" transform="rotate(-180 168.327 236.669)" fill="black"/>
</svg>
